<svg version="1.1" id="Layer_1" xmlns="http://www.w3.org/2000/svg" x="0" y="0" viewBox="0 0 400 300" xml:space="preserve"><style>.st0{fill:#172371}.st1{fill:#172161}.st2{fill:#6c85c1}.st3{fill:#7e99c9}.st4{fill:#a0b9dc}.st5{fill:#2c4d95}.st6{fill:#8ba4cd}.st7{fill:#95add5}.st8{fill:#151e6e}.st9{fill:#d9ebf7}.st10{fill:#f3f6f9}.st11{fill:#c5daed}.st12{fill:#89a1ca}.st13{fill:#262f81}.st14{fill:#ee9a60}.st15{fill:#28448f}.st16{fill:#f1f3f6}.st17{fill:#fefefe}.st19{fill:#1f277a}.st20{fill:#e26044}.st21{fill:#b3172a}.st22{fill:#e9eef4}.st23{fill:#e7533c}.st25{fill:#3771af}.st26{fill:#3260a2}.st27{fill:#3d90c4}.st28{fill:#46b0dc}.st29{fill:#44a3d2}</style><path class="st0" d="M199.3 71.4c.4-.1.7-.2 1.1-.3h.2c0 .1 0 .2-.1.4 3.8-.8 8.9-1.3 12-3 22.1 0 43.9 5.2 65.9 7.5 13 2.3 26.8 2.4 39.3 6.1 3.3 2.2.2 8.3 2.4 9.8 11.7-.1 10.1 5.3 10.2 14.7-.7 1.5-.1 3.2-.3 4.8.1 1.7-.8.2-.8 2.4h-.3c-.4-5.4.8-11.9-.4-16.8-.6-3.7-4.6-2.9-7.4-3.3-.9-.5-2-.4-2.1.9.1 2.2-7.5 3.6-9.3 4.9-1.1-.7-.9-.3-1.4.6-.3-.1-.8-.2-1.3-.3-.1.9-.3 1-1.5.8-.1-.2-.1-.4-.3-.8-.3.3-.5.4-.7.6l.6.6c-1.4.7-2.7.9-4.2 1 0 .1 0 .1.1.2h.7v.1c-2.9 1.1-5.9 2.2-8.9 3.3v.3c-.9-.4-1.6-.3-2.1.5-4.8 1.5-9.9 4.3-14.6 5.1 0 .1.1.3.1.4-1.9.7-3.8 1.3-5.7 2 0-.1.1-.3.1-.4-.1 0-.1-.1-.2-.1-.2.2-.5.5-.6.8-1.1.5-2.2 1-3.5 1-.4.5-.8.5-1.1.4-1.3 1.9-3.6-.4-4.9 1.8.9.1 1.4-1 2.4-.5-1.4.6-2.6 1.6-4 .6-.7 2.3-4 2.1-6 2.8-.5 1.2-2 .5-2.7 1.3-.6-.6-.6-.6-1-.3.2.1.4.3.7.5-1.4.4-2.6.7-4 1.1-.3.6-5.2 2.3-6.1 2-.3.8-1.9 1.4-2.9 1.2-.3.3-.6.6-.8.6-.7.1-1.1.9-1.9.6-6.1 2.6-12.5 4.7-18.8 7.2-.1-.4-.1-.4-.3-.7-.9 1.4-2.2 2-3.8 1.8-.9 1.6-3.7.6-4.9 2.1-1.8.4-3.8 1.3-5.6 1-.7-1.1-1.9.1-2.8.1-5.8-.3-11.9-1.6-17.4-3-22.1-4-44.8-8.6-66.5-12.4-9.5-2-19.2-3.3-28.4-5.5-2.7-.4-8.8-.7-10.5-2.5.2.1.5-.4.6.2 0 .2.7.2 1 .3.1-.3.1-.6.2-1 37 7.6 75 12.6 111.5 21.5v-.5c8.2 2.2 16.3 1.6 24-2.2 20.8-8.1 41.9-15.3 62.8-23.3 11.9-4 23.3-8.9 35.2-12.9 10.4-3.8 6.4-3.9 7.1-13.9h-.1c0 .1-.1.2-.1.3-2.2-2.8-6.8-1.7-9.4-2.7.4-.1.8-.1 1.3-.2 0-.1 0-.2-.1-.3-2.9.4-5.8.3-8.4-.7-20.8-2.3-41.4-5.6-62.4-8.2v-.2c.3 0 .6-.1 1.1-.2-.5-1-3.1.2-4.2-.1-3.8-.7-7.8-.3-11.1-2.5 1 1.5-2 .3-2.7.5-2.9 0-5.6.8-8.5.9-1.4 0-2.4.9-3.8.3.2.3.3.4.4.5-3.1.4-6.1 1.7-9.2 1.8-.4.7-1.1.4-1.7.3 0 .6-3.3 1.3-5.2 1.1l-.2.2c.2 0 .4.1.6.1l-.2.2c-.8.1-1.5.2-2.3.3 0 0 0 .1.1.2-9.4 1.9-18.6 4.7-28.1 6.4-13.4 3.6-27.4 7.3-40.9 9.5-6.2 2-14.7 4.6-20.9 4.9.2.1.3.2.6.4-7 1.3-13.8 3.5-20.8 4.9.6-.2 1.2-.3 1.5-.9-1.6-.6-3.7.9-5.4 1 0 .3-.1.7-.5.6-.8-.9-1.4.5-2.2.7 40-13.3 84-19 124.7-31.3M77.9 116c0-.1.1-.1.1-.2l-.6-.3c0 .1-.1.1-.1.2zm5.3-15.3c-.1-.1-.2-.1-.2.1.2 0 .2 0 .2-.1"/><path class="st1" d="M75 115.5c1.6 1.8 7.8 2.1 10.5 2.5 9.3 2.2 19 3.5 28.4 5.5 21.7 3.8 44.3 8.5 66.5 12.4 5.5 1.4 11.6 2.7 17.4 3 .9-.1 2.1-1.3 2.8-.1 1.8.3 3.8-.6 5.6-1 1.2-1.5 4-.5 4.9-2.1 1.6.2 2.8-.3 3.8-1.8.3.4.2.3.3.7 6.2-2.5 12.7-4.6 18.8-7.2.8.4 1.2-.5 1.9-.6.3 0 .5-.3.8-.6 1 .2 2.6-.4 2.9-1.2.9.3 5.8-1.5 6.1-2 1.4-.4 2.6-.7 4-1.1-.3-.2-.5-.4-.7-.5.5-.3.5-.3 1 .3.7-.8 2.2-.1 2.7-1.3 1.9-.8 5.2-.5 6-2.8 1.4 1 2.6 0 4-.6-1-.5-1.6.6-2.4.5 1.4-2.2 3.6.1 4.9-1.8.3.2.8.2 1.1-.4 1.2 0 2.4-.5 3.5-1 .1-.3.3-.6.6-.8.1 0 .1.1.2.1 0 .1-.1.3-.1.4 1.9-.7 3.8-1.3 5.7-2 0-.1-.1-.2-.1-.4 4.7-.8 9.8-3.6 14.6-5.1.5-.8 1.2-.9 2.1-.5v-.3c3-1.1 5.9-2.2 8.9-3.3v-.1h-.7c0-.1 0-.1-.1-.2 1.5-.1 2.8-.3 4.2-1l-.6-.6c.2-.2.4-.4.7-.6.1.4.2.6.3.8 1.2.2 1.4 0 1.5-.8.5.1 1 .2 1.3.3.5-.9.3-1.3 1.4-.6 2.8-1.5 6.1-2.1 8.9-3.8.8-.8.2-2.8 2.2-2.2 2.8.8 7.2-.5 7.8 3.5.1.4-.4 1 .4 1.1v1.4h-.7c.4-6.5-4.4-4.5-8.7-5.5.2 2.4-1.6 2.9-3.2 3.5-36 13.8-72.2 26.9-108.2 40.4-11.8 4.5-24.1-1.3-36-2.8-16.3-3.1-32.6-6.1-48.9-9.2-7.6-2.7-50.7-6.2-49.6-12.2-3 1-8.7.9-9.8 4.3-1.3 7.3-.2 15-.5 22.4.1 3 2.5 5 5.3 5.5 38.1 7.8 76.1 15.8 114.1 24.1 16.4 4.9 31.3-4.4 45.9-10.5 31.8-13 63.7-26.1 95.6-38.9 2.5-1 4-2.6 4.1-5.4 1.4 2-1.3 4.5-3 5.5-.4.3-1.4.5-.7 1.4-.7.5-.7-.4-1.1-.6-40.3 15.9-80.4 32.7-120.5 49.2-12.8 2.9-25.7-1.5-38.2-4.1-32.2-6.7-64.4-14-96.7-20.1-9.2-3.4-4-15.7-5.1-23.2-.6-3.7.3-8.4 4.7-8.7-11.3-3.4-5.7 19.4-6.8 25.5 0 2.9 2.4 6.7 5.5 7.2.4.6 1.3.3 1.8.5.7.5 1.4.6 2.2.4.2 0 .4-.1.5 0 .7.7 1.7.6 2.5.8 1.9.6 3.8.3 5.5 1 .1 0 .1.3.2.5-6.9-1.3-18.4-1.2-18.6-10.7.1-6.7 0-13.4.1-20.1-.1-6.5 7.4-7 12.1-8.6 2.7-1.9-1.8-9.2 4.4-10.3 38.3-9.8 76.9-18.2 115.3-27.7h.1l.1-.1c2.3-.5 4.6-1.1 7-1.6-40.8 12.3-84.6 18-124.8 31.4-1.3 1.9-.5 4.6-.7 6.8.1 3.3-4.7 2.2-6.7 3.7 0 .1 0 .2.1.3h3.7c.9-1 1.7-.8 2.8-.6.4.5-.1 1.9.9 2.4m-5.2-1.6c-.1.1-.1.2.1.2 0-.1 0-.1-.1-.2"/><path class="st1" d="M330.1 96.5c-1.5-4.7-6.1-3.9-10-4.5-2.7-2.5 2.3-10-5.6-11-34-3.9-67.9-11.1-102-12.4 28.7-1.1 57.2 7.2 85.8 9.6 6.2 2.1 20.5-.9 21.5 7.6.5 1.7-1 5.1.8 5.8 4 .4 9.4 0 10.1 5.1.5 6.2.1 12.4.2 18.6.2 6.8-7 7.9-11.8 10.4 8.1.7 11.8 8.6 5.3 14.3-3.7 2.2-7.6 3.6-11.5 5.6 6.4 7.9 5.7 20.1-.6 27.8 1-2.7 3.4-5.2 3.4-8.2-1.7.9-.1-1.5 0-2.1-.3-.9.3-.9 1-.8 1.7-12.6-6.5-16.3-2.9-17.7-.1-.3-.2-.6-.4-.9 0-.1 0-.2.1-.2 2 1.1 3.6-.6 5.4-1.2-.3-.1-.4-.2-.4-.2.2-.4.3-.8.7-1.1.4.5.2.7-.1 1.2 6.1-1.3 11-8.4 6.3-13.7-1.3-1.3-10-2.2-4.5-4.1-.3-.2-.4-.4-.6-.5 1-.4 2 .8 2.5-.8 1.6-.4 3.3-.9 4.8-1.9 5.7-4.7 1.5-17.8 2.5-24.7"/><path class="st2" d="M317 163.3v-.2l.1-.1c4 1.3 34.2-.3 19.1 6.2-31.1 17.6-62.3 35.1-93.3 52.9-10.1 5-18.1 14.7-29 17.5 0-.1-.1-.3-.1-.4 4.8-.5 8.4-3.8 12.3-6.4 9.6-6.9 19.8-12.9 30.1-18.6 27.7-16.4 56.7-31.2 83.9-48-.3.1-.4.1-.6.2v-.7c-7.4-1.3-15-1.3-22.5-2.4"/><path class="st3" d="M203.4 239c-38-8.8-75.5-20-113.4-29.4-3.3-1.7 9.2-5.9 10.5-7 .1 0 .3.1.4.1-1.8 1.8-5.4 1.9-7 4-1.5 0-2.5.9-3.7 1.5-1.6 1 2.9 1.5 3.4 1.8 36.7 9.2 73.1 19.8 109.9 28.7 0 .1-.1.2-.1.3"/><path class="st1" d="M100.7 202.1c-13.1-10.8-1.3-18.7-14.1-28.8-6-1.5-12.3-2.4-18.2-4.3-5.1-2-6.7-9.6-2.9-13.6 4.2-2.7 9.6-3.4 14.4-4.5-6.1 3-18.1 2.1-15.8 12.3 2.5 8.4 15.5 7.5 22.6 9.2l-.2.2c3.4 1.8 5.1 5.9 7.3 8.9.5 3.7-.1 7.5 1.1 11.2 2.5 8.9 8.8 10.1 16.2 12.3-3.4-.4-7.1-1.2-10.2-2.9zM212.4 68.6c-3.1 1.7-8.2 2.2-12 3 0-.2.1-.4.1-.5.7-.1 1.4-.2 2.1-.4h.1c3.3-.7 6.5-1.5 9.7-2.1"/><path class="st2" d="M213.5 239.7c-1.7.1-3.4.1-5.1.1l-.3-.3c1.8-.1 3.6-.1 5.4-.2zm-10.1-.7c.1-.1.1-.2.2-.3 1.4.1 2.8.4 4.2.6-.1.1-.2.3-.3.4-1.4-.3-2.8-.3-4.1-.7"/><path class="st4" d="m79.8 150.9-2.1.3v-.7c.7 0 1.5-.1 2.2.2 0 0-.1.1-.1.2"/><path class="st5" d="M191.7 73.2c-.8.2-1.6.4-2.3.6.8-.2 1.6-.4 2.3-.6"/><path class="st6" d="M319.2 163.2c-.4 0-.8-.1-1.2-.1.4 0 .8 0 1.2.1"/><path class="st5" d="M205.8 70c-.3.1-.7.2-1 .3.3-.1.6-.2 1-.3"/><path class="st7" d="M100.9 202.2c.2.1.4.2.5.3-.2.1-.3.1-.5.2-.1 0-.3-.1-.4-.1.2-.1.3-.3.4-.4"/><path class="st3" d="M205.5 239.4c.3 0 .6.1.9.1-.3 0-.6-.1-.9-.1m2 .3c.1-.1.2-.3.3-.4.3.1.4.3.6.5-.3-.1-.6-.1-.9-.1"/><path class="st5" d="m194.9 72.4-.9.3z"/><path class="st6" d="M324.5 163.6c-.3 0-.5-.1-.8-.1.3 0 .6.1.8.1"/><path class="st3" d="M213.5 239.7v-.4c.1 0 .2-.1.3-.1 0 .1.1.3.1.4-.1 0-.3 0-.4.1"/><path class="st5" d="M207 69.7c-.3.1-.5.1-.8.2.3-.1.5-.1.8-.2m2.9-.6c-.1 0-.3.1-.4.1.1 0 .2-.1.4-.1m-13.6 3c-.2 0-.4.1-.5.1.1 0 .3 0 .5-.1"/><path class="st3" d="M214.4 239.5c.2 0 .3-.1.5-.1-.2 0-.3.1-.5.1"/><path class="st6" d="M336.9 164.8c-.1 0-.2-.1-.3-.1.1 0 .2.1.3.1"/><path class="st3" d="M203.8 239.1c.1 0 .2.1.3.1-.1 0-.2-.1-.3-.1m12 .2c.1 0 .2 0 .3-.1-.1 0-.2.1-.3.1m-8.9.3c.1 0 .2.1.3.1-.1-.1-.2-.1-.3-.1"/><path class="st5" d="M207.8 69.5c-.1 0-.2.1-.3.1.1 0 .2 0 .3-.1m-14.1 3.2c-.1 0-.2.1-.3.1.1 0 .2-.1.3-.1m3.2-.7c-.1 0-.2.1-.3.1.1-.1.2-.1.3-.1m6.8-1.5c-.1 0-.2.1-.3.1.1-.1.2-.1.3-.1m.7-.2c-.1 0-.2.1-.3.1.1 0 .2-.1.3-.1m4.7-1h-.3zm1.4-.3c-.1 0-.2 0-.3.1.1-.1.2-.1.3-.1"/><path class="st3" d="M211.6 239.7h.5z"/><path class="st6" d="m317.1 163-.1.1v-.3c0 .1.1.1.1.2"/><path class="st5" d="M195.5 72.3h-.1zm5-1.3v.1h-.2c.1 0 .2 0 .2-.1m2.2-.3c-.1 0 0 0 0 0"/><path class="st0" d="M188.1 74h-.1z"/><path class="st6" d="m100.7 202.1.1.1c0-.1 0-.1-.1-.1"/><path class="st3" d="m217.1 238.9.1-.1s0 .1-.1.1"/><path class="st5" d="M189.2 73.8h-.1c0 .1.1 0 .1 0"/><path class="st3" d="M204.6 239.3q.15 0 0 0 .15 0 0 0"/><path class="st5" d="M192.3 73c-.1.1 0 .1 0 0"/><path class="st3" d="M212.4 239.7h.1z"/><path class="st8" d="M79.3 150.4H79c-.1-.2-.1-.5-.2-.5-1.8-.7-3.6-.4-5.5-1-.9-.2-1.8-.1-2.5-.8-.1-.1-.4-.1-.5 0-.8.2-1.5.1-2.2-.4-.5-.2-1.4.1-1.8-.5-3.1-.5-5.5-4.2-5.5-7.2 1.1-6.1-4.5-28.9 6.8-25.5-4.4.4-5.4 5-4.7 8.7 1.1 7.4-4 20 5.1 23.2 32.3 6 64.5 13.4 96.7 20.1 12.5 2.6 25.4 7 38.2 4.1 40.1-16.5 80.2-33.2 120.5-49.2.4.2.4 1.1 1.1.6-.7-1 .3-1.1.7-1.4 1.6-1 4.3-3.5 3-5.5-.1-5.2 0-10.5-.1-15.7h.7v14.4h.3c0-.4 0-1.1.3-1.3 1.5-1.2-.2-4.2.8-5.8.1 6.1 1.6 14.9-6.6 16-1.8.1-.7 1.7-2.8 1-.2-.1-.4 0-.7.1.2.1.3.3.6.5-5.6 1.9 3.1 2.8 4.5 4.1 4.8 5.3-.2 12.4-6.3 13.7.3-.5.5-.7.1-1.2-.4.3-.5.7-.7 1.1 0 0 .1 0 .4.2-1.9.7-3.4 2.3-5.4 1.2 0 .1 0 .2-.1.2.1.3.2.6.4.9-3.6 1.4 4.7 5.1 2.9 17.7-.7-.1-1.3-.1-1 .8-.1.5-1.7 2.9 0 2.1-4.5 18.1-15.2 13.5-29.3 10.5-.2-.4-.5-.7-.7-1.1 0-.1.1-.1.1-.2-.3 0-.7.1-.9.1-.1-2.4-.8-4.9-.3-7.3.7-.1.6-.6.6-1.1-1.2-4.1 1-4.6-1-6.4.4-.3.7-.5 1.2-.9-1.9-.7-2.2-.3-4.2.5.5-1.2 3.1-.7 1.7-2.3 6.2-3.7 13.3-5.8 19.6-9 2.1 0 3.9-3 5.9-1.5-.3.7-.8 1.6-1.7 1.1.5-.2.9-.4 1.3-.6-.5-.2-.8-.3-1.2-.4-.8 2.8-2.3 1.9-4.2 3.4-.6.5-1.5.4-2.2.9-.7.9-3.7 1.1-3.2 2.3-2.3 6.3-4.6 15.2.7 20.6 0 .2-.1.3-.1.6 8 6.6 15.8-3.2 17.2-11 .7-5.1.2-15.6-5.6-16.6-.3-.5 1-.7.2-1.2-.5.1-1 .3-1.4.4 0-.1-.1-.2-.1-.3 5-2.2 10.1-4.7 15.1-7.1.2.1.4.3.7.4-.1-.2-.1-.5-.2-.7 2.4-2.7 2.8-9.8-2.2-8.9-6.5-1.9-4.3-3.1-10.7-.4-7.8 2.9-15.3 6.5-23.1 9.3-22.1 8.9-44 18.1-66 27.4-12.2 5.5-24.9 11.2-38.5 7-33.4-7.1-66.9-14.9-100.4-21-4.5 1.5-9.1 3.1-13.5 4.3-3.5 1.1-4.3 6.2-2.2 9.2 1.9 3.1 6 3 9.1 3.9 12.1 2.4 24.1 5.1 36.1 7.8v.3c-.6.1-1.2.1-2 .2 1.2.7 2 .6 3.2.2 0 .1.1.2.1.3-.4.2-.7.4-1.1.6 0 .1.1.1.1.2-1-.2-2-.4-3.2-.7.3-.1.4-.1.6-.2-.1-.1-.1-.2-.2-.3-1.1.6-2.6-.1-2.4 1.5 0 1.5.1 3.1.1 4.6.7 3.4-1.2 12 1.2 13.7l.2.2c0 1 .8 1.6 1.4 2.3.3.4.6 1 1.3.9 0 .9 1.3 2.1 2.6 2.3.1.6.5.5.9.5 11 3.1 23.3 6.2 34.4 8.2h.1c1.8 1.3 4.5 1.4 6.7 1.2-.3.1-.5.2-.8.3 4.3 1.5 2.5-1.4 4.9.5-1.3.4-2.4 1.7-3.7.4-.9-.1-1.8.4-2.7.6v.2l1.5.3v.4c-14.7-2.2-29-7.1-43.7-9.9-12.5-3-18.3-7.9-17.8-21.7.3-2.9-4.8-9.8-7.4-11l.2-.2c-8.9-1.2-28.5-2.6-21.3-16.2 3.6-3.8 11.2-2.4 14.7-5.8-.2-.3-.4-.3-.7-.3m214 4.1c-2.2 1.2-6.1 1.6-7 4.1v16.2c4.6 1.5 9.1 1.8 13.8 2.7-1.1-1.1-3.5 0-3.5-2-1.5-1.4-2.5-2.9-2.5-5.1.1-1.4-1.1-2.6-.9-3.9 1.2-1.6-.9-4.5.7-5.6.3.4.4.8.5 1.3h.3c0-.8-.4-2.1-.1-2.8.5-.7.3-1.2-.1-1.8.3-.2.6-.3 1.1-.6-1.5-.8-2.3-1.4-1.2-2.9l-.2-.2zM93.1 174.8l-.2.2c3.9 3.7 3.4 8.3 3.5 13.5.5 5.7 4.9 12.5 11.2 12.2-3.9-6.7-1.6-15-2.2-22.5-2.8-2.8-8.5-1.9-12.3-3.4m202.8-19.6-.1-.1c-.2.3-.5.6-.7.9.1.2.3.4.5.6.1-.5.2-.9.3-1.4m-1 13.9c-.1 0-.2.1-.3.1.1.4.2.7.3 1.1.1 0 .2-.1.4-.1-.2-.4-.3-.8-.4-1.1m-9.9-11.4v-.3c-.3-.1-.7-.1-1-.2v.3c.3.1.6.2 1 .2m16.9 20.2v-.2h-1v.2zm-147.1 35.3v-.2h-.9v.2zm-1.5 1.2v-.2h-.4v.1c.1.1.3.1.4.1"/><path class="st1" d="M81.2 101.5c7-1.5 13.8-3.6 20.8-4.9-.2-.2-.4-.3-.6-.4 6.2-.3 14.7-2.9 20.9-4.9 13.6-2.2 27.6-6 40.9-9.5 9.5-1.7 18.7-4.4 28.1-6.4 0-.1-.1-.2-.1-.2.8-.1 1.5-.2 2.3-.3l.2-.2c-.2 0-.4-.1-.6-.1l.2-.2c1.9.1 5.2-.6 5.2-1.1.6.1 1.2.4 1.7-.3 3-.1 6.1-1.4 9.2-1.8-.1-.1-.2-.3-.4-.5 1.4.7 2.4-.3 3.8-.3 2.9-.1 5.5-.9 8.5-.9.6-.2 3.7 1 2.7-.5 4.6 2.9 10.7 1.8 15.4 2.6-.5.1-.8.1-1.1.2v.2c20.9 2.7 41.6 5.9 62.4 8.2 2.6 1 5.6 1.1 8.4.7 0 .1 0 .2.1.3-.4.1-.8.1-1.3.2 2.7.9 7.3-.1 9.4 2.7 0-.1.1-.2.1-.3h.1c-.7 9.8 3.3 10.1-7.1 13.9-11.9 4-23.4 8.9-35.2 12.9-20.8 8-41.9 15.3-62.7 23.3-7.6 3.7-15.7 4.4-24 2.2v.5c-35.1-8.6-71.6-13.5-107.2-20.7-8 0-4.5-5.5-5.4-11-.3-2.7 3.5-2.4 5.3-3.4m190.6 9.6c14.9-5.2 29.7-10.8 44.4-16.5 1.9-2.2.3-6.4.8-9.3-.3-1.6-1.7-2.4-3.2-2.5-33.1-3.2-66.1-11.4-99.3-12-38.7 8.3-77 18.2-115.5 27.1h-.1c-4.8 1.1-9.7 2.3-14.5 3.6-.1.1-.3.1-.4.2-1.9.4-3.7.9-5.5 1.4-.1.1-.3.1-.4.1l-1.5.9c.2 3.3-1.2 7.9.7 10.6 10.4 2.3 21.1 3.8 31.6 5.9 26.9 2.1 80.3 21.9 102.1 13.4 18.2-6.9 36.6-13.2 54.6-20.4 2-.8 4.2-1.5 6.2-2.5.1 0 0 0 0 0m-54.2-41.2v.1c.1 0 .2 0 .3-.1v-.1c-.1.1-.2.1-.3.1"/><path class="st8" d="M78.9 102.1c-1.2.9-3.6.8-3.2 2.9.7 3.2-1 7.7 1.1 10.1-.1.3-.1.6-.2 1-.4-.1-1-.1-1-.3-.1-.6-.4-.1-.6-.2-.9-.6-.5-2-1.3-2.5-1.1-.2-2-.4-2.8.6h-3.7c0-.1 0-.2-.1-.3 1.9-1.5 6.8-.4 6.7-3.7.4-2.4-1-6.1 1.7-7.3.4-.3.8-.8 1.3-.1.4.2.5-.2.5-.6 1.7-.2 3.8-1.6 5.4-1-.4.8-1.4.8-2.1 1.2-.4-.3-1.4-.2-2 .3.1-.1.2-.1.3-.1m250-4.1c-.8-.1-.3-.7-.4-1.1.6.2.3.7.4 1.1m-251 18-.6-.3c0-.1.1-.1.1-.2l.6.3c-.1.1-.1.1-.1.2m5.3-15.3c0 .1-.1.1-.2.1.1-.2.1-.2.2-.1"/><path class="st9" d="M197.7 170.9c-33.2-1.7-65.7-13.6-98.6-18.8-10.2-2.2-20.3-4.4-30.5-6.4-2.2-.4-4-1.4-4.9-3.6-.8-7.9-.9-16.5.1-24.3 29.7 5.1 59.7 10.6 89.5 16.4 16.7 2.1 33.5 9 50.4 7.3-1.8 1.4-6 1.1-6.1 4 0 8.5-.8 17 .1 25.4m-52-23.8c-.5-2.6 1.6-7.7-2-8.5-11.3-2-22.6-4.1-33.8-6.4-3.4.2-15.3-5.5-15.6-.7.9 4.1-2.2 12.4 2 14.4 13.1 2.4 26.2 5 39.3 7.6 10.7 1.7 10.2 4.5 10.1-6.4m29.3 7.4c-.4-2.2-14.8-3.3-17.8-4.3-1.8-.2-1.7 2.3-.1 2.5 1.6.3 3.2.6 4.7.9 2.2-.3 14.2 4.2 13.2.9m-15.7-8.4c.6 2.6 6 1.7 8.3 2.7 2.1-.1 7.5 3.1 7.4-.5-.7-1.1-3.9-1.1-5.2-1.5-2.3.1-10.3-3.4-10.5-.7"/><path class="st10" d="M203.6 141.6c-16.9 1.7-33.7-5.2-50.4-7.3-29.7-5.8-59.8-11.3-89.5-16.4 1-3.3 6.8-3.2 9.8-4.3-1.4 5.9 42.7 9.5 49.6 12.2 16.3 3.1 32.6 6.1 48.9 9.2 11.9 1.5 24.2 7.3 36 2.8 36.1-13.5 72.3-26.7 108.2-40.4 1.6-.6 3.4-1.1 3.2-3.5 2.2.7 6.9-.1 8 1.9-41.4 14.8-82.3 31.1-123.8 45.8"/><path class="st3" d="M203.6 141.6c11.5-3.7 22.7-8.4 34.1-12.5-4.4 2.6-9.8 3.6-14.5 5.9.1.3.2.5.3.8-.4.1-.7.2-1 .3 0 .7-.4 1.8.8 1.9.9 1 .3 1.7 2.1.3.2 1.4 2.2 1.1.9 2.2v.3c.6-.2 1.1-.2 1.7-.2-5.3 2.9-12.5 4.3-17.4 7.4-1.9.8-.8 3.5-1.2 5.1-.1 1.2-1.4.8-1.3 2.6 0 1.8-1 5 1.9 4.5-.1-.5-.2-1-.4-1.5.3.2.6.3.8.4.3.2.6.4.9.5 0 .6.3.7.8.4 4.7-2 9.6-3.8 14.4-5.8 1.1-.2 2.3-1.3 3.4-.9.9.3 2.7.1 3.2 1 0 .8.9.6 1.3.8.3.8.9.4 1.3.5 0-.2.1-.4.1-.7.5.8.9.6 1.1 0 2.7-1.2 5.7-2.1 8.5-3-4.4 2.2-9.5 3.6-13.6 6.3-.7-.3-2.8.6-3.1 1.3h-.3c0-.1 0-.1-.1-.2-.1.2-.2.3-.2.5-10.3 3.4-19.8 10.2-30.6 11.2-.8-8.3-.1-16.9-.2-25.3.3-3 4.4-2.7 6.3-4.1m18.5-6.1c-.2-.2-.2-.1-.3.1.1 0 .2 0 .3-.1"/><path class="st4" d="M298.1 106.6c5.2-2 10.5-4 15.7-5.9-1.8 1.6-4.9 1.7-6.9 3.2 1.1 1.1 1.3 3.2 1.9 4.7q.6-.3 1.5-.6c0 .1.1.2.1.2-1.9.8-3.9 2.1-6 2.1-1.8 2.1-3.8.9-4 4.2-.1-.2-.2-.4-.2-.6-.8 1.7-1.9 9.1-.2 9.8 1.1 0 .7-1.5.9-2.3l.9.3c.8 1 1.9.5 2.8.1 0 .3.1.6.5.3 2.8-1.5 5.9-2.6 8.9-3.4 0 .1 0 .2.1.3-3.1.2-.2 3.2 0 4.8h-.4c-2.3 2.1-6.8 2.3-8.6 4.4-12.2 5.1-24.5 10.1-36.8 14.9l-.2-.2c3.5-2 7.6-2.9 11.2-4.8 6.9-2.3 13.5-5.4 20.3-8.1 0-.1-.1-.2-.1-.3-1.2.7-2-.3-3.3-.1-.3.1-1.1-.2-1.3-1-.1-.3-.8-.5-.9-.7 0-.8-.6-1-1.1-1.1-.2-1.4-1.2-2.1-1.3-3.3 0-1.2 0-1.2-1.2-1.6-.2-.9.5-2.3-1.2-2.4-.2-1 .5-2.3-1.2-2.4-.3-.9.5-2.3-1.3-2.4-.4-2.3 1.9-1.9.4-3.6 3.5-1.4 8.1-2.3 11-4.5"/><path class="st11" d="M300.4 114.6c.2-3.4 2.3-2.2 4-4.2 2.1 0 4.1-1.3 6-2.1 0-.1-.1-.2-.1-.2-.5.2-1.1.4-1.5.6-.6-1.4-.6-3.5-1.7-4.5-.3-.2-.1-.5.1-.5 6.8-2.6 13.2-5.9 20.3-7.9 1.9 6.1.3 13 .9 19.4-.4 7.4-17.5 9.5-23.3 13.1 1.8-2.1 6.3-2.3 8.6-4.4h.4c-.1-1.7-3-4.6 0-4.8 0-.1 0-.2-.1-.3-3.1.9-6.1 2-8.9 3.4-.4.3-.4.1-.5-.3 8.9-5.4 13.7-.5 12.5-13.7 0-3-3-.7-4.4-.2-3.2 2.2-11.7 2.6-11.9 7-.1.1-.3.1-.4.1zm13.9 9c0 .1.1.2.1.3.5-.2 1.1-.4 1.6-.7 0-.1-.1-.2-.1-.2-.5.2-1.1.4-1.6.6m-1.2-4c-.1-.1-.2-.1-.2.1.2 0 .2 0 .2-.1"/><path class="st6" d="M279.2 138.1c-3.5 2.1-8.3 2.6-11.3 5.2-.1 0-.2.1-.2.1-1-.7-2 .3-2.8.7-4.5 1.9-9 3.5-13.5 5.4-.8-.4-1.5.2-2.3.5-.3-1-.4-1.1-1.4-.8-1.5-.1-3.6.4-3.7-1.7-3 .7-5.7 2.9-9 2.9 9.8-3.4 8.2-2.1 8.3-12.3 1.5-2 5.5-2.3 7.7-3.4-.5 1.7-.9 8.6 2.3 8.3 4.6-.7 8.4-3.1 12.8-4.7 1.2-.5 2.5-.7 3.1-1.9.6 1-.6 2.1.3 3.1.8.6 2 .7 2.7-.1 2.3-.7 4.7-.4 7-1.3"/><path class="st7" d="M251.3 149.4c4.5-1.9 9.1-3.5 13.5-5.4.9-.4 1.9-1.4 2.8-.7-11.6 4.9-23.2 9.5-34.8 14.4 5.3-3.6 12.8-5.2 18.5-8.3"/><path class="st12" d="M228.9 159.3c.2-.7 2.4-1.6 3.1-1.3-1 .5-2.1.9-3.1 1.3m-.6.4c.1-.2.2-.3.2-.5 0 .1 0 .1.1.2z"/><path class="st8" d="M69.8 113.9c.1 0 .1.1.1.2-.2 0-.2-.1-.1-.2"/><path class="st7" d="M267.9 143.2c.1-.1.1-.2.2-.4l.2.2c-.2.1-.3.2-.4.2"/><path class="st3" d="M196.9 171h.2z"/><path class="st4" d="M305.5 128h.1c0-.1 0 0-.1 0"/><path class="st6" d="M291.3 176.9c14.7 3.2 21.2 2.3 25.7-13.6 7.5 1.1 15.1 1.2 22.6 2.2v.7c.1-.1.3-.1.6-.2-6.2 4.8-14.3 8.3-21.2 12.4.2-.3.5-.6.7-.9-.5-.5-2-1.4-2.1-.3.4.8-.4 1.3-1 1.5 0-.2.1-.5.1-.7-.9.2-2.2-.4-2.6.9-.1.2-.6.3-.9.3-.1 0-.2-.4-.4-.6-.3-.8-1.2-.3-1.2-1.2 0-.5.1-.8.6-.9 1.1-.5-.3-1.6 1.1-2.3 1.2-2.9 5 .5 2.4-5.1-.8.9-1.4 1.9-1.5 3-1.4.8-1.9 2.2-3.1 3.4-.5.5-1.1.8-.6 1.7 0 0-.1.1-.1.2-.6-.1-1.3-.9-1.6.1-6.6 3.7-14.2-.5-21.1-1.3-.8-.2-.9-.2-1.1.7s-1.5 4.6-2.6 4.2c1-1.8 2.1-3.5 2.4-5.6 1.7.3 3.3.8 4.9 1.4m25.2-7.8c-.1-.1-.2-.1-.2.1.1.1.1.1.2-.1"/><path class="st12" d="M284 181.2c1.1.4 2.4-3.4 2.6-4.2.2-.9.2-.8 1.1-.7 6.9.8 14.5 4.9 21.1 1.3.3-1 1-.3 1.6-.1 0-.1.1-.2.1-.2-.5-.8.2-1.2.6-1.7 1.1-1.1 1.6-2.5 3.1-3.4.1-1.1.8-2.1 1.5-3 2.6 5.5-1.2 2.3-2.2 4.9-.7.7-1.1.8-.8 1.9 0 .1-.3.5-.5.6-.9.2-.9 1.6 0 1.6.4.1.7 1 .9 1.1 2-.1-.3-1.2 3.5-1.2 0 .2-.1.5-.1.7.7-.2 1.5-.7 1-1.5.2-1.2 1.6-.3 2.1.3-22.4 14.3-46.7 26.3-69.6 40.1-15.1 5.8-28.5 25.2-45.2 21.2 1-1.3 2.8.1 2.9-1 .3-1 3.8-.6 4.8-.7 0-1.8 1-.7 1.2-1.8.1-.5-.1-1.5.4-1.8 1.3.1.9-2.5-.1-2.4-.3 0-.5-.9-.6-1-1.2-.1-.6-1-1-1.7-.5-.1-.9-.1-1.1-.2-.6 2.8-1 .2-3.1.5 3.2-.8 6.4-2.2 8.8-4.5 0 .1.1.1.2.1-.1 0-.1 0-.2-.1.6-1.2 2.2-1.8 2.5-3.2.1 0 .2-.1.3-.1 0-.1-.1-.1-.1-.2l.3-.3c.1.2.1.3.2.5 1.9-3.1 3.7-5.9 4.5-9.5-.2-2.7.9-5.5.7-8.3 5.5.6 11.3 1.6 16.6-.5 13.9-7.3 29.8-12 42-21.5"/><path class="st6" d="M208.4 228.8c2-.3 2.5 2.3 3.1-.5.2 0 .6.1 1.1.2.4.7-.3 1.6 1 1.7.1.2.4 1 .6 1 .7 0 .7.4.8.9.1.7.4 1.4-.7 1.5-.5.3-.4 1.2-.4 1.8-.2 1.1-1.3 0-1.2 1.8-1 .1-4.4-.3-4.8.7-.1 1.1-1.9-.3-2.9 1-37.3-8.5-74-19.7-111.2-28.8-.9-.4-4.9-.7-3.4-1.8 1.3-.6 2.2-1.5 3.7-1.5 1.6-2 5.2-2.2 7-4 .2-.1.3-.1.5-.2 3.7 3 9.3 2.7 13.9 4.1 10.5 2.1 20.6 5.4 31.1 7.3v-.1c-.5-.2-.9-.3-1.4-.5 1.7.2 3.3.7 5 1.1-.6 0-1.1-.1-1.7-.2v.3c2.1.2 4 1.2 6.2 1.1-.1-.1-.1-.2-.2-.3.7 0 1.4.2 2.1.4v-.2c-.2-.1-.4-.1-.6-.2.9-.1 1.3-.2 2.1.2 3-.4 6.2-1.2 8.6-3.1.6.1 1.1-.1 1.3-.8.3.2 4.5-2.3 4-3 1.2-.9 2.8-1.5 3.2-3.3 0-.2.3-.3.5-.4.3.4.8.8 1.1 1.2.4 2.1-.7 4.8.6 6.5-.2 1.3.2 3.4 1.3 4.2.1 2.4 2.4 4.1 4.1 5.6q-.15.75.6.6c-.1.2-.1.4-.2.6.4-.1.7-.2 1-.3l.6.3c2.2 2.1 5.9 1.4 8.7 2.8.6-.3 1.6-.2 2.2.3 0 1.1 1.3-.3 2 .3 1.6.5 3.3.6 4.9 1.2.7.2.8.9 1.6.3h.4c.9.6 1.6 1.8 2.6.6.3.3.4.5.6.8.3-.4.6-.8.9-1.1-.4-.1-.4-.1-.3-.1M147 213.9v.2c.2 0 .5 0 .7.1v-.2c-.3-.1-.5-.1-.7-.1"/><path class="st7" d="M145.1 213.3c.5.2.9.3 1.4.5v.1c-10.5-1.9-20.7-5.2-31.1-7.3-2.7-.8-12.6-1.9-13.6-3.9 7.5 2.6 15.3 4 23.1 5.7.3.4.6.5 1 .3.6.1 1.1.3 1.7.3.2.5.5.4.9.2 5.5 1.5 11 2.7 16.6 4.1"/><path class="st6" d="M111.7 205.3c-.2-.1-.5-.1-.7-.2 0 0 .1 0 .1-.1.2.2.4.2.6.3m-1.4-.2c-.2-.1-.5-.1-.7-.2.2 0 .4.1.7.2m-1.6-.4c-.2 0-.4-.1-.6-.1.2 0 .4.1.6.1m-2.8-.5c-.2-.1-.4-.1-.5-.2.1 0 .3.1.5.2m1.3.3c-.2-.1-.4-.1-.5-.2.2 0 .4.1.5.2m-2.5-.6c-.1-.1-.3-.1-.4-.2.1.1.2.1.4.2m3.1.6h-.3z"/><path class="st1" d="M79.3 150.4c.2 0 .4-.1.7-.1 0 .1-.1.2-.1.3-.2 0-.4-.1-.6-.2"/><path class="st13" d="M69.7 155.6c4.3-.9 8.7-2.8 13-4 8.7.9 17.2 3.6 25.9 5.1 24.9 5.2 49.7 10.4 74.6 15.9 7.9 1.7 16.6 2.4 24.1-1.1 26.8-11.2 53.4-22.6 80.3-33.4 7.8-2.9 15.3-6.4 23.1-9.3 6.3-2.7 4.2-1.6 10.7.4-2.6 1.1-5.1 2.5-7.7 3-22.8 10.3-46 20-69.1 29.9-15.5 6.1-30.2 15-46.4 18.8-15.4.5-30.2-5.7-45.3-8-27.7-5.9-55.3-12.7-83.2-17.3"/><path class="st1" d="M284 181.2c-6.8 6.6-16.9 8.8-25 13.6-7.3 3-14 7.8-21.9 9 .7-1.1 2.1-.7 3.2-1.2-.9-.7.5-1.3 1-.9 1 .9 2.6-.7 3.7-1.1-.1-.1-.1-.2-.2-.3-.3.2-.5.3-.8.5-.6 0-1.3-.8-1.7.4-1.1.1-1.2-.5 0-.8v-.2c-1.3.3-2.6.9-3.9.4-1.5-.8-4.9-.6-5.1-2.4 2.6.9 5.3 3.1 8.2 1.7 13.3-7 28.2-11.8 40.5-20.3 0 .3 0 .5.1.9.4-.5.4-.5-.1-.9 4.1-6.1 1.5-14 2.2-21-12.6 5.7-25.4 10.8-37.7 17-5.3 2.6-10.9 4.7-16 7.6-.1 4.1-.5 8.6.5 12.7-1.9-2.5-.6-6.6-1.3-9.6.2-4.8-.2-2.8 4.6-5.7-1.5-.1-1.5-.1-1.9-.7 1-.3 2-.7 2.8-1.4-1.6 0-2.8 1.4-4.3 1.7-.5.3-.2.9-.3 1.6-.3 0-.6.1-1 .1v-1.2c-8 3.8-16.1 7.3-24 11.2 1.1-.1 2.2-.7 3.4-.1-.6.3-1.2.6-1.7.9 0 .1 0 .1.1.2 3.1-1.1 6.2-3.4 9.5-3.7 5.7 3.6 8.5 13.8 5.5 19.7 1.2-5.9.7-12.7-3.6-17.4-3.1-5.2-13.6 4.9-18.8 4.9.3-1.4 2.9-1.1 4.1-1.9 0-.1 0-.2-.1-.3-.2-.1-.5-.2-.7-.3.4-.6.5-.6 1.2.5l2.4-1.2c-.5-.2-.8.1-1.2.2-.5-2.6-2.8 0-4.1.3-7.7 1.4-15.2-.7-22.7-2.1-.8-.7-1.7-.7-2.7-.6-4.9-1.9-10.5-2.2-15.6-3.6 0 .1 0 .1-.1.2.2.1.3.2.5.3-.1 0-.1.1-.2.1 0 1.3.7 1.3 1.8 1.6v-.8c.6.2 1.1.4 1.7.5-.2.2-.3.4-.5.6 1.8 1.4.5 4.1.8 6.1 1.6 8.1-2.1 12.1-8.3 16.5-2.2.2-4.8.1-6.6-1.1 7.1 2.2 7.6-.2 12.7-4.5 3.1-3.9.8-10 1.5-14.8 0-1.6 0-1.7-1.6-2-14.5-2.9-28.8-7-43.4-9.5-3.6-.9-7.3-1.7-11-2.3.4 6.2-.9 12.8.8 18.8-2.4-1.6-.6-10.4-1.2-13.7 0-1.5-.1-3.1-.1-4.6-.2-1.6 1.3-.9 2.4-1.5.1.1.1.2.2.3-.2.1-.3.1-.6.2 1.2.3 2.2.5 3.2.7 0-.1-.1-.1-.1-.2.4-.2.7-.4 1.1-.6 0-.1-.1-.2-.1-.3-1.2.4-2.1.5-3.2-.2.8-.1 1.4-.1 2-.2v-.3c-12-2.7-24.1-5.4-36.1-7.8-6.7-.3-14.2-5.6-8.2-12.2 0 .1.1.1.1.2-8.9 13.7 18.2 12 25.7 15.2 17.6 3.8 35.2 7.7 52.7 11.7 17.7 2.3 39.4 12.6 56.5 8.7 37.1-17.5 75.1-33.3 112-51.1 4.3-1.4 11-3.2 9.8-9.1 3.2 7.5-11.9 10-16.6 13.2 0 .1.1.2.1.3.5-.1.9-.3 1.4-.4.8.5-.6.7-.2 1.2 5.9 1 6.4 11.5 5.6 16.6-1.4 7.8-9.2 17.6-17.2 11 0-.2.1-.4.1-.6l.3.3v.1l.1-.1c14.2 9.1 22.6-20.6 11.5-26.9-4.2 2-8.3 4-12.5 6-.5-1.2 2.6-1.4 3.2-2.3.7-.5 1.6-.4 2.2-.9 1.9-1.5 3.4-.6 4.2-3.4.3.1.7.3 1.2.4-.5.2-.8.4-1.3.6.8.5 1.4-.4 1.7-1.1-2-1.5-3.8 1.5-5.9 1.6-6.3 3.2-13.4 5.4-19.6 9 1.4 1.6-1.2 1.2-1.7 2.3 1.9-.8 2.4-1.1 4.2-.5-.5.4-.8.6-1.2.9 2 1.7-.2 2.2 1 6.4 0 .5.1 1-.6 1.1-.5 2.3.2 4.8.3 7.3.3 0 .6-.1.9-.1 0 .1-.1.1-.1.2.2.4.5.7.7 1.1-.5 2.1-1.5 3.8-2.6 5.6m-30.3 15.5c0-.1 0-.2-.1-.3-.4.2-.8.3-1.1.5 0 .1.1.1.1.2.4-.1.8-.4 1.1-.7zm29.3-16.1c-.6-.3-.9 1.7-1.6 0-4.9 4.5-12 5.8-17.6 9.4.6.7 2-.8 2 1 3.2-2 6.7-3.3 10.1-5 .9-.6 6.7-2.9 6.2-3.9-.3-.7.5-.5.8-.3.9-.5.3-.9.1-1.2m.9 0c.2-.5.5-.9.4-1.2-.2-.7.8-1 .6-1.7 1-.3.5-1.3.8-1.9.1-.4-.7-.7-.9-.9-.2.5-.5 1.1-.7 1.7h.7c-.1.3-.2.5-.2.7l-.6-.3c-.2.6.6.8-.2 1.4-.4.3-.4 1.6.1 2.2m-22.2 12.1c-1.6-1.1-1.2.6-2.8 1.1-.4.2-1 .2-1.4.4-.2.5.4.4.8.5.8-.6 2.9-1.2 3.4-2m.3-.5c0 .1.1.2.1.2 1 .2 1.6-.9 2.5-1v-.3c-.5-.1-.9-.2-1.4-.2-.1-.1-.1-.3-.3-.6-.7.3.2.8.3 1.2-.5.3-.8.5-1.2.7m-18.1 7.1c.8.7.8.7 2.3-.7 0-.1-.1-.1-.1-.2-.7.3-1.4.6-2.2.9m14.5-6.8c.6.3 2.9-.7 3.2-1.5-1.2.5-2.1.9-3.2 1.5m21.2-34.2c.1.1.1.3.2.4.8-.4 1.5-.8 2.3-1.2-.1-.1-.1-.2-.2-.4-.7.4-1.5.8-2.3 1.2m-31.3 40.9c-.7-.6-1.1 0-1.6 0l-.2.8c.7-.3 1.2-.6 1.8-.8m.7-1.6c.6-.4 1.1-.7 1.6-1.1 0-.1-.1-.2-.1-.2-.6.4-1.9.4-1.5 1.3m5.3-1.7c.7.4 1.8-.2 1.7-.8-.6.3-1.1.6-1.7.8m-95.3-7.5c.7-.6.1-1.2-.5-.5.2.1.3.2.5.5m125.6-21.9h.1v-1.6h-.1zm-29.9 28.1c0-.1-.1-.2-.1-.2-.4.2-.9.4-1.3.6 0 .1.1.2.1.3.4-.3.9-.5 1.3-.7m3.1-1v-.3c-.4 0-.9.1-1.3.1v.2c.4.1.9 0 1.3 0m-6.5 3.7c-.1 0-.2-.1-.3-.1-.1.3-.2.5-.3.8.1 0 .2.1.3.1.1-.3.2-.6.3-.8m-2.5.9c-.1-.8-.2-.9-.9-.6zm.9.2c0-.1-.1-.2-.1-.3l-.6.3c0 .1.1.1.1.2.2 0 .4-.1.6-.2m5.2-4.2c0 .1.1.1.1.2.2-.2.4-.3.5-.5 0-.1-.1-.1-.1-.2-.1.2-.3.4-.5.5m-11.3 5.7c0-.1 0-.2-.1-.3-.2.1-.3.1-.5.2 0 .1 0 .1.1.2.1-.1.3-.1.5-.1m8.5-4.5v.2c.2 0 .4 0 .6-.1v-.2c-.2 0-.4 0-.6.1m-45.1-3c-.2-.2-.3-.3-.4-.1.1.3.2.3.4.1m58.3-1.3c-.1-.2-.2-.2-.3-.1 0 .2.1.2.3.1m-11.6 4.8c-.2-.2-.2-.1-.3.1.1.1.1 0 .3-.1m-6.5 2.1c-.1-.1-.2-.1-.4 0 .1.1.2.2.4 0m-87.4-10.6c-.1.1-.1.2.1.2.1-.1 0-.2-.1-.2"/><path class="st14" d="M108.7 197.1c-.2-.6-.5-1.3-.7-1.9.1-.1.1-.3.2-.4h-.2c.4-5.4-.3-11 .4-16.5l5.7 1.2c.6 5.1-3 16.1 3.8 17.4 9.8 2.3 19.6 4.6 29.3 7.1 14.9 5.4 9.7-4.4 10.6-14.4l-.9-.6c2.1 1 7.3 0 7 3.1-.7 4.7 1.6 10.9-1.5 14.8-5.1 4.3-5.6 6.7-12.7 4.5h-.2c-11.4-2.9-22.9-5.8-34.4-8.2-.3-.2-.6-.3-.9-.5-.9-.8-1.7-1.5-2.6-2.3-.9-1.1-1.8-2.1-2.7-3.2-.1 0-.2-.1-.2-.1"/><path class="st0" d="M156.2 212.5c6.3-4.4 9.9-8.4 8.3-16.5-.3-2 1-4.7-.8-6.1.2-.2.3-.4.5-.6-.6-.1-1.1-.3-1.7-.5v.8c-1-.3-1.8-.2-1.8-1.6.1 0 .1-.1.2-.1-.2-.1-.3-.2-.5-.3 0-.1 0-.1.1-.2 5.1 1.5 10.7 1.7 15.6 3.6-1.6-.4-1.9.3-.9 1.5.3 1.3 4 .1 5.5 1.4-1.7 6.5-1.4 15.9 1.3 22.7 2.3 5.2 9.6 5.1 14.3 6-2.5-6-3-12.7-1.4-19 .7 2.3-1.4 5.5 1.2 4.5-.2 4.8 0 9.5 2.7 13.6-1.4.3-.2 1.8-.2 2.7.2 1.2 1.8.9 2.6 1.6 0 .1-.1.2-.1.3-20.7-2.6-24.5-6.1-23.7-27.2-.1 0-.4-.1-.6 0-.1-.1-.1-.3-.2-.4h-.2c-1.4 10.2-12.8 17-22.5 16v-.2c.9-.1 1.8-.7 2.7-.6 1.4 1.2 2.4-.1 3.7-.4-2.3-1.9-.6 1-4.9-.5.3-.3.6-.4.8-.5m8.5-3.6c0 .1.1.1.1.2 5-1.6 8.4-5.9 9.1-11 0-1.9 2.2-5.7-.7-6-2.1-.4-7.3-3.1-8-.1-.7 5.5 3 12-.5 16.9m-3.3-20c-.1-.1-.1-.1-.2-.1v.1z"/><path class="st13" d="M93.1 174.8c3.8 1.5 9.6.7 12.4 3.4.6 7.5-1.7 15.8 2.2 22.5-6.4.3-10.7-6.5-11.2-12.2-.1-5.3.3-9.9-3.5-13.5 0-.1 0-.2.1-.2"/><path class="st0" d="M325.3 133.2c-1.1-1.6-.9-4.6-3.7-3.5-34.8 14.9-69.7 29.7-104.4 45-.9.5-1.8.7-2.7 1.2-.1 0-.2.1-.3.1-.1.1-.2.1-.3.2h-.1c-.8.3-1.5.7-2.3 1-.2.1-.4.2-.7.3l-1.5.6c-18.5 8.8-38.6-2.6-57.5-5.1-25.1-5.5-50.2-10.9-75.3-16h-.1c-2.7-.4-5.6-1.5-8.2-.3 0-.1-.1-.1-.1-.2.4-.9 1.3-.8 2.1-1 .3.5.5.5.8 0 162.4 30.6 88.4 41.4 241.7-22.6 1.1-1.2 2.9-.8 4.2-1.9.5-.4 1.2-.3 1.8-.6 3-2 6.9-2.1 6.6 2.8"/><path class="st13" d="M293.9 155c-5 16 5.7 19.1-7.6 17.5.6-4.8-1.3-11.1.8-15.2 1.7-.4 5.7-3.7 6.8-2.3"/><path class="st0" d="M286.3 172.5c13.4 1.7 2.3-1.9 7.6-16.9.2.8.9.9 1.7 1.4-.5.2-.7.4-1.1.6.4.6.6 1.1.1 1.8-.3.7.1 1.9.1 2.8h-.3c-.1-.5-.2-.9-.5-1.3-1.7 1.2.5 4-.7 5.6-.2.3-.1.8.1 1.1 1.5 3.3.4 5.6 3.3 7.9 0 2 2.5 1 3.5 2-4.7-.9-9.2-1.2-13.8-2.7z"/><path class="st7" d="M298.3 173.9c-5.7-5.2-3.3-14.5-1-20.9 1.3-.6 2.5-1.2 3.8-1.9.2.1.3.1.5.2-7.6 1.4-8.6 21.4-.8 23.3-.2-.3-.4-.6-.6-.8 2.4-.9.2-1.2 1.3-2 .3.1.6.3.9.4-.1.1-.2.3-.3.4 1.9.5 5 .3 5.4-1.8 3.4-2.4 3.8-6.7 5.9-9.9-.7 3.3-1.1 6.7-3.3 9.3-.5 0-.5.4-.5.8-1.1 1.6-2.4 3.4-4.4 3.9-1.3-.4-2.7-.2-4.2-.3 1.2.5 2.5.3 3.7.4 0 .1.1.3.1.4-2.3 1-4.5-.2-6.5-1.5m9.7-2.6s0 .1-.1.1c.1.1.2.1.2-.1 0 .1 0 .1-.1 0"/><path class="st1" d="M115 203.1c11.6 2.4 23 5.3 34.4 8.2-11.1-2-23.4-5.1-34.4-8.2m40.3 11.7c7.4-.1 16.5-4.7 19.8-11.5.1-.1.3-.1.4-.2-1.2 3.9-4.6 6.4-7.8 8.6-.4.3-.9.5-1.3.8-3.1 1-6.1 2.8-9.5 2.8-.2-.4-.3-.3-.5 0-.4 0-.8.1-1.2 0 .1-.2.1-.4.1-.5"/><path class="st6" d="M124.5 208.3c-4.2-.8-8.5-1.7-12.5-3 4.2.9 8.4 1.9 12.5 3"/><path class="st7" d="M154.3 215.3c.1.1.1.2.2.3-2.2.2-4.1-.9-6.2-1.1v-.3c2.1.1 4 .9 6 1.1"/><path class="st1" d="M108.8 197.2c.9 1.1 1.8 2.1 2.7 3.2-1 0-2.5-2.1-2.7-3.2m2.7 3.2c.9.8 1.7 1.5 2.6 2.3-1.3-.2-2.5-1.4-2.6-2.3"/><path class="st6" d="M131.7 210.1c-1-.3-1.9-.5-2.9-.8.9.2 1.9.5 2.9.8"/><path class="st2" d="M291.3 176.9c-.9-.3-1.7-.6-2.6-.8.9.2 1.7.5 2.6.8"/><path class="st0" d="M295.9 155.2c-.1.4-.2.9-.3 1.4-.2-.3-.4-.5-.5-.6.3-.3.5-.6.7-.9 0 0 0 .1.1.1m-2-.2c-.1-.3-.2-.6-.6-.5l.9-.6.2.2c-.2.3-.4.6-.5.9m1 14.1c.1.4.2.7.3 1.1-.1 0-.2.1-.4.1-.1-.4-.2-.7-.3-1.1.2-.1.3-.1.4-.1"/><path class="st1" d="M285 157.7c-.3 0-.7-.1-1-.1v-.3c.3.1.7.1 1 .2z"/><path class="st0" d="M323.2 138.4c.2-.1.3-.2.5-.3.1.2.1.5.2.7-.3-.2-.5-.3-.7-.4"/><path class="st15" d="M328.3 101.8v-1.4z"/><path class="st2" d="M300 178.3c-.5-.1-.9-.3-1.4-.4.5.1 1 .2 1.4.4m-7.2-1.3c-.5-.1-.9-.1-1.4-.2.5.1.9.2 1.4.2"/><path class="st0" d="M301.9 177.9h-1v-.2h1z"/><path class="st6" d="M125.9 208.6c-.4.2-.8.1-1-.3.3.2.6.3 1 .3"/><path class="st2" d="M138 211.6c-.4-.1-.9-.2-1.3-.4.5.1.9.2 1.3.4"/><path class="st0" d="M154.8 213.2h-.9v-.2h.9z"/><path class="st6" d="M151.2 214.7c-.3-.1-.6-.2-.9-.2.4 0 .6.1.9.2m-22.8-5.5c-.4.2-.7.2-.9-.2.3.1.6.1.9.2"/><path class="st7" d="M155.3 215.2c.4 0 .7.1 1.1.2v.2c-.4-.1-.8-.2-1.2-.4 0 .1.1.1.1 0"/><path class="st1" d="M114.1 202.7c.3.2.6.3.9.5-.4-.1-.8.1-.9-.5"/><path class="st6" d="M152.7 215.1c-.3-.1-.6-.2-.8-.2.2 0 .5.1.8.2"/><path class="st2" d="M141.6 212.5c-.3-.1-.5-.2-.8-.3.3.1.5.2.8.3"/><path class="st0" d="M153.3 214.4h-.4v-.1h.4z"/><path class="st6" d="M127.1 208.9c-.2 0-.4-.1-.6-.1.2 0 .4.1.6.1"/><path class="st2" d="M294.2 177.2c-.2 0-.4-.1-.6-.1.2 0 .4.1.6.1"/><path class="st6" d="M133.1 210.4c-.1 0-.3-.1-.4-.1.1.1.3.1.4.1"/><path class="st2" d="M288.3 175.9c-.2 0-.3-.1-.5-.1.2.1.3.1.5.1m7.1 1.5c-.2 0-.3 0-.5-.1.2 0 .3 0 .5.1m3 .4c-.2 0-.3-.1-.5-.1.2 0 .3.1.5.1m-157.9 34.3c-.2 0-.3-.1-.5-.1.2 0 .4.1.5.1"/><path class="st6" d="M143 212.8c-.2 0-.3-.1-.5-.1.2 0 .3.1.5.1m-7.6-1.8c-.1 0-.2-.1-.3-.1.1 0 .2.1.3.1m.6.2c-.2-.1-.3-.1-.5-.2.2.1.4.1.5.2"/><path class="st2" d="M301.3 178.7c-.1-.1-.2-.1-.3-.2.1.1.2.1.3.2m-13.8-2.9c-.1 0-.2 0-.3-.1.1 0 .2.1.3.1"/><path class="st6" d="M134.1 210.7c-.1 0-.2-.1-.3-.1.1 0 .2.1.3.1m.6.2c-.1 0-.2-.1-.3-.1.1 0 .2 0 .3.1"/><path class="st2" d="M138.6 211.7c-.1 0-.2 0-.3-.1.1 0 .2 0 .3.1m.6.1c-.1 0-.2-.1-.3-.1.1 0 .2.1.3.1"/><path class="st6" d="M144.2 213.1c-.1 0-.2-.1-.3-.1.1 0 .2.1.3.1"/><path class="st2" d="M296.5 177.6c-.1-.1-.2-.1-.3-.2 0 .1.1.2.3.2m1.1.1h-.3q.15-.15.3 0m3.1.7c-.1 0-.2 0-.3-.1 0 .1.2.1.3.1"/><path class="st1" d="m108.7 197.1.2.2z"/><path class="st6" d="M143.3 212.8h-.1z"/><path class="st9" d="M196.3 136.9c-34.9-6.4-69.7-13.3-104.6-19.6-17.9-4-15.3.7-15.3-12.2.4.1.8.4 1.1-.2 39.6 6.2 78.9 15.4 118.4 21.2.2 3.6-.6 7.4.4 10.8"/><path class="st16" d="M98.9 97.8c38.5-8.9 76.9-18.8 115.5-27.1 10.6-1.4 21.1 1.8 31.5 2.8 22.6 3.1 45.2 6.2 67.8 9.2 1.3.2 2.4.5 3 1.8-.1.1-.2.2-.2.3-31.1 10.6-61.8 22.3-92.9 33.1.4-2.1 1.4-.3 2.4-1.6.4-.7 1.2.2 1.7-.2.6-1.4-2-2.2-3-1.6-.1 1-1.5.5-2.1.1 25.6-9.7 51.8-18 77.3-27.8 4.4-4.1-14.8-4.3-17.1-5.3-18.6-2.5-37.2-5.1-55.8-8-42 1.1-82.8 19.1-124.2 26.3 0-1.3 1-.9 1.8-1.5-.4-.3-.7-.5-.9-.7-.7.2-1.3.4-2 .7-.1-.4-.1-.6-.2-1.1-.3.4-.4.6-.5.6-.8-.1-1.3-.1-2.1 0"/><path class="st17" d="M98.9 97.8c.7-.1 1.2-.1 2 .1 0-.1.2-.3.5-.6.1.4.1.7.2 1.1.7-.2 1.3-.4 2-.7.2.2.5.4.9.7-.8.6-1.8.2-1.8 1.5-.3 0-.6.2-.9.2v-.7c-.6.1-.5.5-.5.8-.3.1-.5.1-.8.2 0-.2 0-.5.1-.8-.6.2-1.1.3-1.7.4.1.2.1.5.2.7-.4.1-.9.2-1.3.3-.9-.6-2-.6-2.1.7-.1.1-.3.1-.4.2-1.4-.7-.6 1-.3 1.7-.8 1.7.4.8.7 1.5 1.5.5 3.4.5 5.1.5v.4c.4 0 .8 0 1.2-.1v.2c-.2.1-.4.2-.6.2 1.7.3 3.2.6 4.9.5.3.6.3.6 1.1.6 2.3 0 4.4.9 6.7.6.4 1.2 2.8 1.1 3.9 1.5 3.3.6 6.7.9 9.9 1.8 1.6-.6 2.8.7 4.4.5.1.1.2.3.2.3 1.7-.4 1.9.6 3.2.3.8.3 1.7 1.3 2.5.8 2-1.2 4.6 2.1 6.3.6.1.1.2.3.3.4 1.5 0 2.8.9 4.5.5.7 1.7 2.7.3 4 .9.3.2.8-.1 1.1.4.4.3 1-.3 1.4.1 2.2.8 4.3 1.3 6.6 1 1.5.6 2.8 1.6 4.5 1 1 0 4.4 1.8 4.8.5h.3c0 1.8 6.2 1.9 7.6 1.4 1.7 1 7.4 3.1 8.9 1.6.2 0 .4.1.6.1 1 1.5 3.1.8 5.1.8.4.4.6.1 1 .2.9.9 1.8.3 2.7.2 2.7.2 5.9-.5 7.8-2.5.8 0 1.5-.1 2.4-.1q-.15-.45-.3-.6c.3-.1.5-.1.8-.3.4.1.8.3 1.2.4 1.6-1.1 1.2.2 1.9-.8.6-1 1.7-.2 2.1-1.2 0-.1.2-.1.4-.1.7-.1 1.3-.4 2-.5 1 .1 1 .1 1-.9.8-.4 1.6-.4 2.5-.2 0-.3-.1-.5-.1-.7.1 0 .2-.1.3-.1.7.8 1.7.1 2-.7.2 0 .3-.1.5-.1.5.4 2 .8 2.1-.1 1.1-.6 3.7.2 3 1.6-.5.5-1.3-.5-1.7.2-.9 1.3-2-.5-2.4 1.6-1.2.4-2.4 1-3.6 1.3-.8-.5-2.1 0-2.7.8-.4.4-1.1.1-1.7.1.3 1.4-1.9.4-2.2 1.5-1.9.3-3.8.6-5.6 1.1-.1.8-.5 1.1-1.3.9-.8.4-1.6.8-2.4.3-.2.4-.3.7-.4 1.1l-3 .6c-.9.1-2.7-1.4-2.6.3-.6.1-1.3-.4-1.9-.3-1.4.5-1.2.6-2.8.4-.7-1-2.5-.3-3.6-.5-.1-.1-.2-.3-.3-.4-.1.1-.1.2-.2.2h-.4c-36.8-6.8-74.5-14.1-111.6-20.4-.7-1.3.5-1 .5-1.9.1 0 .3 0 .4-.1 1.2-.4 2.4-.5 3.7-.5v-.5c.6-.1 1.2-.3 1.8-.4.1-.1.3-.1.4-.2 1.3-.4.8.9 3.4 0 2-.7 4.2-.7 6-1.9 1.3-.9 3.6.1 4.4-1.5.8.2 1 .1 1.2 0m113.8 23.4v.2h.4v-.2zM97.9 100.5c-.1.1-.1.2.1.2 0-.1 0-.2-.1-.2"/><path class="st6" d="M265.4 113.5c-3.8.5-7.4 2.2-10.9 3.7-.2-.1-.5-.2-.8-.4.3-.9-.8-.5-1.1-.8-.1-1.9-2.3-.9-3.7-1.1.1-.9-.4-1.2-1.1-1.3-.1-1-.3-1.8-.4-2.8.6-.2 1.3-.5 2-.8-.6-1.1-3.3 1.5-3.9.5 9-3.1 17.9-6.5 26.9-9.5.3.2.5.3.6-.2.5-.2.9-.4 1.4-.6.5.4 1 0 1.6-.1-.5 1.2-2.1 1-2.1 2.4-1.5.1-1.1 1-1.2 2.2-.1 1 .7.7 1.2 1.2 1 1.7 3.6-.8 3.1 2.5.6-2.4 2.6 0 3.1-1.6.3.1.7.1.9.4-2.7 1.3-6.3 1.6-8.5 3.5-.2.1-.5.1-.7.1-.4.1-.9-.1-.9.5-1.7.1-3.5.8-5.1 1.4-.1.5-.2.6-.4.8"/><path class="st4" d="M272.5 110.9c9.1-4.4 19.9-7.8 29.5-11.4-1.4-.4-1.4-.4-1.4-1.3.3-2.3-1.9-.4-2.1-1.9.1-.9-.8-.4-1-1.1.1-1 1.1.2 1-1.7-.4-2.2 4.9-1.6 2.8-3 5.1-2 10.2-3.7 15.1-5.7-.4.2-.8.5-1.2.7 0 .5 1 .9.5 1.3.8 2 .7 3.9.6 6 .1 1.8-2.2 1.4-2.8 2.7-13.6 5.4-27.3 10.4-41 15.4m31.6-12.2c.8-.3 1.6-.6 2.3-.9-1.6-.6-2.1-1.5-2.3.9m-1.9.4c0 .1.1.2.1.3.5-.2 1-.4 1.5-.5 0-.1-.1-.2-.1-.3-.5.1-1 .3-1.5.5m4.7-1.8c0 .1 0 .2.1.2.2-.1.4-.1.6-.2 0-.1 0-.1-.1-.2-.2.1-.4.2-.6.2M197.8 126c2.5-.2 4.8-.7 7.2-1.2.3 3-1.1 8.7.5 10.8v.3c-2.9 1.2-6.1 1.4-9.2 1.1-1-3.5-.2-7.2-.4-10.8.6-.1 1.2-.2 1.9-.2"/><path class="st6" d="M205.5 135.8v-.3c12.4-4.4 24.5-9.6 37-13.8 0 .1 0 .2.1.3-12.4 4.7-24.7 9.3-37.1 13.8"/><path class="st7" d="M242.5 122v-.3c7.3-2.6 14.6-6 22.1-8.2v.3c-7.4 2.9-14.7 5.7-22.1 8.2"/><path class="st16" d="M98.2 98c-.3.7-1.7 1.2-2.6 1-3.5.6-7.3 3.5-10.8 2.3 4.5-1.2 8.9-2.4 13.4-3.3"/><path class="st11" d="M313.5 95.6c.5-.9 1.7-1 2.5-1.6.9-2.1.5-4.8-.2-7.1.5-.5-.4-.8-.5-1.3.5-.4 1.1-.5 1.4-1 .5 2.8.1 5.9.2 8.8.1 1.6-2.3 1.5-3.4 2.2"/><path class="st16" d="M77.9 103.1c-.1.8-1.2.6-.5 1.9-.3.6-.7.3-1.1.2 0-.4 0-.8.1-1.2z"/><path class="st4" d="M266.5 112.7c1.3-.4 2.8-1.2 4.1-1-1.4.5-2.7 1-4.1 1.5z"/><path class="st16" d="M82.1 102v.5h-1.9c.6-.2 1.2-.3 1.9-.5"/><path class="st0" d="M78.9 102.1h-.3c.6-.5 1.6-.6 2-.3-.6.1-1.1.2-1.7.3"/><path class="st7" d="M266.5 112.7v.5c-.1 0-.2.1-.3.1-.1-.1-.3-.2-.4-.3.2-.1.5-.2.7-.3"/><path class="st4" d="M264.6 113.9v-.3c.3 0 .6-.1.8-.1-.3.1-.5.3-.8.4m1.2-.9c.1.1.3.2.4.3-.3.1-.5.1-.8.2.2-.2.3-.3.4-.5m5.1-1.4c.1-.6.6-.4.9-.5-.3.1-.6.3-.9.5"/><path class="st16" d="M83.9 101.6c-.3.1-.6.1-.9.2.3-.1.6-.2.9-.2m-4.5 1.1c-.3.1-.7.2-1 .3.3-.1.6-.2 1-.3m.7-.2c-.2.1-.5.1-.7.2.3-.1.5-.1.7-.2m2.6-.7c-.1 0-.2.1-.3.1.1 0 .2 0 .3-.1"/><path class="st0" d="M217.6 69.9h.3v.1c-.1 0-.2 0-.3.1z"/><path class="st4" d="M271.8 111.1c.2 0 .3-.1.5-.1-.1 0-.3 0-.5.1"/><path class="st16" d="M84.3 101.4c-.1.1-.3.1-.4.2.2-.1.3-.1.4-.2"/><path class="st9" d="M76.4 104c0 .1-.1.3-.1.4.1-.2.1-.3.1-.4"/><path class="st16" d="M84.8 101.3c-.1 0-.3.1-.4.1.1 0 .3 0 .4-.1m14-3.4c-.1 0-.3.1-.4.1.2-.1.3-.1.4-.1m-20.5 5.2H78z"/><path d="M145.7 147.1c.1 10.9.7 8.1-10.1 6.5-13.1-2.6-26.2-5.2-39.3-7.6-4.2-2.1-1.2-10.3-2-14.4.2-4.8 12.2.9 15.6.7 11.2 2.3 22.5 4.4 33.8 6.4 3.6.7 1.4 5.8 2 8.4" style="fill:#071a80"/><path class="st0" d="M175 154.5c1 3.3-11-1.2-13.2-1-1.6-.3-3.2-.6-4.7-.9-1.6-.2-1.6-2.7.1-2.5 3.1 1.1 17.3 2.1 17.8 4.4m-1.2.8c3.8-1.7-7.5-2.6-8.6-3-1.7.2-9.2-3.3-8.7-.5.7-.4 1.6-.1 2.1.4 3.8 1.4 8.3 1 12 2.4 1 .3 2.1.5 3.2.7"/><path class="st1" d="M159.3 146.1c.2-2.8 8.2.8 10.4.6 1.3.4 4.5.4 5.2 1.5.1 3.6-5.2.4-7.4.5-2.2-.9-7.6 0-8.2-2.6m.5.6c4.8 1 9.5 1.9 14.2 2.8 1.5-2.1-3.1-1.6-4.4-2.3-2.1.3-9.8-3.2-9.8-.5"/><path class="st7" d="M279.2 138.1c-2.3 1-4.7.6-7 1.2-.8.8-1.9.7-2.7.1-.9-.9.3-2.1-.3-3.1-1.3 2-4.2 2-6.2 3.1-2.9.8-10 5.8-11.9 2 1.8.7 1.5-1.3 1.4-2.4h.4c.5 5.3 4.4 2.2 7.4 1.2 6.4-2.3 9.5-2.7 8.5-10.5 0-1.3.6-4.4-1.7-3.7-14.6 5.9-29.3 11.4-43.9 17.2-.1-.1-.2-.1-.2-.2 3.1-1.4 6.2-2.8 9.3-4 .2-.5.6-.4 1-.5 2.6-.5 5.1-2.3 7.6-3 1.9-.4 3.8-1.9 5.5-2.1.5.1 1.6-.5 1.9-1 1.4.2 2.6-.6 3.8-1.4 2.1 0 4.3-1.6 6.3-2.3 1.2.2 1.8-.7 2.7-1.2.9-.3 2-.3 2.8-.9-.2-.1-.3-.3-.5-.4.9-1.7-.9-1.7-2.1-1.6-.1-1-1.1-2.6.1-3.1 1 .3 1.6-.4 2.3-.8-.2-.1-.3-.2-.4-.3 1.3-1.1 3.9-1.1 4.8-2.4 1.6-.2 3.8-.7 4.8-1.8h.3c1.2-.1 3.4-.7 4.2-1.7 6.8-2.7 13.7-5.2 20.5-7.7-2.9 2.2-7.5 3.1-11.1 4.5 1.5 1.7-.8 1.3-.4 3.6 1.8.1 1 1.5 1.3 2.4 1.7.1 1 1.5 1.2 2.4 1.7.1 1 1.5 1.2 2.4 1.2.3 1.2.3 1.2 1.6.1 1.2 1.1 2 1.3 3.3.5.1 1.1.3 1.1 1.1.1.3.9.5.9.7.2.7 1 1.1 1.3 1 1.3-.3 2.1.8 3.3.1 0 .1.1.2.1.3-6.5 2.7-13 5.4-19.6 8-.1-.9-.3-.5-.5-.1m-9.9-2.3h.2c.2-1.2 1-4.4 0-5.2-.4 1.8-.1 3.5-.2 5.2m-4.3-9.7c.1 0 .1.1.2.1.2-.1.5-.3.9-.5-.8-.2-.9-.2-1.1.4m-.2-1c-.1-.2-.2-.2-.3-.1.1.2.1.2.3.1m4.7 4.2c-.1-.1-.2-.2-.3 0 0 .1.1.1.1.2.2 0 .2-.1.2-.2"/><path class="st12" d="M264 119.8c-6.4 2.5-13.1 4.7-19.6 7.2.3.3.5.5.7.6-.1.1-.1.2-.2.2-.3-.2-.6-.4-1.1-.6-.8.3-1.7.6-2.5.9.7 1.7-.5 2.9 2 2.7.4 0 .7.1.8.6.3 1.1 3.3.7 4.3.9-1.4 1.8-2.4.3-3.3 1.5-2.4 1.4-5.3 1.7-7.8 3.2-1.3.5-2.6 1.4-3.9 1.5-1.2-.1-.7.6-1.7.8-1.1.6-2.7.2-3.4 1.4-.7 0-1.4 0-2 .2v-.3c1.3-1.1-.7-.8-.9-2.2-1.8 1.4-1.2.6-2.1-.3-1.2-.1-.7-1.2-.8-1.9.3-.1.7-.2 1-.3-.1-.3-.2-.5-.3-.8 4.7-2.3 10.1-3.2 14.5-5.9 8.7-3.4 17.5-6.5 26.3-9.7-.1 0 0 .2 0 .3"/><path class="st6" d="M273 116c-1 1-3.1 1.6-4.6 1.8 1.5-.9 3.1-1.2 4.6-1.8m4.5-1.7c-.4.8-3.6 1.8-4.2 1.7 1.3-.8 2.8-1.1 4.2-1.7m-13.5 5.5v-.3c1.4-.5 2.8-1.1 4.2-1.6-.8 1-2.9 1.3-4.2 1.9"/><path class="st19" d="m268.8 133.8-.3 1.8c-.3.2-.5.4-.9.6 0 0-.2 0-.3-.1 0 .1-.1.1-.1.2.2.2.3.5.5.7-3.6 1.8-7.6 3-11.3 4.6-4.3 1.7-3.5-4.4-3.7-7 0-1 0-.8-.7-.7-.4-.4-.6-.2-.6.3l-.3.3h-.2c0-.1-.1-.2-.1-.4-.2.3-.4.5-.7.6-.8-.3-3 .6-3.7 1.2-1 .4-2.4.5-3.2 1.4-.8 1.3 0 2.9-.1 4.3-.1 1.9-.6 3.7-.5 5.6l-.3.3c-1.6-.6-4.2 1.8-5.6 1.1v-.2c.3 0 .6 0 1.1-.1-.9-1.4-.5-3.2-.8-4.8.9-1.4 2.9-1.1 3.9-2v-2.6c-3.6 1.4-7.2 2.5-10.6 4.3-1.1-.4-.7 7.5-.2 8.2-5 4.2-12.5 5.7-18.7 8-.3-.1-.6-.3-.9-.5-.2-3.2-1.4-8.6 1.3-10.8 5.9-1.8 11.4-4.8 17.3-6.7.2-.1.8-.2.4-.8.2-.1.4-.2.6-.2 12.1-3.5 24.6-9.5 36.8-13.8 2.7.5.7 2.2 2 2.9v1.5c-1 .7-.7 2.1-.1 2.8m-41.3 10.6c-4.7 1.6-9.2 3.7-13.8 5.5-1.5.4-1 1.4-1 2.7 5-1.7 9.8-3.8 14.8-5.6v1.8c-3.9 1.4-7.7 2.9-11.5 4.5-1.9.9-6.2 4.3-1.1 3.1 2.9-2 13.1-4 13.2-7.1-.2-1.5.6-3.9-.6-4.9m28.4-6.1c-.1 2.7 5.4-1.2 6.9-1.4 1.1-.7 4.7-1.4 3.7-3.1-.3-.6-.7-.5-1.2-.2-2.6 2.5-7 2.3-9.4 4.7m-16.8 6.2c-.3 3.2 2.5 1.5 1.7-.7-.6.3-1.1.5-1.7.7"/><path class="st12" d="M211.2 159.5c6.1-2.4 14-3.8 18.8-8.2 4.8-.4 9.4-2.2 13.9-3.9.1 2.1 2.2 1.5 3.7 1.7 1-.3 1.1-.2 1.4.8.8-.3 1.5-.9 2.3-.5-1.8 1.1-3.9 1.7-5.7 2.4-2.8.7-5.4 2-8.2 2.8-.7.4-.6 1.5-1.5.3-.1.3-.1.5-.1.7-.5-.1-1.1.4-1.3-.5-.4-.2-1.3-.1-1.3-.8-.5-.9-2.3-.6-3.2-1-1.1-.4-2.3.7-3.4.9-4.8 2-9.6 3.7-14.4 5.8-.7.2-.9.2-1-.5"/><path class="st6" d="M210 153.8c0 1.8-.1 3.5.3 5.3-.2-.1-.5-.2-.8-.4.1.5.3 1 .4 1.5-2.9.5-1.9-2.7-1.9-4.5-.1-1.8 1.2-1.3 1.3-2.6.4-1.6-.7-4.3 1.2-5.1l.1.1c-1.2 1.4-.3 3.9-.6 5.7m13-10.9c.1.1.2.1.2.2-4.1 1.8-8.3 3.4-12.5 5l-.1-.1c.2-1.1 3.7-1.5 4.8-2.2 2.5-1 5-2.2 7.6-2.9"/><path class="st12" d="M222.1 135.5c-.1.1-.2.2-.3.1 0-.2.1-.3.3-.1"/><path class="st6" d="M210.4 159c.2.1.3.2.5.3-.2-.1-.4-.2-.5-.3"/><path class="st8" d="M310.6 119.2c-.1 0-.2.1-.3.1-.2-.1-.5-.2-.7-.3 0 0 0 .1-.1.1l.6.3c-2.5.4-6.4 4.2-8.4 2.4-.4-10.5-2.4-7.6 7.9-12.1 4.1-1.1 8.3-5.9 6.7 1.9-.4 0-.7.1-1.1.1v-2.1c-3.2 2-12.2 2.5-11.5 7.1 2.4-1.1 4.5-2 6.9-3-1.5 2.3-7.9 2-7.6 5.7.6-.8.7-2 2.1-1.5-.9.4-1.8 1.3-1.1 2.3 3.2-.5 6.2-2.8 9.4-3.8 3.3-.8.2-3 3.1-3.8.5 6.8-2.5 3.6-5.9 6.6"/><path class="st6" d="M300.4 114.6v.7c.1-.1.1-.2.2-.3.1 0 .2-.1.3-.1.9 14.9-3.8 8.7-.7-.9 0 .2.1.4.2.6"/><path class="st11" d="M300.8 121.6V115c1-.4.3 5.7.9 6.9z"/><path class="st6" d="M279.2 138.1c.2-.4.4-.7.8-.2-.3 0-.5.1-.8.2"/><path class="st1" d="M301.3 118.7c-.2-1 .6-3.5-.5-3.8.1-4.4 8.7-4.8 11.9-7 1.5-.5 4.5-2.8 4.4.2-.2 7.1 1.6 9.4-6.5 11 1.3-2.1 6.6-.8 5.8-4.4-.2-1 .2-2.1-.1-3.1-.1-1 1.1-4.8-.6-4.4-4.6 1.9-9.2 3.9-13.8 5.8-1.3 1.1.3 4.4-.6 5.7"/><path class="st4" d="M314.3 123.6c.6-.2 1.1-.4 1.7-.6 0 .1.1.2.1.2-.5.2-1.1.4-1.6.7-.1-.1-.2-.2-.2-.3"/><path class="st1" d="m310.2 119.4-.6-.3s0-.1.1-.1c.2.1.5.2.7.3-.1 0-.1.1-.2.1"/><path class="st4" d="M313.1 119.6c0 .1-.1.1-.2.1.1-.2.1-.2.2-.1m-12.6-4.5c-.1.1-.1.2-.2.3v-.3z"/><path class="st1" d="M234 150.6c-1 .5-2.1.3-2.7-.6.8-1.5 3.8-.4 3.5-2.5.1-1.1-.9-2.7.3-3.4 1.3-.5 1.2 1.1 1.3 1.9-.3.1-.6.1-1 .2 0 .6.1 1.3.2 2.1.6-.3.9-.5 1.5-.6.2.3.3.5.5.9-.4 0-.7.1-1.1.1v.2c1.5.6 4-1.7 5.6-1.1-2.7.9-5.4 1.9-8.1 2.8"/><path class="st3" d="M252.7 134.4v.3c-1.3 1.2 1.5 7.5-1.5 6.7.1-2.2-1.8-6.3.8-7.3.2 0 .7-.5.7.3"/><path class="st1" d="M242.4 147.3c-.1-1.9.4-3.7.5-5.6.1-1.4-.7-3 .1-4.3 1.9-1.2 4.7-2.5 6.9-2.6v.1c-1.1.7-6.9 2-6.7 3.1-.2 2.5.7 7.3-.8 9.3m8-12.7c.1-.1.2-.3.3-.4 0 .1.1.2.1.4-.1 0-.2.1-.3.1 0-.1-.1-.1-.1-.1"/><path class="st3" d="M250.4 134.6c.1 0 .1 0 .2.1l-.6.3v-.1c.1-.2.2-.3.4-.3m-1.1.6c.2-.1.3-.2.5-.2-.2 0-.4.1-.5.2"/><path class="st12" d="M316.5 169.1c0 .1-.1.1-.2.1 0-.1.1-.1.2-.1"/><path class="st8" d="M177.1 199c.5 21.1 1.8 24.4 24 27.3 0-.1.1-.2.1-.3-.8-.7-2.4-.4-2.6-1.6 0-.8-1.2-2.4.2-2.7.1.3.1.6.2.9.2 0 .4-.1.5-.1 0 .4 0 .8-.1 1.2.7-.3.7-.3 1.2.3 1.8.5 3.4 1.9 5.4 1.7-.2 1.6 2.2.8 3.3 1.1v-1c.1-.1.2-.1.3-.2.6.5 1.4-.6 2-.9.6-.1 1.4-.1 1.5-.9 10.2-7.1 14.2-23.2 5.8-33.2-3.3-3.7-7.9 1.3-11.6 2.2 0-.1 0-.1-.1-.2.6-.3 1.1-.6 1.7-.9-1.2-.6-2.3 0-3.4.1 7.9-3.9 16-7.4 24-11.2v1.2c.4 0 .8-.1 1-.1.1-.6-.2-1.2.3-1.6 1.5-.4 2.7-1.8 4.3-1.7-.8.7-1.8 1.1-2.8 1.4.4.6.4.6 1.9.7-4.8 2.9-4.4.9-4.6 5.7.6 3.1-.7 7.1 1.3 9.6.1.5 0 1.3.9 1.1h-.1.1c.1.2.3.3.4.5.1 0 .1.1.2.1-.1.5.2.6.6.5.1 0 .1.1.2.1h.1c.2 1.8 3.7 1.6 5.1 2.4 1.4.5 2.6-.2 3.9-.4v.2c-1.2.3-1.1.9 0 .8.3-1.2 1.1-.4 1.7-.3h-.1c.3-.2.5-.3.8-.5.1.1.1.2.2.3-1.1.4-2.6 2-3.7 1.1-.5-.5-1.9.2-1 .9-1.1.5-2.6 0-3.2 1.2h-.3c-.6-.3-3.2-.2-3.9.2-2.4-.3-4.8-.7-7.3-.8-.7 1.1.2 2.5-.2 3.8-.7-.1-.7 1-.2 1.2-.5 4.8-2.9 9-5.5 12.9-4 4.4-9.1 8.3-15.4 6.8-8.9-2.8-21.1-1.5-26-11-2.1-5.7-1.3-12-1.1-17.9m50.8-14.8c-1.3 1-8.8 2.7-7.3 4.3 6.9 7.2.9 13.2 11.4 12.2v-.2c-6-3.6-3.8-10.4-4.1-16.3m-18.6 43.2v-.3c-1.3.1-2.5.2-3.8.3v-.1c1.3.1 2.6.1 3.8.1m22.6-46.1c.1 0 .2.1.3.1.1-.2.1-.4.2-.6-.1 0-.2-.1-.3-.1-.1.2-.1.4-.2.6"/><path class="st7" d="M178.3 216.9c4.9 9.5 17.1 8.1 26 11 6.3 1.6 11.4-2.4 15.4-6.8-.3 1.4-1.9 2-2.5 3.2-7.2 6.9-12.4 3.7-20.7 2.6-.1-.8-.8-.3-1.2-.2-3.5-1.7-7.9-1.5-11.5-3.3-2.3-1.4-5.1-3.7-5.5-6.5m41.8 3.6c1.8-3.1 3.6-6.1 4.6-9.6.3 3.2-2.8 7.2-4.3 10.1-.2-.2-.2-.4-.3-.5"/><path class="st1" d="M232.8 204c.7-.4 3.3-.5 3.9-.2-1.3.1-2.6.1-3.9.2m-7.7 4.1c-.5-.2-.5-1.3.2-1.2 0 .4-.1.8-.2 1.2m.4-3.1c-.2-.6-.4-1.2.1-1.8-.1.6-.1 1.2-.1 1.8"/><path class="st7" d="M219.6 221.1c.1-.1.1-.2.2-.3 0 .1.1.1.1.2-.1 0-.2.1-.3.1m-2.5 3.2c.1 0 .1 0 .2.1-.1 0-.1 0-.2-.1M177 200.4c0 4.1-.3 8.2.1 12.2-1.3-1.7-.2-4.4-.6-6.5-.3-.4-.8-.8-1.1-1.2-.2.1-.4.3-.5.4-.3 1.2-1.4 2.5-2.5 2.7 2.3-2 2.9-5.2 4.6-7.6m-19.7 14.8c3.3-.3 6.1-1.7 9.2-2.8-1.3 1.3-7.7 3.8-9.2 2.8"/><path class="st12" d="M184.3 223.7c3 1.4 6.6 1.3 9.5 2.6-.3.1-.7.2-.8.2-2.7-1.4-6.4-.7-8.7-2.8m12.6 3.2c2.2 0 4.7.8 6.8 1.7-.8.6-.8-.1-1.6-.3-1.7-.7-3.6-.7-5.2-1.4m7.2 1.6c1.4 0 2.7.2 4.1.3-.3.3-.6.7-.9 1.1-.2-.3-.4-.5-.6-.8-1 1.2-1.7 0-2.6-.6"/><path class="st7" d="M167.8 211.7c1.4-.9 2.6-2 4-3 .5.7-3.7 3.2-4 3m9.3 1.3 1.2 3.9c-.8-.7-1.5-2.8-1.2-3.9"/><path class="st12" d="M195.2 226.7c.4-.2 1.1-.6 1.2.2-.4 0-1.2.7-1.2-.2"/><path class="st7" d="M166.4 212.4c.4-.3.9-.5 1.3-.8-.1.7-.6.9-1.3.8"/><path class="st12" d="M183 223.1c.3.1.5.2.8.3-.3.1-.6.2-1 .3 0-.2.1-.4.2-.6m-.6-.6.6.6q-.75.15-.6-.6"/><path class="st7" d="M147 213.9c.2 0 .5 0 .7.1v.2c-.2 0-.5 0-.7-.1z"/><path class="st12" d="m183.7 223.4.6.3zm10.5 2.9c.2.1.3.1.5.2-.2-.1-.4-.2-.5-.2"/><path class="st8" d="M156.5 215.2c.1-.4.3-.4.5 0zm-85.8-59.6c-.3.5-.5.5-.8 0zm.8.1c-.1 0-.2-.1-.3-.1.1 0 .2.1.3.1"/><path class="st9" d="M196.5 193.7c-38.6-5.6-76.5-16.9-114.9-24.2-6.1-1.9-17.7-.8-14.8-10.5 2.6-2.3 14.1 1.8 18.1 2.4 37.3 6.4 74 18.1 111.5 22.7-.1 3.1-.2 6.4.1 9.6"/><path class="st14" d="M278.7 161.2c1.8-1 3.4-1.6 5.4-2.5-.7 7 1.9 14.9-2.2 21-12.3 8.5-27.2 13.3-40.5 20.3-2.8 1.4-5.5-.9-8.2-1.7h-.1c-.1 0-.1-.1-.2-.1-.2-.2-.4-.3-.6-.5-.1 0-.1-.1-.2-.1-.1-.2-.3-.3-.4-.5h-.1s.1 0 0 0c-.3-.4-.6-.7-.9-1.1-.8-4.1-.5-8.6-.5-12.6h.1c4.1-2.4 8.7-4.2 13-6.2l.1.1v.1c-2.2 1-4.3 2.1-6.6 3.1 1.4 1 2.6 1.6 4.2 2.1 2.2 1.4-.9 9.3 4.1 9.3 10.2-4.8 20.4-9.4 30.6-14.1 5.7-2.7 2.1-11.3 3.2-16.4 0-.1-.1-.2-.2-.2"/><path class="st2" d="M220.4 184.3c-5.7 2.9-11.8 5.2-17.5 8.1 0-3.1.1-6.3.1-9.4 4.7-1.9 9.2-4.1 13.9-6 .4-.3.9-.4 1.4-.6.7-.3 1.3-.6 2-.9 1.1-.5 2.3-1 3.4-1.5.1-.1.2-.1.3-.2.2-.2.5-.1.7-.3.1 0 .2-.1.3-.1.2-.2.5-.2.7-.3.1 0 .3-.1.4-.2.5-.3 1.2-.4 1.7-.7h.4c6.5-3.1 13.2-5.7 19.8-8.7 8.7-3.7 17.2-7.5 25.9-11.1-5.2 3.4-11.7 4.9-17.2 7.9.5.1.7.2 1.1.2-.6 1.1 1.9.9-1.6 2.2-.7 3.1 3.4.1 4.7 2.3.9-.9 1.7-1.2 2.9-1.1-13.8 7.5-29.6 12.9-43.4 20.4"/><path class="st10" d="M261.1 157.9c-.2.1-.4.1-.6.3-1.9.5-3.8 1.5-5.6 2.4-2.3.8-4.5 1.7-6.6 2.8-7.3 3.2-14.7 6.4-21.9 9.5-.1 0-.3.2-.4.2-.2.1-.5.1-.7.3-.1 0-.2.1-.4.1-.2.2-.5.1-.7.3-.1.1-.2.1-.3.2-1.9.8-3.7 1.6-5.5 2.4-.5.2-1 .3-1.4.6-.1 0-.2.2-.4.1-22 13.5-42.9 1.9-66-1.8-26.1-5.8-52.2-11.5-78.4-16.8-1.9-.3-4.1-1.2-5.4.3 1.2-4.2 6.3-2.3 9.4-1.8h.1c25.1 5.2 50.2 10.6 75.3 16 18.9 2.4 39 13.9 57.5 5.1.2-.1.4-.2.7-.3.4.2.8.3 1.2.4v-.2c-.1-.2-.3-.4-.4-.6.2-.1.4-.2.7-.3s.6-.3.9-.4c.1.1.2.1.3.2-.2.2-.8.7-.9.8h-.4v.1c.9-.1 1.8-.6 2.6-.9 0-.1-.1-.2-.1-.2-.4.1-.8.2-1.3.3 0-.1.1-.3.1-.4.3-.1.6-.3.9-.4 0 0 .1 0 .1.1v-.1c.1-.1.2-.1.3-.2.1 0 .2-.1.3-.1.3-.2.6-.1 1 0-.3.2-.5.4-.7.5 0 .1.1.1.1.2.5-.3.9-.5 1.4-.8.3.1.7-.2.6-.4h.3v-.1c-.4 0-.7.4-.9.6-.3 0-.7.1-.4-.5.4-.2.9-.3 1.3-.6.7-.4 1.5-.6 2.2-1-.3.7-1 .9-1.6 1.2 0 .1.1.1.1.2.4-.3 4.1-1.3 2.7-1.8v-.2h.1c.5-.3 1-.5 1.6-.7.1.2.2.4.4.7 9.7-4.2 19.3-8.3 29-12.4.1.2.1.3.2.4.3-.2.5-.3.8-.4 0-.1-.1-.2-.1-.3 6.1-2.1 11.9-6.6 18.3-6.9 0-.1 0-.2.1-.2-.2-.1-.4-.2-.5-.3 0-.1.1-.2.1-.2l5.1-2.1c0 .2.1.4.1.7.4-.2.7-.3 1.2-.5-.5 0-.9-.1-1.3-.1 1.1-.6 3.4-2.3 4.5-.9h-.1c-1.9 1-3.9 1.6-5.7 2.5v.1c-4.3 1.5-8.6 3.5-12.9 5.3m-23.5 9.7c-.1-.1-.2-.1-.2.1.1.1.2 0 .2-.1m10.7-4.8c-.1-.1-.2-.1-.2.1.2 0 .2 0 .2-.1m-.6.2c-.1.1-.1.2.1.2.1-.1.1-.1-.1-.2m11.6-4.9c.1-.1.1-.2-.1-.2 0 .1 0 .2.1.2m-.4.2c-.1-.1-.2-.1-.2.1.1 0 .2 0 .2-.1m-44.6 18.4h-.1c0-.1 0 0 .1 0m-5.6 2.2s-.1 0 0 0q0 .15 0 0"/><path class="st3" d="M278.9 150.2c5.4-2.4 10.8-4.6 16.2-6.9.6-.3 1.2-.5 1.9-.8h.2c-1.5 1.5-3.9 1.8-5.8 2.9 0 .1.1.1.1.2.2-.1.5-.1.7-.2.1.1.2.3.3.4-1.7.3-.3 2.4 1.1 2.1 1.5.1.4 1.1.6 2.3 1-.5 1.9-.8 2.7-1.2 0 .1.1.1.1.2-2.7 1.5-5.7 2.9-8.7 3.6-1.9 1.7-4.2 2-6.3 3.2-.3.2-.5.5-.8.4-.8-.1-1.1.8-1.8.9-.1 0-.1.3-.1.5-19.7 8.8-39.4 17.9-59.1 26.6 13.8-7.6 29.6-12.9 43.6-20.4-1.2-.1-2 .2-2.9 1.1-1.3-2.2-5.5.7-4.7-2.3 3.5-1.4 1-1.2 1.6-2.2-.4-.1-.6-.1-1.1-.2 5.5-3 12-4.6 17.2-7.9v-.1c1.8-.9 3.5-1.5 5-2.2m12.2-4.4c0-.1-.1-.1-.1-.2-.3.1-.7.2-1 .3 0 .1.1.1.1.2.3 0 .7-.2 1-.3"/><path class="st20" d="M114 179.9c0-.1 0-.3.1-.4l4.2.9c.4 2.9-1.6 14 1.5 14.4 11 2.7 22 5.4 33.1 8 3.7 1.3 1.5-11.8 1.8-14.2 1.1.3 2.3.3 3.2 1-.2 21.4.4 15.5-18.1 12.4-7-2.7-14.9-3.7-22.3-5.6-5.4-1.3-2-8.5-3.5-12.2.7-.8-.2-1.9.1-2.9-.1-.5.6-1.1-.1-1.4"/><path class="st6" d="M200.8 196.2h.3c1.6.5 3.4-1 5-1.4-1.3 1.8-7.2 2.1-2.7 4.5.1-.2.1-.4.2-.7.2 0 .6-.1.9-.1-10 12.9 1.1 28.3 10.2 18.2 3.6-3.9 6-9.2 5.9-14.6 0-.4 0-.7.5-.6.6 7.4-1.9 14.8-7.6 19.7-.1 0-.1-.1-.2-.1 0 .1 0 .1-.1.2l-.2.2c-.4.1-.8.2-.7.7-1.3 1.4-2.9.1-4.7 1.8.9.3 1.4-.7 2.3-.3-15.1 5-14.6-17.4-9.8-26.1.2-.7.4-.7 1-.3.1-.4-.1-.7-.3-1.1"/><path class="st21" d="M118.2 192.5c0-4.1-.3-8.1 0-12.2.3.1.7.3 1 .2.6 3.4-.4 7.2.5 10.5 11.2 2.6 22.2 5.5 33.4 8.2v-10.4c.1-.1.2-.3.3-.4.4.1.8.1 1.2.2.3 4.3.3 8.8 0 13.1-12.1-3.4-24.3-6.1-36.4-9.2"/><path class="st6" d="M279.5 157.7c0-.2.1-.5.1-.5.7-.1.9-1 1.8-.9.2 0 .5-.3.8-.4 2.1-1.2 4.4-1.4 6.3-3.2 3-.6 6-2.1 8.7-3.6 0-.1-.1-.1-.1-.2-.9.4-1.7.7-2.7 1.2-.2-1.2 1-2.2-.6-2.3-1.4.3-2.8-1.9-1.1-2.1-.1-.1-.2-.3-.3-.4-.2.1-.5.1-.7.2 0-.1-.1-.1-.1-.2 2-1.1 4.3-1.6 6-3 .6.4.8.1.9-.4.2-.1.4-.2.6-.4 3.5-1.2 6.9-3 10.4-4.3-1.4 1.2-3.3 1.7-5 2.6 1.9 1.3-1.2 2.4.6 3.1 1.1.4.4 1.1.2 2.1 1.2-.4 1.8-.7 3-.7-3.5 1.4-7 3.8-10.7 4.5v.4c.1.1.2.3.2.4z"/><path class="st8" d="M196 208.1c-3.3 1.8.4-10.3.8-11.8-7.2 0-13.8-2.8-20.7-3.2-.8 0-.8-.7-1.3-1.2-.7-1.4.8-1 1.6-.9.7.6 1.5.7 2.4.6.4.6 1.8.7 2.6.5.2.2.3.5.5 0 6 1.4 12.2 2.8 18.3 1.7 2.2.5 4.9-3.3 5.5-.4.4-.1.7-.4 1.2-.2l-2.4 1.2c-.7-1.1-.7-1.1-1.2-.5.2.1.5.2.7.3 0 .1 0 .2.1.3-1.3.9-4 .4-4.1 2.1-1 1.2-2 3.6-2 5.2 0 .1 0 .2-.1.3-1.3 1.1-.6 4.1-1.8 5.2-.1.3-.1.6-.1.8"/><path class="st21" d="M274.8 162.8c.2-.1.5-.2.7-.3.2 3.6 0 7.2 0 10.9-9.5 4.6-19.2 9-28.7 13.6-.7-3.7-.3-7.6-.5-11.3.4-.3.9-.4 1.3-.6.4 3.1-.1 6.2.1 9.5 8.5-4.3 17.3-8 25.9-12.2 1.7-1-.1-7.9 1.2-9.6"/><path class="st4" d="M196.3 184c2.2-.3 4.5-.7 6.7-1 0 3.1-.1 6.3-.1 9.4-2.1.9-4.3 1.1-6.5 1.2-.2-3.1-.1-6.4-.1-9.6"/><path class="st22" d="M213.2 221.3c.1 0 0-.1 0 0 .1-.1.2-.1.3-.1 8.4-7.2 10.7-20.9 3-29.3.7.1 1.4.2 2.2.3 0-.2.1-.4.1-.6 4.3 4.6 4.8 11.4 3.6 17.4v.1c-1.9 6.9-6.3 14.8-14.1 15.9v-.5c1-.5 2.1-.8 2.9-1.5.2 0 .3-.2.4-.3q.9-.45 1.5-1.2c0-.1.1-.1.1-.2"/><path class="st4" d="M216.5 191.8c1.8 3.1 4.7 5.8 4.7 9.7-1.4.5 0 5.5-1.8 7.1 1-3.7 1-7.9-1-11.2-2.7-5.5-10.8-2.2-13.9 1.1-.3 0-.6.1-.9.1-.1.3-.1.5-.2.7-4.5-2.4 1.4-2.8 2.7-4.5-1.6.3-3.4 1.9-5 1.4 3.7-1 6.8-3.1 10.3-4.5 1.2.3 3.9-1.2 5.1.1m-12 5.7c-.1-.1-.2-.1-.2.1.2.1.2.1.2-.1"/><path class="st22" d="M304.9 175.7c0-.1-.1-.3-.1-.4 2.2-.5 3.6-2.3 4.8-4.1 4.6-6.6 6-16.3 0-22.4-1.5-1.3-3.1.9-4.6 1.1v-.5c1.9-.5 4-2.9 5.8-2 7.4 7.6 4.5 24.6-5.9 28.3"/><path class="st20" d="M246.4 175.7c.1 3.8-.2 7.6.5 11.3-.4.4-1.1.5-.9 1.4.8.2 2.1 0 2.8-.1.6.9 1.3-.8 1.8.1-10.6 8.3-5-5.9-7.1-11.2 1-.6 1.9-1.1 2.9-1.5"/><path class="st8" d="M283 180.6c.2.4.8.8-.1 1.2-.3-.2-1-.4-.8.3.5 1-5.3 3.3-6.2 3.9-3.3 1.7-6.9 3-10.1 5-.1-1.8-1.5-.3-2-1 5.6-3.6 12.7-4.9 17.6-9.4.7 1.7 1-.3 1.6 0"/><path class="st11" d="M304.9 149.4c0 .2.1.5 0 .7v-.1c1.4-.5 3.2-2.5 4.6-1.2 3.2 3.3 6 10.3 2.6 14.2.9-4.4.2-12.3-5.9-11.5.2-.1.5-.3.7-.4 0-.1-.1-.1-.1-.2-.6.2-1.3.4-1.9.5-.1-.6-.4-.6-.8-.4v-.5c-.3-.2-.5-.3-.7-.4.5-.2 1-.5 1.5-.7"/><path class="st20" d="M274.8 162.8c-.1.3-.3.6-.4.9-.6 0-1.3-.1-1.8.5.1.1.3.2.3.2-1.1.2-4.9.9-4.7 2.3-1.8-.4-3.9 1.3-5.1 2.4-.8-.6-1.8-.2-2.3 1.1-.2-.2-.4-.4-.6-.5-3 1.7-6.2 2.8-9.2 4.2.2.1.5.2.7.2 0 .1 0 .1-.1.2-5.1-1-3.2 6.6-2.9 9.6-.3.2-.5.3-1 .6-.2-3.3.3-6.3-.1-9.5 8.9-4.5 18.2-8.2 27.2-12.2"/><path class="st7" d="M208.2 224.5v.5c-15 1.4-12.9-19.5-8.3-28.5.3-.1.6-.1.9-.2.2.3.4.7.3 1.1-6 5.4-7 29.4 7.1 27.1"/><path class="st20" d="M275.6 173.4c0-3.6.1-7.2-.1-10.9.9-.4 1.8-.9 2.8-1-2.6 1.7.2 12.2-1.8 12.8-.2.2-.3.4-.5.6 0-.6.5-1.2-.4-1.5m-155.9 17.7c-.9-3.3.1-7.1-.5-10.5 11.3 2.4 23 4.7 34.1 7.8-.1.1-.2.3-.3.4-10.8-3.4-22.3-5.3-33.4-7.7.1 3.4.1 6.7.1 10"/><path class="st11" d="M324.3 130.8c2.5 6.3-3.8 8.6-8.5 10.5v-.3c2.5-1.5 6-2.1 7.6-4.6-.2.1-.4.1-.5.2-.3-2.2-1.2-5.2 1.4-5.8m-.3 3.2q0-.15 0 0c.1-.6.1-1.2.1-1.8h-.1zm-.2 1s.1 0 .1.1c0-.2.1-.4.1-.5h-.2zm0-3.3s.1 0 0 0q.15 0 0 0"/><path class="st4" d="M297.7 149.5c-.1-.1-.2-.3-.2-.4 5.6-2.3 11-5.2 16.6-7.4.1.1.1.2.2.3-5.5 2.6-11 5-16.6 7.5"/><path class="st11" d="M216.5 191.8c-1.1-1.3-3.9.2-5.1-.1 2.2-.7 5.3-3.5 7-.6 0 .1-.1.3-.1.4h.4c0 .2-.1.5-.1.6-.7 0-1.4-.2-2.1-.3"/><path class="st8" d="M283.9 180.6c-1.1-2.6.7-1.7.1-3.6l.6.3c.1-.2.1-.4.2-.7h-.7c.2-.6.5-1.1.7-1.7.2.2.9.5.9.9-.3.6.2 1.6-.8 1.9.2.7-.8 1-.6 1.7.1.3-.2.7-.4 1.2m1.1-5c-.1-.1-.2-.1-.2.1.2.1.2.1.2-.1m-23.3 17.1c-.4.8-2.6 1.4-3.5 1.9-.3 0-1 .1-.8-.5.4-.2 1-.2 1.4-.4 1.7-.3 1.3-2.1 2.9-1"/><path class="st20" d="M230.4 184.1c0 3.3.1 6.7.1 10-.4-3.3-.1-6.8-.1-10"/><path class="st4" d="M303.4 150.1c.2.1.4.2.7.4v.5c-.6.4-1.2.7-1.9 1 .1-.4.2-.6.2-1-.3.1-.6.2-.9.2-.2-.1-.3-.1-.5-.2q1.2-.3 2.4-.9m-195 28.2c-.8 5.3.1 10.7-.4 16.1 0-5.4 0-10.7-.1-16.1z"/><path class="st8" d="M262 192.2c.4-.2.8-.4 1.2-.7-.1-.4-1-1-.3-1.2q.15.45.3.6c.5.1 1 .2 1.4.2v.3c-.9.1-1.4 1.2-2.5 1 0-.1-.1-.1-.1-.2m-18.1 7.1c.8-.3 1.5-.6 2.2-.9 0 .1.1.1.1.2-1.5 1.5-1.5 1.5-2.3.7m14.5-6.8c1.1-.5 2.1-1 3.2-1.5-.4.7-2.6 1.8-3.2 1.5m21.2-34.2c.8-.4 1.5-.7 2.3-1.1.1.1.1.2.2.4-.8.4-1.5.8-2.3 1.2 0-.3-.1-.4-.2-.5"/><path class="st0" d="M178.8 191.7c-.9.1-1.7 0-2.4-.6q1.2-.3 2.4.6"/><path class="st8" d="M248.3 199.2c-.6.3-1.1.5-1.8.8.1-.4.1-.8.2-.8.5 0 1-.7 1.6 0"/><path class="st0" d="M181.2 192.1c-.8.3-2.1 0-2.4-.5.8.2 1.6.4 2.4.5"/><path class="st8" d="M249 197.6c-.4-.9.9-.9 1.5-1.3 0 .1.1.2.1.2-.5.4-1 .7-1.6 1.1m5.3-1.7c.6-.3 1.1-.5 1.7-.8.1.7-1 1.2-1.7.8"/><path class="st7" d="M315.8 140.9v.3c-.3.1-.6.2-.9.2 0 .1-.4 0-.5 0 .4-.8.8-.9 1.4-.5"/><path class="st0" d="M159 188.4c-.2-.3-.4-.4-.5-.5.6-.7 1.3-.2.5.5"/><path class="st8" d="M284.6 166.5v-1.6h.1v1.6zm-29.9 28.1c-.4.2-.9.4-1.3.6 0-.1-.1-.2-.1-.3.4-.2.9-.4 1.3-.6 0 .2.1.2.1.3m3.1-1c-.4 0-.9.1-1.3.1v-.2c.4 0 .9-.1 1.3-.1zm-6.5 3.7c-.1.3-.2.5-.3.8-.1 0-.2-.1-.3-.1.1-.3.2-.5.3-.8.1 0 .2 0 .3.1m-2.5.9-.9-.6c.7-.2.8-.2.9.6m4.9-1.5c-.4.1-.7.3-1.1.4 0-.1-.1-.1-.1-.2.4-.2.8-.3 1.1-.5.1.1.1.2.1.3"/><path class="st11" d="M314.4 141.4h.5c-.2.2-.4.4-.7.6-.1-.1-.1-.2-.2-.3v-.1c.2-.1.3-.2.4-.2"/><path class="st4" d="M193.6 193.7h2z"/><path class="st8" d="M281.9 179.7c.5.4.5.4.1.9 0-.4-.1-.7-.1-.9m-32.2 18.7c-.2.1-.4.1-.6.2 0-.1-.1-.1-.1-.2l.6-.3c0 .1.1.2.1.3m5.2-4.2c.2-.1.4-.3.6-.4 0 .1.1.1.1.2-.2.2-.4.3-.5.5-.1-.1-.1-.2-.2-.3m-11.3 5.7c-.2 0-.3.1-.5.1 0-.1 0-.1-.1-.2.2-.1.3-.1.5-.2 0 .1 0 .2.1.3"/><path class="st14" d="M278.3 161.5c-.3.1-.5.1-.8.2.3-.1.7-.3 1-.4z"/><path class="st8" d="M252.1 195.4h.6v.2c-.2 0-.4 0-.6.1z"/><path class="st22" d="M218.7 191.5h-.4c0-.1.1-.3.1-.4.1.1.2.3.3.4"/><path class="st8" d="M207 192.4c-.2.1-.4.2-.4-.1.1-.2.3-.1.4.1"/><path class="st4" d="M107.9 194.8h.2c-.1.1-.1.3-.2.4.1-.2.1-.3 0-.4"/><path class="st20" d="M278.3 161.5c.1-.1.3-.3.4-.3.1.1.2.1.3.2-.2 0-.4 0-.7.1"/><path class="st8" d="M265.3 191.1c-.2.1-.2.1-.3-.1.1-.1.2-.1.3.1m-11.6 4.8c-.1.2-.2.2-.3.1 0-.2.1-.3.3-.1m-6.5 2.1c-.2.2-.2.1-.4 0 .2-.1.2-.1.4 0"/><path class="st0" d="M181.8 192.1c-.2.5-.3.2-.5 0z"/><path class="st9" d="M67.1 158.1c-.1.2-.2.4-.3.5.1-.2.2-.4.3-.5"/><path class="st20" d="m231 182.9-.2.2c.1-.1.1-.2.2-.2"/><path class="st0" d="M159.8 187.4c.1 0 .2.1.1.2-.1-.1-.1-.2-.1-.2"/><path class="st20" d="M230.4 183.4v.2z"/><path class="st11" d="M314.9 141.4h.4z"/><path class="st20" d="M246.6 175.5c-.1 0-.1.1-.2.1.1 0 .1 0 .2-.1m-16.1 7.8s-.1 0 0 0"/><path class="st8" d="M298.3 174c-.1 0 0 0 0 0 0-.1 0 0 0 0"/><path class="st7" d="M305.8 175.4c.1 0 .1-.1.2-.1-.1 0-.1.1-.2.1"/><path class="st23" d="M113.8 184.6c1.5 3.6-1.9 10.5 3.5 11.8 7.4 1.9 15.3 2.9 22.3 5.6-7-2.4-20.2-2.8-25.3-7.4-.9-3.2-.3-6.7-.5-10m26.6 17.5c18.5 3.6 17 7.6 17.4-12.5.5 19.7.6 17.5-17.4 12.5m-26.5-19.5c.2.5.4 1-.1 1.5.1-.5.1-1 .1-1.5m.1-2.7c.7.3.1.9 0 1.4z"/><path class="st13" d="M184.2 194.5c4.2.9 8.2 1.7 12.5 1.8-2.6 8.9-4.7 17.1-.6 25.8.3.6-.4.6-.8.6-4.5-1.6-11.3-.9-13.5-6.1-3.2-6.9-1.9-14.7-1.9-22.1 0-1.2 3.6-.3 4.3 0m-19.5 14.4c3.5-4.9-.2-11.4.6-17 .6-3 5.9-.3 8 .1 2.9.4.6 4.1.7 6-.7 5.2-4.2 9.4-9.1 11-.1 0-.2 0-.2-.1"/><path class="st1" d="M197.8 202.1c-7.5 26.4 17.3 32.1 24.5 6.9-.3 5.7-4.6 11.7-9.3 14.9-.6.1-1.1.2-1.2.9-1.1-.2-1.8.4-2.6 1.1-4-.8-3.2 1-8-1.7v-.3c-5.6-3.5-5.4-10.7-5.3-16.6 1.2-1.1.6-4.1 1.9-5.2"/><path class="st8" d="M176.4 201.1c-.3.7-.5 1.4-.8 2.1-.1.1-.3.1-.4.2.2-1.7.9-3.1 1.3-4.8h.2c.1.1.1.3.2.4-.2.7-.4 1.4-.5 2.1"/><path class="st2" d="M176.4 201.1c.1-.7.3-1.4.4-2.1h.3c0 .5-.1 1-.1 1.5q-.3.15-.6.6"/><path class="st1" d="M161.4 188.9h-.2v-.1c.1.1.1.1.2.1"/><path class="st22" d="M324.3 130.8c-8.5 3.5-16.8 7.5-25.3 10.8-.3-2.3-16.5 6.3-19.3 7.2.3.3.6.5.9.7-.2.1-.4.2-.7.3-2.4-1.6-6.8 2.5-9.6 3 0 .1-.1.2-.1.2.2.1.4.2.5.3 0 .1 0 .2-.1.2-6.4.3-12.3 4.8-18.3 6.9 0 .1.1.2.1.3-.2.1-.5.3-.8.4 0-.1-.1-.2-.2-.4-9.7 4.1-19.3 8.3-29 12.4-.2-.3-.3-.5-.4-.7 33-14.5 66.2-28.6 99.4-42.8 1.4-.4 2.3 0 2.9 1.2m-103.7 42.6c1.3.5-2.4 1.5-2.7 1.8 0-.1-.1-.1-.1-.2.9-.2 1.3-1 2.1-1.4.3.4.4.4.7-.2m-4.8 1.9c-.3.6.1.5.4.5-.5.3-.9.5-1.4.8 0-.1-.1-.1-.1-.2.2-.1.4-.3.7-.5-.3 0-.5-.1-.7-.1.4-.2.7-.3 1.1-.5m-5.2 2.3c.1.2.3.4.4.6v.2c-.4-.1-.8-.2-1.2-.4.3-.2.5-.3.8-.4"/><path class="st10" d="M220.6 173.4c-.3.6-.4.6-.8.1.2-.1.3-.1.5-.2.1.1.2.1.3.1"/><path class="st22" d="M212.7 176.6c0 .1-.1.3-.1.4-.1-.1-.2-.1-.3-.2.1 0 .3-.1.4-.2"/><path class="st5" d="M73.2 156.5c-.1 0-.2 0-.3-.1.1.1.2.1.3.1"/><path class="st22" d="M217.6 174.5c-.1.1-.3.1-.4.2.1 0 .3-.1.4-.2m-1.1.5c-.1.1-.3.1-.4.2.2-.1.3-.1.4-.2m5.5-2.4c-.1 0-.2.1-.4.1.1 0 .2 0 .4-.1m-10.3 4.5c-.1 0-.2.1-.3.1 0 0 .2 0 .3-.1m-.4.1c-.1.1-.2.1-.4.2.2 0 .3-.1.4-.2m-2.5 1.2c-.1 0-.3.1-.4.1.2 0 .3-.1.4-.1m5.3-2.4c-.1.1-.2.1-.3.2.1 0 .2-.1.3-.2"/><path class="st5" d="M74.1 156.7h-.3q.15-.15.3 0"/><path class="st22" d="M214.7 175.8c-.1 0-.2.1-.3.1.1 0 .2-.1.3-.1m-.3.1c-.1 0-.2.1-.3.1.1 0 .2 0 .3-.1m-.6.3v.1s-.1 0-.1-.1zm-4.4 1.9c-.1 0-.2.1-.3.1.1 0 .2-.1.3-.1m-.3.1c-.1.1-.2.1-.3.2.2-.1.2-.2.3-.2m1.8-.8c-.1 0-.2.1-.3.1.2 0 .2 0 .3-.1"/><path class="st5" d="M76.3 157.1c-.1 0 0-.1 0 0"/><path class="st22" d="M220.9 173.1c-.1 0-.2.1-.2.1s.1-.1.2-.1m-.3.3c-.1 0-.2 0-.3-.1.1 0 .2-.1.3-.1zm-2.1.8c-.1 0-.2.1-.2.1 0-.1.1-.1.2-.1m-1.4.6c-.1 0-.2.1-.3.1.2-.1.2-.1.3-.1m-1 .4c-.1 0-.2.1-.3.1.1 0 .2-.1.3-.1"/><path class="st6" d="M301.6 151.3c.3-.1.5-.1.9-.2-.1.3-.1.6-.2 1 .4-.2.7-.3.9-.4-4.7 5.2-7.7 15-1.7 20.2-1 .8 1.1 1.1-1.3 2 .2.3.3.5.6.8-7.8-1.9-6.9-22 .8-23.4"/><path class="st22" d="M301.5 171.9c-6-5.2-3-15 1.7-20.2.5-.2 1.7-1.4 1.8-.2.7-.2 1.3-.4 1.9-.5 0 .1.1.1.1.2-7.9 2-11.2 23.6.5 19.9-.5 1.9-4.5 1.7-6 .8"/><path class="st1" d="M307.5 171c-11.4 3.6-8.5-16.9-1.2-19.5 9.5 0 6.8 15.5 1.2 19.5m-7-6.4h-.2c2.2 13.3 12.4 3.3 11.5-5.3.2-8.9-7.4-9.7-10.1-1.7-1 2.2-1.3 4.6-1.2 7"/><path class="st6" d="M302.3 172.3c1.6.5 3.1.2 4.5-.4-1.1 1.4-3.2 1.2-4.8.8.2-.1.3-.3.3-.4m2.9 2.8c-1.1.2-3.1.1-4.2-.3 1.5.1 2.9-.1 4.2.3m4.9-4.7c-.2.3-.3.5-.5.8 0-.4-.1-.8.5-.8m.6-1.1-.3.6z"/><path class="st6" d="M309.6 171.1c-.1.2-.2.3-.3.5.1-.1.2-.3.3-.5m-1.6.2s.1 0 .1.1-.1.1-.2.1c.1-.1.1-.1.1-.2"/><path class="st16" d="M184.6 124.5c1.4.1 3.3-.1 4.4.9-1.1-.4-3.5-.3-4.4-.9m5.9 1c1 .1 2.3-.5 3 .4-.9-.1-2.1.2-3-.4m7.3.5c-.9.1-1.7.2-2.6.1.9-.6 1.7-.5 2.6-.1m-15.1-1.8c.6.1 1.2-.3 1.7.3-.6-.1-1.2-.2-1.7-.3m6.8 1.2c.1-.1.1-.2.2-.2.1.1.2.3.3.4-.2-.1-.4-.2-.5-.2m-8.3-1.6c.2 0 .3.1.5.1-.2 0-.4 0-.5-.1"/><path class="st3" d="M243.4 121.1c-12.1 4.8-24.5 9.3-36.7 13.9-.6.2-1.9 1.1-1.9-.1 0-3.4-.1-6.8.1-10.2 24.2-8.8 48.5-17.4 72.7-26.1.1.1.1.2.2.3-14.8 5.6-29.6 10.5-44.5 16 .6.1.6.3 1 .6-.8.3-1.6.3-2.4.4.2 1.1-.6 2.7.9 2.9.1 0 .2.1.2.2.1 1 .8.8 1.4.9 1.4 0 1.1 1.7 2.5 1 .9-.4 1.3-.1 1.4.8 0 1.2 4-.6 5.1-.6m-12.9-4.9c-.1-.2-.2-.2-.3-.1.1.2.1.2.3.1m2.6-1s0 .1-.1.1c.1.1.2.1.2-.1z"/><path class="st1" d="M172.3 118.8c-23.7-4.5-47.5-8.9-71.3-13.1-1.9-.6-7.4-.5-5.6-3.7 1.2-.5 2.5-.9 3.8-1.2C141.8 93.2 183.8 75 227 73.6c23.4 3.7 47 6.6 70.5 10.2 1.5.1 4.8 1.5 2.4 3.1-30.4 11.5-61.4 21.6-91.8 33-.7.3-1.3.5-2 .8-11 4.9-22.7-.6-33.8-1.9m28.2 2.8c0 .1.1.3.1.5 14.3-6 30-10.2 43.9-16.3 1.2-.3 2.9-.1 3.5-1.3 5.2-.8 11.2-3.7 16.5-5.7 2.3-.4 4.5-1.4 6.8-2.1.7-.2 1.1-1.2 2.1-.7 2.5-1.1 6.6-2 8.7-3.6 3.4-.3 6.8-2 10-3.3 2.1-.5 10.9-3 6.9-4.4-19.8-3.2-39.8-6-59.8-8.5-10.3-1.9-21.2-4.1-31.6-1-28.9 7-57.8 14.2-86.8 21-2.8 1.4-29.3 5.1-24.5 8 24.5 4.6 49.1 9.4 73.8 13.6 8.6 1.7 17.2 3.6 25.9 4.5 3 .4 2.2-.2 4.5-.7"/><path class="st7" d="M274.4 100.3c13.4-5.4 26.9-10.4 40.6-15-4.3 2.2-9.1 3.2-13.6 5.2 2 1.4-3.2.8-2.8 3 .1 1.9-.9.6-1 1.7.2.6 1.1.1 1 1.1.2 1.5 2.4-.4 2.1 1.9 0 1 0 1 1.4 1.3-7.2 2.2-13.9 5.4-21 7.8-.2-.4-.6-.3-.9-.4-.4 1.5-2.5-.8-3.1 1.6.6-3.3-2.1-.8-3.1-2.5-.5-.5-1.3-.2-1.2-1.2 0-1.1-.3-2.1 1.2-2.2-.1-1.4 1.6-1.2 2.1-2.4-.7.1-1.2.5-1.7.1"/><path class="st12" d="M283.6 96.6c-1.8 1.1-3.8 1.7-5.7 2.4-.1-.1-.1-.2-.2-.3 2-.8 3.9-1.4 5.9-2.1"/><path class="st16" d="M114.4 108.1c19.2 3.5 38.4 6.9 57.6 10.6-.4 1.3-3.8-.4-4.8-.5-1.7.6-3-.4-4.5-1-.7 0-1.5.3-2.2.2-.4-.6-1-.1-1.5-.2-1.2-.2-2.4-1.1-3.6-1-.2.1-.6.1-.7 0-.3-.6-.8-.3-1.1-.4-1.3-.7-3.2.8-4-.9-1.7.5-3-.5-4.5-.5-.1-.1-.2-.3-.3-.4-1.7 1.4-4.3-1.9-6.3-.6-.9.5-1.8-.5-2.5-.8-1.2.3-1.4-.8-3.2-.3 0-.1-.2-.3-.2-.3-1.6.3-2.8-1.1-4.4-.5-3.3-.9-6.6-1.2-9.9-1.8-1.1-.5-3.5-.4-3.9-1.6m-13.4-2.4c4.4.8 8.9 1.4 13.2 2.4-2.2.3-4.3-.6-6.5-.5-.8-.1-.8 0-1.1-.6-1.7.1-3.2-.2-4.9-.5.2-.1.4-.2.6-.2v-.2c-.4 0-.8 0-1.2.1-.1-.2-.1-.3-.1-.5m85.3 15.6c.8.1 1.6.3 2.4.5-1.6 1.4-7.2-.6-8.9-1.6 2.2.3 4.4.7 6.5 1.1m8.2 1.5c4 .2 7.8-.6 11.5-2.1-1.9 1.9-5.1 2.7-7.8 2.5-.9.1-1.8.7-2.7-.2-.4-.1-.6.2-1-.2m-22.2-4c2.5.5 4.9.9 7.4 1.4-1.2.6-7.7.2-7.4-1.4m40.8 3c-3 1.2-6.1 2.4-9.3 3.2.1-.3.3-.7.4-1.1.9.5 1.6.1 2.4-.3.8.3 1.1-.1 1.3-.9 1.6-.3 3.4-.8 5.2-.9m-4.2-2.2c2.9-1 5.7-2.1 8.6-3.1 0 1 0 1-1 .9-.7 0-1.3.3-2 .5-.1 0-.4.1-.4.1-.4 1-1.4.2-2.1 1.2s-.3-.3-1.9.8c-.4-.1-.8-.3-1.2-.4m11.1-.4c-2.2.8-4.3 1.8-6.5 2.4.2-1.2 2.5-.2 2.2-1.5.6 0 1.2.3 1.7-.1.5-.8 1.9-1.2 2.6-.8M95.1 103.6c1.2 1.6 4 1.5 5.9 2-1.7-.1-3.6 0-5.1-.5-.4-.7-1.6.2-.8-1.5m94.2 18.3c1.6.3 3.2.5 4.9.8-.8.4-1.8-.1-2.5.1-1 .4-1.8-.3-2.4-.9m11.2 3.7c-.8.1-1.5.2-2.3.3-.1-1.4 1.5-.6 2.3-.3m-99.8-25.2c-.5.1-1 .3-1.4.4-.1-.2-.1-.5-.2-.7.6-.1 1.1-.3 1.7-.4-.1.3-.1.5-.1.7m119.4 15.1c.7-.2 1.3-.5 2-.7-.3.8-1.3 1.6-2 .7M97.9 101.1l-.9.3c-.1-.1-.1-.2-.2-.4l-.3.6c-.3.1-.5.1-.8.2.2-1.3 1.3-1.2 2.2-.7M206 120.7c.7-.3 1.3-.5 2-.8.1.2.2.3.3.6-.8.1-1.5.1-2.3.2M95.4 102c-.2.4-.3.8-.5 1.2-.4-.7-.6-1.8.5-1.2m123.1 14.1c.4-.2.9-.3 1.3-.5 0 .2.1.4.1.7-.5-.1-.9-.1-1.4-.2m4.9 1.9c-.6.2-1.2.5-1.7.7.5-.2 1.1-.5 1.7-.7m-21.2 7.3c-.5.1-.9.2-1.4.3.5-.1.9-.2 1.4-.3m-100.3-25.2c-.1 0-.3.1-.4.1 0-.4-.1-.8.5-.8-.1.3-.1.5-.1.7m110.8 21.1c.1 0 .3 0 .4-.1v.2h-.4zm-9.2 3.8c-.1 0-.3.1-.4.1.1 0 .3 0 .4-.1M97.9 100.5c.1 0 .1.1.1.2-.2-.1-.2-.1-.1-.2m104.9 24.7c-.1 0-.2.1-.3.1.1 0 .2-.1.3-.1m15.2-8.9c.2-.1.3-.1.5-.2-.2.1-.4.1-.5.2m-10 3.6c.2 0 .3-.1.5-.1-.1 0-.3 0-.5.1m.6-.2c.1 0 .2-.1.3-.1-.2 0-.3.1-.3.1m12.5-.8c-.1 0-.1.1-.2.1.1-.1.1-.1.2-.1m.3-.2c-.1 0-.1.1-.2.1.1 0 .1 0 .2-.1M95 103.3c0 .1.1.2.1.3 0-.1-.1-.2-.1-.3m4.2-2.5c-.1 0-.1 0-.2.1.1-.1.1-.1.2-.1m3.4-.9c-.1 0-.2.1-.3.1.1 0 .2 0 .3-.1"/><path class="st12" d="M243.4 121.1c-1.1 0-5.1 1.8-5.1.7-.1-1-.5-1.2-1.4-.8-1.4.7-1.1-1-2.5-1-.6-.1-1.3.1-1.4-.9 0-.1-.1-.2-.2-.2-1.4-.2-.7-1.8-.9-2.9.8-.1 1.6-.1 2.4-.4-.4-.3-.4-.5-1-.6 4.2-1.5 8.2-3 12.2-4.4.6 1 3.4-1.6 3.9-.5-.7.3-1.4.5-2 .8.1 1 .3 1.9.4 2.8.7 0 1.2.4 1.1 1.3 1.3.3 3.5-.8 3.7 1.1.4.3 1.4-.2 1.1.8.3.1.5.3.8.4-3.6 1.2-7.3 3-11.1 3.8"/><path class="st7" d="M272.4 101c.2-.1.4-.1.6-.2-.1.5-.3.5-.6.2m-4.1 11.1h-.1zm35.8-13.4c.2-2.4.7-1.5 2.3-.9-.7.3-1.5.6-2.3.9m-1.9.4c.5-.2 1-.4 1.5-.5 0 .1.1.2.1.3-.5.2-1 .4-1.5.5 0-.1-.1-.2-.1-.3m4.7-1.8c.2-.1.4-.1.6-.2 0 .1 0 .1.1.2-.2.1-.4.1-.6.2 0 0-.1-.1-.1-.2"/><path class="st19" d="M173.8 155.3c-1.1-.2-2.1-.4-3.2-.6-3.6-1.4-8.1-1-12-2.4-.5-.6-1.4-.9-2.1-.4-.5-2.8 7 .6 8.7.5 1.1.2 12.5 1.3 8.6 2.9m-14-8.6c0-2.7 7.7.7 9.8.6 1.3.7 5.9.1 4.4 2.3-4.7-1-9.4-1.9-14.2-2.9"/><path class="st6" d="M248.4 132.3c-1-.2-4 .2-4.3-.9-.1-.5-.3-.6-.8-.6-2.5.2-1.3-.9-2-2.7.8-.3 1.7-.6 2.5-.9.4.2.7.4 1.1.6.1-.1.1-.2.2-.2-.2-.2-.4-.3-.7-.6 6.4-2.2 12.5-5 19-6.8.1.1.3.2.4.3-.7.5-1.3 1.1-2.3.8-1.2.5-.2 2.1-.1 3.1 1.2-.1 3 0 2.1 1.6.2.1.3.3.5.4-.8.7-1.8.6-2.8.9-.9.5-1.5 1.4-2.7 1.2-1.8 1-4.1 1.3-6 2.3-1.6-.2-2.7 1.5-4.1 1.5m-5-3.9c.1 0 .1-.1.2-.1l-.2-.2c-.1 0-.1.2 0 .3"/><path class="st1" d="M268.8 129.6c-1.3-.7.7-2.4-2-2.9-12.2 4.4-24.8 10.3-36.8 13.8 12.3-5 24.8-9.5 37.2-14.6 2.2-.7 1.5 2.4 1.6 3.7m-.8-3.2c-.2-.2-.2-.1-.3.1.1.1.2.1.3-.1m-57.3 21.7c6.2-2.4 12.4-5 18.7-7.4.4.5-.2.7-.4.8-5.9 1.9-11.4 4.9-17.3 6.7-2 .8-1.2 3.8-1.6 5.6.2-1.8-.7-4.3.6-5.7"/><path class="st6" d="M269.3 135.8c.1-1.7-.2-3.5.1-5.1 1.1.7.2 4 0 5.2.1 0 0-.1-.1-.1m-16.8 3.2c.1-.9-.5-3.9.2-4.2.1 1.4.1 2.8.2 4.2-.2-.1-.3 0-.4 0"/><path class="st12" d="M248.8 132.3c1.1-.5 2.1-1.5 3.3-1.4-.9.7-2 1.5-3.3 1.4"/><path class="st1" d="M268.8 133.8c-.6-.7-.9-2.2 0-2.7z"/><path class="st12" d="M252.5 131c1-.4 2-1.1 3.2-1.1-1 .2-2.4 1.3-3.2 1.1"/><path class="st1" d="M267.7 137c-.2-.2-.3-.5-.5-.7 0-.1.1-.1.1-.2.1 0 .3.1.3.1l.9-.6c-.3.5-.6 1-.8 1.4"/><path class="st3" d="M228.3 140.6c.3-.9 1.1-.7 1.7-.9-.6.3-1.1.6-1.7.9"/><path class="st6" d="M265 126.1c.3-.6.3-.6 1.1-.4-.4.3-.7.4-.9.5-.1 0-.2 0-.2-.1m-.2-1c-.2.1-.2.1-.3-.1.1-.1.2-.1.3.1m4.7 4.2c0 .1-.1.1-.1.2-.1-.1-.1-.1-.1-.2s.1-.1.2 0m-17 11c0-.1.1-.2.1-.3 0 .1-.1.2-.1.3"/><path class="st4" d="M235 144c-1.7 1 1.2 4.4-1.2 4.8-.9.3-1.9.3-2.5 1.2.6.8 1.3 1 2.3.8-1.1.8-2.3 0-3.6.6.2-2.7 0-5.3.1-8 3.3-1.8 7-2.9 10.6-4.3v2.6c-1.1 1-3 .7-3.9 2h-2v.2s.1.1.2.1m-18.9 9.3c3.8-1.6 7.7-3.1 11.5-4.5V147c-5.1 1.8-9.8 3.8-14.8 5.6v-.6c3.1-1.3 15.6-3.9 14.8-7.5 1.2.9.4 3.4.7 4.8 0 1.4-.4 1.7-1.7 2.2-1.9.6-19.2 9.2-11.9 2.7.5.2 1.1-.2 1.4-.9"/><path class="st7" d="M227.5 144.4c.9 3.6-11.7 6.2-14.8 7.5-1.1-2.9 12.2-5.9 14.8-7.5"/><path class="st4" d="M255.9 138.3c2.4-2.5 6.8-2.3 9.4-4.7.4-.3.9-.4 1.2.2.9 1.7-2.6 2.4-3.7 3.1-1.5.2-7 4.2-6.9 1.4"/><path class="st1" d="M230.1 143.3c0 2.7.1 5.3-.1 8l-.1.1c-.5-.5-.9-8.4.2-8.1"/><path class="st11" d="M235 144c-.1 0-.2-.1-.3-.1v-.2h2l.3 3.9c-.2.1-.5.1-.7.2-.2-1.1.5-4.5-1.3-3.8"/><path class="st4" d="M239.1 144.5c.6-.2 1.1-.4 1.7-.7.4 1.4.1 1.9-.9 2.4-1.1.5-.6-1-.8-1.7"/><path class="st3" d="M216.1 153.3c-.2.7-.9 1-1.5.9z"/><path class="st1" d="M210 157.2v-2.9zm41.9-23.2-.6.3c.1-.4.2-.7.6-.3"/><path class="st6" d="M252.7 134.4v-.2c-.1.1-.1.2 0 .2M234 150.6c.1 0 .2-.1.3-.1-.1 0-.2 0-.3.1m.5-.2c.1 0 .2-.1.3-.1-.1 0-.2.1-.3.1"/><path class="st11" d="M310.6 113.7c-2.3 1-4.5 1.9-6.9 3-.7-4.5 8.3-5.1 11.5-7.1v2.1c-1.4.8-3 1.4-4.6 2m4.6 0c.1 1.9.1 2-1.7 2.7-3.2 1-6.2 3.3-9.4 3.8-.7-1 .2-1.9 1.1-2.3 3.3-1.2 6.6-2.9 10-4.2"/><path class="st0" d="M315.2 113.7c-2.3.7-4.4 2.2-6.7 2.8-.9.9-2.3.7-3.3 1.4-1.4-.4-1.5.8-2.1 1.5-.3-3.7 6-3.4 7.6-5.7 1.9-.7 3.7-1.9 5.7-2.1 0 .4.1.7.1 1.1-.4.3-1.3.2-1.3 1"/><path class="st13" d="M236.3 145.9v1.8l-.8.4c-.1-.7-.1-1.4-.2-2.1.4 0 .7 0 1-.1m-8.4 38.3c.3 5.8-1.8 12.7 4.1 16.3v.2c-10.4 1-4.4-5-11.4-12.2-1.5-1.6 5.9-3.2 7.3-4.3"/><path class="st0" d="M205.9 225.7c1.1 0 2.2-.3 3.3.1v1c-1-.3-3.5.5-3.3-1.1m-4.6-1.8v.3c-1 0-.9-1.1-1.9-.5 0-.4 0-.8.1-1.2.6.5 1.1.9 1.8 1.4m8.3 1.8c.5-.7 1.2-.9 2-.9-.6.3-1.4 1.4-2 .9m-.3 1.7h-3.8v.1c1.3-.1 2.5-.2 3.8-.3zm2.5-2.6c.1-.7.6-.8 1.2-.9 0 .7-.7.6-1.2.9"/><path class="st1" d="M231 196c.3.4.6.7.9 1.1-1 .1-.9-.6-.9-1.1"/><path class="st0" d="m198.7 221.7.8.8c-.2 0-.3.1-.5.1-.2-.3-.2-.6-.3-.9"/><path class="st1" d="M231.9 181.3c.1-.2.1-.4.2-.6.1 0 .2.1.3.1-.1.2-.1.4-.2.6-.1 0-.2-.1-.3-.1"/><path class="st0" d="M204.1 225.5c.3.1.6.1.9.2-.3-.1-.6-.1-.9-.2"/><path class="st1" d="M232.5 197.7c.2.2.4.3.6.5-.4 0-.7 0-.6-.5m-.7-.6c.1.2.3.3.4.5-.1-.2-.2-.4-.4-.5m.4.4c.1 0 .1.1.2.1 0 0-.1 0-.2-.1"/><path class="st1" d="M233 198.1c.1 0 .1.1.2.1-.1 0-.1 0-.2-.1m11 2.8s.1 0 0 0c.1 0 0 0 0 0"/><path class="st23" d="M278.3 161.5c.2-.1.5-.1.7-.2-1 5.1 2.6 13.7-3.2 16.4-5.2 1.4-31.1 16.6-32.8 13.1.2 0 .3-.1.4-.1v-13.5c1.9 5.5-3.3 19.3 7 11.1-.6-.8-1.2.8-1.8-.1-.7.1-2 .3-2.8.1 10.3-3.7 21.1-8.5 30.5-14.1 2.2-.5-.6-11 2-12.7"/><path class="st20" d="M243.5 177.3v13.4c-.1 0-.3.1-.4.1-2.2-1.9 0-6.8-2-8.3-1.6-.5-2.7-1-4.2-2.1 2.3-1 4.5-2.1 6.6-3.1"/><path class="st22" d="M249.3 163c.5-.4 1.1-.8 1.8-.8-.6.3-1.2.5-1.8.8m11.8-5.1 1.2-.6q-.6.45-1.2.6m-1.7.7c.2-.1.5-.2.7-.3-.2.1-.4.2-.7.3m-2.1 1c.3-.1.5-.3.8-.4-.3.1-.5.2-.8.4m-5.9 2.5c.3-.2.7-.3 1-.5-.3.2-.6.3-1 .5m-3.9 1.7c.3-.1.5-.2.8-.4-.3.2-.6.3-.8.4m-1.1.5c.2-.1.5-.2.7-.4-.2.2-.4.3-.7.4m19.4-8.3c.2-.1.5-.3.7-.4-.3.1-.5.2-.7.4m3.3-1.5.6-.3zM243 165.8l.6-.3c-.3.1-.4.2-.6.3m29.9-13 .6-.3zm-14.4 6.2.6-.3zm-14.6 6.4.6-.3zm-12.1 5.2c.2-.1.4-.2.6-.2-.2.1-.4.1-.6.2m10.5-4.5c.1-.1.3-.2.4-.3-.1.1-.2.2-.4.3m3.5-1.5c.1-.1.3-.2.4-.3-.1.1-.2.2-.4.3m2.5-1.2c.1-.1.3-.1.4-.2-.2.1-.3.2-.4.2m-25 10.9c.2-.1.4-.2.5-.3-.1.1-.3.2-.5.3m11.8-5.1c.1-.1.3-.2.4-.2-.1.1-.3.2-.4.2m-12.8 5.5c.2-.1.3-.2.5-.2-.2.1-.4.1-.5.2m17.8-7.7c.1-.1.2-.1.3-.2-.1.1-.2.2-.3.2m-1.8.8c.1-.1.3-.1.4-.2-.1.1-.3.1-.4.2m-.8.3c.1-.1.3-.1.4-.2-.1.1-.2.2-.4.2m-.7.4c.1-.1.3-.1.4-.2-.1 0-.3.1-.4.2m-4 1.7c.1 0 .2-.1.3-.1-.1 0-.2 0-.3.1m-2.2.9c.1-.1.3-.1.4-.2-.1.1-.3.2-.4.2m14.5-6.2c.1-.1.2-.1.3-.2-.1.1-.2.1-.3.2m-3.4 1.4c.1 0 .3-.1.4-.1-.1 0-.2 0-.4.1m29-12.6c.1 0 .2-.1.3-.1-.1 0-.2.1-.3.1m-.6.3c.1 0 .2-.1.3-.1-.1 0-.2.1-.3.1m-4.9 2.1c.1 0 .2-.1.3-.1-.1 0-.2.1-.3.1m-1.4.7c.1-.1.2-.1.3-.2-.1.1-.2.1-.3.2m-.6.2c.1 0 .2-.1.3-.1-.1.1-.2.1-.3.1m9.1-3.9c.1 0 .2-.1.3-.1-.1 0-.2.1-.3.1m-15.6 6.7c.1-.1.2-.1.3-.2-.1.1-.2.1-.3.2m-.5.3c.1-.1.3-.2.4-.3-.1.1-.2.2-.4.3m-2.4.9c.1 0 .2-.1.3-.1-.1 0-.2.1-.3.1m-13.1 5.8c.1-.1.2-.1.3-.2-.1.1-.2.1-.3.2m-1.1.4c.1-.1.3-.1.4-.2-.1.1-.2.1-.4.2m13.2-5.7c.1-.1.3-.1.4-.2-.1.1-.3.1-.4.2m14.3-6.1.3-.3zm-27.8 11.9c.1 0 .2-.1.3-.1-.1 0-.2.1-.3.1m-5 2.3c.1 0 .1-.1.2-.1-.1 0-.1 0-.2.1m-16 6.8c.1-.1.2-.1.3-.2 0 .1-.2.2-.3.2m11.2-4.7.1-.1zm-1 .5.1-.1c-.1 0-.1 0-.1.1m-1.4.4c.1 0 .2-.1.3-.1-.1 0-.2.1-.3.1m-6.7 2.9c.1-.1.2-.1.3-.2 0 .1-.1.2-.3.2m5.6-2.4c.1-.1.2-.1.3-.2-.1.1-.2.2-.3.2m-10.1 4.4c.1 0 .2-.1.4-.1-.1 0-.3 0-.4.1m39.3-17 .1-.1s-.1 0-.1.1m-32.3 13.9c.1 0 .2-.1.3-.1-.1.1-.2.1-.3.1m45.3-19.5.1-.1s-.1 0-.1.1m-19.2 8.2c.1 0 .2-.1.3-.1-.1 0-.2.1-.3.1m-31 13.5c.1 0 .2-.1.3-.1-.1 0-.2 0-.3.1m49.6-21.5c.1 0 .2-.1.3-.1-.1 0-.2 0-.3.1m-5.3 2.3c.1-.1.2-.1.3-.2-.1.1-.2.1-.3.2m-42.1 18.2c.1 0 .1-.1.2-.1-.1.1-.2.1-.2.1m-.8.4c.1 0 .1-.1.2-.1-.1 0-.1 0-.2.1m5.9-2.6c.1 0 .2-.1.2-.1-.1 0-.1.1-.2.1m-6.5 2.8c.1 0 .1-.1.2-.1-.1.1-.1.1-.2.1m-1.8.8c.1 0 .1-.1.2-.1-.1 0-.2.1-.2.1m-.3.2c.1 0 .2-.1.2-.1-.1 0-.2 0-.2.1m-.3.1c.1 0 .1-.1.2-.1-.1 0-.2.1-.2.1m48.3-20.9.1-.1c0 .1 0 .1-.1.1M236 168.8l.1-.1s0 .1-.1.1m26.6-11.6c.1 0 .2-.1.2-.1-.1 0-.1.1-.2.1"/><path class="st3" d="M273.7 152.5c.1 0 .1-.1.2-.1 0 0-.1.1-.2.1"/><path class="st22" d="M231.3 170.8h.1zm29.2-12.5.1-.1s-.1 0-.1.1m-4.7 1.9.1-.1zm-.9.5.1-.1s-.1 0-.1.1m-26.7 11.5h.1zm-.3.1c.1 0 .1-.1.2-.1-.1 0-.2.1-.2.1m-1.6.7c.1 0 .2-.1.2-.1s-.1 0-.2.1m-.6.2c.1 0 .1-.1.2-.1 0 .1-.1.1-.2.1m26.9-11.6.1-.1zM225 173.5c.1 0 .2-.1.2-.1-.1.1-.1.1-.2.1m-.3.2c.1 0 .1-.1.2-.1-.1 0-.2.1-.2.1m-.5.2c.1 0 .2-.1.2-.1s-.1 0-.2.1m-.3.1c.1 0 .1-.1.2-.1 0 0-.1.1-.2.1m-2.4 1.1c.1 0 .1-.1.2-.1 0 0-.1 0-.2.1m-.3.1c.1 0 .1-.1.2-.1-.1 0-.1.1-.2.1m19.8-8.6h.1zm-29.3 11.2c.6-.6 1.3-.9 2.2-1 0 .1.1.2.1.2-.8.3-1.6.5-2.3.8m63.7-27.2c.4 0 .7.1 1.3.1-.4.2-.7.3-1.2.5 0-.2 0-.4-.1-.6m-59.2 25.2c.2-.2.4-.3.6-.5.1.5-.3.5-.6.5m61.7-25.2c-.2.1-.3.2-.5.2.2 0 .3-.1.5-.2m-40.3 17c0 .1-.1.1-.2.1.1-.1.1-.2.2-.1m10.7-4.8c0 .1-.1.1-.2.1.1-.2.1-.2.2-.1m-.6.2c.1 0 .2.1.1.2-.1 0-.1-.1-.1-.2m11.6-4.9c-.1 0-.1-.1-.1-.2.2 0 .2.1.1.2m-.4.2c0 .1-.1.1-.2.1.1-.2.1-.2.2-.1m-47.3 19.6h-.4v-.1h.4c.1 0 .1.1 0 .1m5.3-2.6h.3v.1h-.3c-.1-.1-.1-.1 0-.1m-2.6 1.4h-.1c0-.1.1-.1.1 0m-5.6 2.2q0 .15 0 0c-.1 0 0 0 0 0m70.2-28.7c-.1 0-.2.1-.3.1.1-.1.2-.1.3-.1m-3 1.3h-.1zm2.6-1.2c-.1 0-.1.1-.2.1.1 0 .1 0 .2-.1m-2.9 1.2c-.1 0-.1.1-.2.1.1 0 .2 0 .2-.1m-.6.3c-.1 0-.1.1-.2.1.1 0 .2 0 .2-.1m4.9-2.1c-.1 0-.1.1-.2.1 0 0 .1 0 .2-.1m-5.6 2.4-.1.1z"/><path class="st10" d="M280.6 149.4c-.3-.2-.6-.4-.9-.7 6.1-2.7 12.3-5.4 18.5-7.8 0 .2.1.2.2.2l-.2-.2c.6-.3.6.3.8.7-.5.4-1.2.7-1.8.9h-.2c-.6.3-1.3.5-1.9.8-4.8 2-9.6 4-14.5 6.1m3.4-2.3c0 .1-.1.1-.1.2.2.1.3.2.5.2 0-.1 0-.1.1-.2-.2-.1-.5-.1-.7-.1 0 .2-.2.5.1.5 0-.1 0-.3.1-.6m11.9-5c.1.1.1.2.2.3.3-.2.7-.3 1-.5 0-.1-.1-.2-.1-.3-.3.2-.7.4-1.1.5m-2.7 1.4c0-.1-.1-.1-.1-.2-.3.1-.5.2-.8.3 0 .1.1.2.1.3.3-.1.6-.2.8-.4m-10.6 4.3c0 .1 0 .1.1.2.2-.1.4-.1.6-.2 0-.1 0-.1-.1-.2-.1.1-.3.1-.6.2m2.4-1.1c0 .1 0 .2.1.2.2-.1.5 0 .4-.3-.2 0-.3.1-.5.1m2.3-.6q.15-.15 0-.3c-.1 0-.1.1-.2.2.1 0 .1 0 .2.1m-5.1 1.8s0 .1-.1.1c.1.1.2.1.2-.1 0 .1-.1.1-.1 0"/><path class="st6" d="M291.1 145.8c-.3.1-.7.2-1 .4 0-.1-.1-.1-.1-.2.3-.1.7-.2 1-.3.1 0 .1.1.1.1"/><path class="st22" d="M286.5 146.9c.2-.1.3-.2.5-.2-.2.1-.4.2-.5.2m6.8-2.8c.1 0 .2-.1.3-.1-.1 0-.2 0-.3.1m1.5-.7c.1-.1.2-.1.4-.2-.2.1-.3.2-.4.2m-5.3 2.3c.1-.1.2-.1.4-.2-.2.1-.3.1-.4.2m1.3-.6c.1-.1.2-.1.4-.2-.1 0-.2.1-.4.2m-4.8 2c.1 0 .2-.1.3-.1-.1 0-.2.1-.3.1m6.3-2.7c.1-.1.2-.1.3-.2 0 .1-.1.2-.3.2m-6.6 2.9c.1 0 .1-.1.2-.1-.1 0-.1 0-.2.1m1.4-.6c.1 0 .1-.1.2-.1-.1 0-.2 0-.2.1m1.5-.7c.1 0 .1-.1.2-.1-.1.1-.2.1-.2.1m.3-.1c.1 0 .1-.1.2-.1-.1 0-.2.1-.2.1m1.2-.5c.1 0 .1-.1.2-.1-.1 0-.1.1-.2.1m2.7-1.2c.1 0 .1-.1.2-.1-.1.1-.1.1-.2.1m2.4-1c.1 0 .1-.1.2-.1 0 0-.1.1-.2.1m.5-.2c.1 0 .1-.1.2-.1-.1.1-.2.1-.2.1m-14.2 6.1c.1 0 .1-.1.2-.1-.1 0-.2 0-.2.1m1.8-.8c.1 0 .1-.1.2-.1-.1 0-.1.1-.2.1"/><path class="st16" d="M118.2 192.5c12.1 3 24.3 5.7 36.3 9.1-.3 3-6.5-.6-8.5-.5-3.9-1.8-29.5-5-27.8-8.6"/><path class="st22" d="M205.5 197.6c.6-.4 1.3-.8 1.9-1.2.4 0 .9-.4 1.1.2-8.3 6-7.4 28.5 6.1 20.2-9.2 10-20.2-5.4-10.2-18.2.4-.4.8-.7 1.1-1"/><path class="st1" d="M214.7 216.7c-16.1 9.9-14.3-24.3-.1-21.7-.3.1-.5.3-.8.4-13.2-1.1-14 31.6 1.4 20.2h.2v.2c-.3.4-.5.7-.7.9"/><path class="st8" d="M213.8 195.5c.3-.1.5-.3.8-.4 8.5 2.7 5.7 15.5 1 20.6-.1-.1-.2-.1-.3-.1 4-5.4 7.4-17.8-1.5-20.1"/><path class="st7" d="M210.8 223.3c-.3.2-.5.3-.8.5-.8-.4-1.4.6-2.3.3.9-1.1 2.2-1 3.5-1-.1.1-.2.2-.2.3-.1-.1-.2-.1-.2-.1"/><path class="st4" d="M221.2 202.7v2.4z"/><path class="st7" d="m213.1 221.5-.7.7c-.1-.5.3-.6.7-.7m-1 .9c-.2.1-.3.2-.5.3.1-.1.3-.2.5-.3m-.5.3-.3.3c0-.1.2-.2.3-.3"/><path class="st19" d="M215.3 215.5h.1v.2l-.1.1z"/><path class="st7" d="M213.5 221.2h-.2c0-.1 0-.1.1-.2 0 .1 0 .1.1.2"/><path class="st1" d="M215.5 215.7v-.2c.1 0 .1.1.2.1-.1.1-.2.1-.2.1"/><path class="st7" d="m213.2 221.3-.1.1s.1 0 .1-.1"/><path class="st23" d="M119.7 191.1v-10c11.1 2.4 22.6 4.3 33.4 7.7v10.4c-10.8-2.6-21.6-5.3-32.3-8 0-.4-.2-.4-.5-.1z"/><path class="st20" d="M122.5 191.5c.2.1.4.2.7.3-.3-.1-.5-.2-.7-.3m-2.2-.4c.3-.3.4-.2.5.1-.2 0-.4 0-.5-.1m1.2.3h.3z"/><path class="st7" d="M309.4 137.3c1-.5 2-.9 3-1.4.1.2.2.5.2.6-.2.2-.3.4-.5.6.4.2.8.4 1.2.7-2.8 1.7 1.5 1.7-1.7 3.1 0 .1.1.2.1.3.9-.2 2.3-.8 2.3.6-3 1.3-5.7 2.4-8.8 3.3.1-.9.9-1.7-.2-2.1-1.8-.7 1.3-1.8-.6-3.1 1.7-1 3.6-1.4 5-2.6"/><path class="st3" d="M297.5 142.4c.3-.1.6-.3.9-.4-.1.5-.4.8-.9.4m.4 6.4c-.2.1-.3.2-.5.3v-.4c.2 0 .4.1.5.1"/><path class="st22" d="M298.8 141.7c.1 0 .1-.1.2-.1 0 0-.1 0-.2.1"/><path class="st1" d="M199.9 196.7c-.5 1.8-1.3 3.5-2 5.2 0-1.6 1-4 2-5.2"/><path class="st0" d="M184.2 194.5c-.4-.1-.8-.3-1.2-.4.4.1.8.3 1.2.4m-2-.4c-.1-.1-.2-.1-.3-.2.1.1.2.1.3.2"/><path class="st23" d="M248.9 184c-.4-3-2.3-10.7 2.9-9.6 0-.1 0-.1.1-.2-.2-.1-.5-.2-.7-.2 2.9-1.4 6.2-2.6 9.2-4.2.1.1.3.3.6.5.4-1.2 1.5-1.7 2.3-1.1 1.2-1.1 3.3-2.8 5.1-2.4-.1-1.4 3.6-2 4.7-2.3 0 0-.2-.1-.3-.2.4-.6 1.1-.5 1.8-.5-.2 1.6.6 8.2-.6 8.6-8.5 3.9-16.9 7.7-25.1 11.6"/><path class="st16" d="M276 174.9c-9.4 4.7-19.2 9.6-29 13.2.1-.4.1-.8.2-1.1 9.3-4.9 19-9 28.4-13.6.9.3.4.9.4 1.5"/><path class="st14" d="M247.2 187c-.1.3-.1.7-.2 1.1h.8l-1.8.3c-.2-.8.5-1 .9-1.4zm.3-.2c-.1 0-.1 0-.2.1.1 0 .1-.1.2-.1"/><path class="st6" d="M210.8 223.3h.2z"/><path class="st11" d="M218.3 197.4c-2.7-2.8-6.6-3.4-9.8-.8-.3-.6-.7-.2-1.1-.2 2.9-2.4 9.2-3.1 10.9 1"/><path class="st6" d="M205.5 197.6c-.4.3-.7.6-1.1.9.2-.6.5-.9 1.1-.9m-1-.1c0 .1-.1.1-.2.1.1-.1.1-.1.2-.1"/><path class="st4" d="M304.9 150v-.1h.3c-.1 0-.2 0-.3.1"/><path class="st7" d="M312.4 161.6v-.3zm0-4.1v-.1z"/><path class="st4" d="M314.1 141.5c-.2-1.3-1.5-.6-2.3-.4 0-.1-.1-.2-.1-.3 3.1-1.4-1.1-1.4 1.7-3.1-.4-.2-.8-.4-1.2-.7.2-.2.3-.3.5-.6-.1-.1-.1-.4-.2-.6.1-.1.3-.1.4-.2l1.1 1.1c.1 0 .1 0 .2-.1V135c.7-.3 1.3-.6 2-.9l.3.3c.1-.1.1-.2.2-.3l.6-.3c1.1-.2 3.2-.9 4-1.8l2.7-1.2c-2 1.1-1.1 3.6-.9 5.5.1 0 .3-.1.5-.2-1.5 2.3-4.7 3.2-7.2 4.4l-.1-.1.1.1c-.2.1-.3.2-.5.3-.6-.4-1-.3-1.3.5-.3.1-.4.2-.5.2m0-1c.1.1.1.2.2.2.2-.1 0-.4-.2-.2m9.9-6.5v-1.8h.1c-.1.6-.1 1.2-.1 1.8q0-.15 0 0m-.2 1c0-.2.1-.3.1-.5h.2c0 .2-.1.4-.1.5zm0-3.3q.15 0 0 0c.1 0 0 0 0 0"/><path class="st6" d="M309 143.8c.2-.1.3-.1.5-.2-.2.1-.4.1-.5.2"/><path class="st1" d="M285 175.6c0 .1-.1.1-.2.1.1-.1.1-.1.2-.1"/><path class="st8" d="M201.3 223.9c-.1-.1-.3-.2-.4-.3.1.1.2.2.4.3"/><path class="st7" d="M321.1 132.1c-.8.9-2.8 1.5-4 1.8 1.3-.6 2.6-1.2 4-1.8m-7 3.1v1.6c-.1 0-.1 0-.2.1l-1.1-1.1c.5-.2.9-.4 1.3-.6m2.4-1c-.1.1-.1.2-.2.3l-.3-.3c.2.1.4 0 .5 0"/><path class="st19" d="M300.5 164.6c-.9-5.2 4.8-17.9 10.4-10.2 4.6 9.6-7.2 26.1-10.5 10.3 0-.1.1-.1.1-.1"/><path class="st12" d="M230.5 116.2c-.2.1-.2.1-.3-.1.2-.1.2-.1.3.1m2.6-1s.1 0 .1.1-.1.1-.2.1z"/><path class="st0" d="M196.1 122.2c-25.1-3.7-50-8.8-74.9-13.6-5.2-1.5-40.3-4.1-18.1-8.2 28.9-6.8 57.7-13.9 86.5-20.8 10.9-2.2 21.5-6.7 32.8-5.9 21.3 2.8 42.6 6 63.9 9.1-1.2.5-3.8-.5-3.6 1.4-21.8-2.6-43.5-7.7-65.4-8.6-38.9 7.4-77.2 18.6-115.8 27.6 20.8 4.7 42.8 8.5 64 11.9 11.5 2.7 23.9 5.2 35.6 6v.2c-.8.2-1.9.3-2.7.4-.4.8-1.5.1-2.3.5"/><path class="st8" d="M196.1 122.2c.8-.4 1.8.3 2.2-.7.8-.2 1.9-.3 2.7-.4v-.2c-11.8-.7-24.2-3.2-35.6-6 33.9 6.4 29 8 61.5-4.6 22.6-8.5 45.9-15.8 68.4-24.1-2.4-.5-4.8-1.1-7.2-1.3-.9-.5-.5-1.3-1.7-1.4-.3.3-.6.6-.9 1-1-.1-1.9-.2-2.9-.3-.4-1.8 4.1-1.3 5.3-1 .3.4 1.8.7 2 .2 1.1-.2 3.7 2.4 3.9.5 7.7 1.3 8.8 2 .6 4.8-4.2.9-8.1 3.5-12.4 3.9.3.6-3.6 1.5-4.1 1.9-1.4.3-3.2 1.6-4.5 1.7-1.1-.5-1.4.5-2.1.7-2.3.6-4.5 1.7-6.8 2.1-5.3 2-11.3 4.9-16.5 5.7-.6 1.3-2.3 1-3.5 1.3-7.8 3.8-17.1 6-25.4 9.4-2.1.5-13.7 6-13.6 3.5-.6.3-2.1.3-2.1 1 .4.1.7.2 1 .3.3-.3.7-.8.9 0-.7.3-1.3.5-2 .8-.4-.3-.6-.1-.8.3-2.1.2-4.2 1.5-6.4.9m12.3-3.8c0-.1.1-.2.1-.3-.2-.1-.4-.1-.6-.2-.3.4.2.4.5.5"/><path class="st0" d="M205.3 120.1c-.2-.8-.5-.4-.9 0-.3-.1-.6-.2-1-.3 0-.7 1.5-.7 2.1-1-.2 1.9 2.6-.1 3.6 0-1.3.3-2.4 1.2-3.8 1.3m88.6-36.4c-.2 1.7-2.2 0-3-.3.9.1 2 .2 3 .3m-4-.5c-.2.5-1.6.2-2-.2.7.1 1.4.2 2 .2m-89.4 38.4c.4-.1.8-.1 1.2-.2-.4.2-.7.4-1.1.6 0-.1-.1-.3-.1-.4m2.1-.5c.1-.4.4-.6.8-.3-.3.1-.5.2-.8.3"/><path class="st17" d="m96.6 101.6.3-.6c.1.1.1.2.2.4-.2.1-.4.1-.5.2"/><path class="st5" d="M187.2 121.4c-.1 0-.3-.1-.4-.1.2.1.3.1.4.1"/><path class="st0" d="M202 121.3c.2-.1.3-.1.5-.2-.2.1-.3.1-.5.2"/><path class="st5" d="M186.3 121.3h-.3zm-1.5-.3h-.2z"/><path class="st12" d="M243.4 128.4q-.15-.15 0-.3c.1 0 .1.1.2.2 0 0-.1 0-.2.1"/><path class="st19" d="M268 126.4c-.1.1-.2.2-.3.1.1-.2.1-.3.3-.1"/><path class="st8" d="M305.2 117.9c.1-.1.2-.2.3-.2-.1 0-.2.1-.3.2"/><path class="st14" d="M247.9 188c.1-.1.2-.1.4-.2-.1.1-.3.2-.4.2"/><path class="st22" d="M295.9 142.1c.4-.2.7-.3 1.1-.5 0 .1.1.2.1.3-.3.2-.7.3-1 .5 0-.1-.1-.2-.2-.3m-2.7 1.4c-.3.1-.5.3-.8.4 0-.1-.1-.2-.1-.3.3-.1.5-.2.8-.3.1.1.1.2.1.2m-10.6 4.3c.2-.1.4-.1.6-.2 0 .1 0 .1.1.2-.2.1-.4.1-.6.2 0-.1 0-.1-.1-.2m2.4-1.1c.1 0 .3-.1.4-.1.1.3-.2.2-.4.3.1 0 .1-.1 0-.2m-1 .4c.2.1.3.2.5.2 0 .1 0 .1-.1.2-.2-.1-.3-.2-.5-.2 0-.1 0-.1.1-.2m-.1.2v.5c-.3 0-.1-.3-.1-.5zm3.4-1.2c-.1 0-.1-.1-.2-.1l.2-.2q.3 0 0 .3m10.9-5.3c.1.1.2.2.2.3-.1 0-.2 0-.2-.3m-16 7.1s.1 0 .1.1-.1.1-.2.1c.1-.1.1-.1.1-.2"/><path class="st19" d="M213.8 195.5c8.9 2.4 5.6 14.9 1.4 20.2-15.4 11.3-14.6-21.4-1.4-20.2"/><path class="st8" d="M215.2 215.7c.1 0 .1-.1.2-.1v.1z"/><path class="st7" d="M314.1 140.5c.2-.2.4.1.2.2-.1 0-.1-.1-.2-.2m2.1.1"/><path d="M206.9 117.5c-10.9 6-22.7-.2-34.1-1.2-23.7-4.6-47.5-8.9-71.3-13.2 19.9-5.2 40-9.7 60-14.7 0 .1.1.3.1.4-4.2 1-8.5 2.1-12.7 3.2-2.3.2-4.4 1.1-6.7 1.7 1.1.4 1.8 1.1 2.8.5.1.3.1.5.2.8 1.9.4 5.5.4 6.2 2.4 3.2-.5 1.7 2.6 4.5 1-.2 3.5 14.8 4 18.2 5 0 .2-.1.4-.1.7 1.4-.2 2.4.8 3.3 1.7.7.9 1.7-.1 2.6.2 1.3.9 2.7 1.8 3.5 3.1 1.6-.7 2.1-.7 2.5.2-.9.2-1.5 1.2-.1.9.2-.2.5-.6.8-.7.3.3.5.8.3 1.1.6.3 3.1.1 2.2 1.1-2.1-.4-4.1-.7-6.3-1.1.2-.3.4-.5.5-.7-1.9-.4-3.9 1.2-5.8.2-1.3-.2-11.5-2.8-9.9-.2 2.5 1.4 7.9 2.3 11.1 1.9 5 1.5 10.7 2 15.7 3.1 1.3 1.4-.9 3.1.8 4.2-.8-.4-1.6.1-2.2-.4 0 0-.3.1-.5.2 4.8 2.3 9.8-.6 14.3-1.7.1.2.1.3.1.3m-58.9-12c.5 0 .9-.5.9-.8-.8-1-2.5-.5-3.7-.9-1.9 0-4.2-1.7-5.7-.2 2.5 1.5 5.8 1.1 8.5 1.9m29.8 3.9c.5.6 1.2.6 2 0zm14.2 9.7c0-.1.1-.2.1-.3-.3 0-.5 0-.8-.1v.2c.2.1.4.2.7.2m-10.3-10v.1h.4v-.1z" style="fill:#4bbce4"/><path class="st15" d="M293.3 87.1c-9.4 3-18.6 6.5-27.9 9.5l-.6-.6c0 .1 0 .2-.1.3-.8.1-1.4.3-2.1.7-.2-1.4-1.8-.6-2.7-1-1.2-.3-2.3-.7-3.4-1.1-1.2-.7.7-1.7-2-1.6v-.4c1.3-.3 2.8-.1 3.9-.7.7-1 .4-1.6-.8-1.8-4.2-.2-8.7-1.6-12.8-1.3-.5.4-.6 0-.8-.4-.2-.6-2.8-.5-3.6-.7.4-1-.8-2.4-2.3-2.9-.1-.7.9-2.7-.3-2.6-.6-1.7-5.1-1.4-6.8-1.8-3.4-.5-7-.8-10.2-1.8-1 .1-1.2-1-1.9-1.1 0-1.3-.8-1.6-1.8-1.7.1-.3.2-.5.3-.7 25.8 1.5 51.5 7 77.2 10.4.1.9-.6.7-1.2.7-.1.3-.1.5-.1.6m-50-2.8-.2.2c1 1.3 4.2.6 6 1.2 0-.1.1-.1.1-.2-.7-2.3-3.7-1.2-5.5-1.6-.2-.1-.3.2-.4.4m7.2.9c0 .2-.1.5-.1.7 3.1 1.3 7.3 1.6 10.8 1.8 1.6-.2 7.3 2.1 6.9-.5.5-1.2-9-1.7-10.4-1.7.1-.1.1-.2.3-.3-2.5.4-5.3-1.4-7.5 0"/><path class="st5" d="M256.9 92.6c-.7.4-1.6.3-2.4.4v.4c2.6-.1.8.9 2 1.6 1.1.4 2.3.8 3.4 1.1.9.3 2.5-.4 2.7 1 .7-.4 1.3-.7 2.1-.7 0-.1 0-.2.1-.3l.6.6c-4.1 1.4-8.1 3-12.2 4.2q-.6-.45-.6.3c-.1.1-.2.1-.3.2-1.3-.7-3.4 1.4-4.8.9-.7-.4-1.7.1-2.1-.7-.1-.2-.4-.3-.6-.4-4.5-.6-1.1-2.3-4-2.6.4-.1 2.1-.8 1-1.1v-.1c-1.3-1.8-6.3-.9-8.6-1.9-.3-.9-1.8-.3-2.6-.8.5-.8 1.6.4 2-.8-1.6.2-2.5-.9-3.7-1.3-.7 0-1.5.2-1.7-.8 0-.1-.1-.2-.1-.2-1.6-.1-1.2-1.3-2.1-1.8-2.5-.7-5-1.1-7.2-1.9 1.9-1.2 2.9 1.5 3.9-.2h.3c.1.1.1.3.2.4l.3-.3c1.5 0 3 .1 4.5.1 1.7-.1 1.9-2 .2-2.1-7.1-.7-14.2-2.8-21.3-3.3-1.9.4.9-2.5-.9-2.6-1.3-.1-1.4-.2-1.5-1.5 2.5-2 10.9-3 14.2-3.2-.1.2-.2.4-.3.7 1.1.2 1.8.4 1.8 1.7.8.1 1 1.2 1.9 1.1.4 0 .9.3 1.3.4-1.5-.1-3 0-3.2 1.7 3.4.5 17.5 4.5 18.9 1.4 1.2-.1.2 1.9.3 2.6 1.6.5 2.7 1.9 2.3 2.9.7.2 3.4.1 3.6.7-.8.1-5.2-1-5 .1-.2.1-.4.2-.5.2l-.1-.1c.4 2.8 15 3.3 18.2 4m-27.8-4.9c.4.8 3.7 1.4 5.3 1.2-.8-1.2-3.6-.7-5.3-1.2"/><path class="st25" d="M240.4 105.4c-2.9 1-5.8 2.2-8.7 3-.5-.4-.8-.1-.9.4-1.4-.4-4.3 1.7-5.6 1.1-1.3-.8-2.4-2-4-2.5-1.4-.4-2.5-2.6-4.1-1.6-.2-.4-.1-1.9-.8-1.4-5 .7-11.3-.8-16.2-2.2 5.2.3 11.1 2.9 16 1.6-1.9-1-4.2-.8-6.3-1.2-.1.3-.1.5-.1.5-1.6-1.4-3.8-1-5.7-1.3-3.3-.9-6.7-1.3-10-1.9-1.3.1-6.4-1.7-6.5 0l1.8.6c-1.2 0-3.2-.2-1.7-1.6 3.4-.2 7.1.6 10.4 1.1 1.3 1.2 9 1.1 4-.3.4-.5.8-.9 1.1-1.2v1c.1 0 .2.1.3.1.2-.3.3-.5.5-.8-.4-.1-.8-.3-1-.6-1.6-.3-3.2-.3-4.6-1.2 1.5.1 10.9 2.2 11 .7-5.2-2.2-11.7-2.1-17.4-3.5-.1-.2-.1-.3-.2-.5l-.4.4c-4.8-.6-9.7-2.1-14.5-2.2.8-1.7 11.7 2 14.1 1.5v-.3c-4-.6-1.5-1.8-3.4-2.1-2-.3-3.4-1.8-4.9-2.7-1.2-.6-2.6-.7-3.5-1.8-1 .1-.9-1-1.7-1.3 2.5-1.3 5.9-.9 8-2.5 2.9-.7 5.8-1.6 8.8-2.1-.3 1.2-2.8.3-3.5 1.8.8.6 2.5.4 2.7 1.4.3.9 1.6.4 2 1.5 1.1 0 1.7 1.2 2.5 1.5 1.7.2.2 2.4 1.7 1.9 3.2 1.8 7.2 1.5 10.7 2.7-5 .2-15.8-4.3-19.3-1.8-.8 1.9 8.5 2.5 10.1 2.6 4.1 1.3 10.1 2.4 14.4 1.9.1.1.3.2.4.3-.2.2-.4.3-.7.6 1.6 0 2.4 1.6 3.9 1.3 1.6.9 2.8 2.3 3.9 3.8-.2.3-.9.5 0 .7v.3h.7v.1c1.4.4 2.8.6 4.2.8.8.7 1.8 0 2.7.3.1.1.1.2.2.2 0-.1.1-.2.1-.2.4-.1.7-.1 1.1-.2 1.9 2.5 5.4 3.9 8.4 3.3"/><path class="st26" d="M210.2 91.4c-3.5-1.2-7.5-.9-10.7-2.7-1.5.4 0-1.8-1.7-1.9-.8-.4-1.4-1.5-2.5-1.5-.4-1-1.7-.6-2-1.5-.2-1.1-1.9-.8-2.7-1.4.6-1.5 3.1-.6 3.5-1.8 3.2-.9 6.5-1.9 9.8-2.4-.3.2-.5.4-.8.6.1 1.3.3 1.4 1.5 1.5 1.8 0-1 2.9.9 2.6-.3.3-1.3.8-.7 1.4 1.7 2.8 12.8 2.5 16.5 3.8-1 1.7-2-1-3.9.2 1.2-.1 1.9 1.2 3.3.9 1.3.1 3.3.5 4.4 1.3.2 1 1 1.2 1.8 1.5.2 1 1 .9 1.7.8 1.2.4 2.2 1.5 3.7 1.3-.5 1.2-1.5 0-2 .8.8.5 2.2-.2 2.6.8-.7.2-1.6.2-2.2.8.1.2.1.4.2.6-.4 1.1 2.6.7 3.3.9 2 .7 4.3.5 6.3.7 2.9.3-.5 2 4 2.6.7.2.8 1.1 1.7.9.6 0 1.2.4 1.8.3 1.1-.2 3.1-1.6 4-1-6.7 1.9-14.7 7.5-20.4.9 2.5-2.4-8-2.6-9.1-2.1-1.1-1.5-2.2-2.9-3.9-3.8-1.5.2-2.2-1.4-3.9-1.3.4-.3.5-.4.7-.6-.1-.1-.3-.2-.4-.3 2.2-2.7-3.4-2.2-4.8-2.9m12.9 4.4c1.2.9 4 1.5 5.5.7 1.9-1.7-6.9-2.9-5.5-.7m-19.3-13.3c0 .1-.1.2-.1.3.2 0 .4.1.6.1v-.2c-.1-.1-.3-.2-.5-.2"/><path class="st27" d="M185.2 82.6c-2.2 1.6-5.5 1.3-8 2.5.8.3.8 1.4 1.7 1.3.9 1 2.4 1.2 3.5 1.8 1.5.9 2.9 2.4 4.9 2.7 1.9.3-.6 1.5 3.4 2.1v.3c-4.2.6-12.5-4.1-15-.6 8.9 2.1 18.5 2.9 27.2 5.7-.3.4-.6.7-1.1 1.2 5 1.4-2.6 1.5-4 .3-3.3-.6-7-1.3-10.4-1.1-.3-.1-.3-.7-.8-.4-1.2.7-.8-1.3-2.1-1-.3 0-.6-.1-1-.2.4-.3.5-.4.7-.6 0 0 0-.1-.1-.1-.4 0-.9.1-1.3.1-1.7-.8-3.9-1.3-5.7-1.9-1.3 0-1.3-1-1.7-1.9h-.3c-.5 3.7-1.2-.9-4-.3-.4.1-.9-.1-1-.4.2-.7-.4-.7-.8-.8-1.3-.2-2.2-1.3-3.3-1.9-1.1-.2-2.4.4-3.4-.5-.3-.3-.9-.2-1.4-.4 0-.1-.1-.3-.1-.4 8.2-1.8 16.2-3.6 24.1-5.5"/><path class="st8" d="M101.4 103.1c21.2 3.9 42.6 7.6 63.8 11.8-21.1-3.3-43.2-7.2-63.8-11.8"/><path class="st27" d="m161.1 88.4-.9.3zm-4.8 1.2-.9.3zm2.4-.6c-.3.1-.6.2-.9.2.3 0 .6-.1.9-.2"/><path class="st25" d="M176.7 84.6c-.2.1-.4.1-.7.2.2 0 .4-.1.7-.2"/><path class="st27" d="M154.3 90.1c-.1 0-.2.1-.3.1.1 0 .2-.1.3-.1m.6-.1c-.1 0-.2.1-.3.1.1-.1.2-.1.3-.1m2-.5c-.1 0-.2.1-.3.1.1-.1.2-.1.3-.1m.6-.2c-.1 0-.2.1-.3.1.1 0 .2 0 .3-.1m1.8-.4c-.1 0-.2.1-.3.1.1 0 .2-.1.3-.1m.6-.2c-.1 0-.2.1-.3.1.1 0 .2 0 .3-.1"/><path class="st25" d="M175.4 84.9c-.1 0-.2.1-.3.1.1 0 .2 0 .3-.1m7.1-1.7c-.1 0-.2.1-.3.1.1 0 .2-.1.3-.1"/><path class="st27" d="M204.3 103.5c3.9.1 8.3 2.1 12 1 .7-.4.6 1 .8 1.4 1-.7 1.7 0 2.2.4 1.2 1.1 3 1.4 4.3 2.5 2 2.7 4.7.1 7.1.1-3.8 1.5-7.7 3-11.6 4.3-1.8-.5-4 1.7-6 1.7.2-.3.4-.5.6-.8-.8-1.1-2.2-1.6-2.8-3-.6-.1-1.3-.6-1.1-1.3-2.6-.6-5.5-.4-7.8-1.8 1.7.1 7.8 1.8 8.7.5-6-1.7-12.9-2.8-19.2-3.2.3-.2.5-.4.8-.5 1.9.4 4 .3 5.9 1.1 1.5-.4 2.9.1 4.5.4.4-.9-.9-2-.2-2.7.4-.1 1.1.1 1.8-.1m5.8 5.9q-.3.15 0 .3c.1 0 .1-.1.2-.1-.1-.2-.2-.2-.2-.2"/><path class="st28" d="M212.9 114.8h.5v.4c-2.2.8-4.3 1.6-6.5 2.4.9-1.8 4.5-1.4 6-2.8"/><path class="st29" d="M213.4 115.1v-.4c1.8-.3 4-2.1 5.6-1.6-1.9.7-3.8 1.4-5.6 2"/><path class="st0" d="M288.1 84.9c-.9-.1-1.7-.3-2.6-.4.3-.3.6-.6.9-1 1.2.1.8.8 1.7 1.4m5.2 2.2v-.5c.6.1 1.2.3 1.2-.7.3.1.5.1.9.3-.6.8-1.4.8-2.1.9m-84.9 31.3c-.3-.2-.8-.1-.5-.6.2.1.4.1.6.2 0 .2-.1.3-.1.4"/><path class="st27" d="M230.7 108.9c.2-.5.4-.8.9-.4-.3.1-.6.2-.9.4"/><path class="st26" d="M252.5 101.2q0-.75.6-.3z"/><path class="st0" d="M289.6 85c-.2-.1-.4-.1-.6-.2.2.1.4.2.6.2m1.1.3c-.2 0-.3-.1-.5-.1.2 0 .3.1.5.1"/><path class="st29" d="M212.9 114.8c-1.6 1.4-4.6 1.1-6 2.6h-.8c-.3-1.1-.8 0-1.3-.1.2-.3.3-.6.4-.7-1.5-2.7-3.6-4.6-6.4-5.8-.2-.2-.5-.5-.6-.7 0-1.2-1.2-.7-1.9-1v-.2c.6 0 1.1-.1 1.7-.1-.2-1.5-3 1-4.6-1.3l.4-.4c-3.1-.8-6.9-.5-9.4-2.5-1.9-.7-4.4.3-6.5-.7-3.8-1-8.2-.5-12.2-1.7-2.7-1-8.1-.5-9.6-2.7 1.1-1.7 3.2-.8 5-.7.8 0 3.2.7 3.6.1.1-.8-1.2-.9-1.8-1.1-.4-.1-.7 0-.8-.5-1.3-.9-3.1-1.3-4.6-2.1-.7-.6-.9-1.7-2.1-1.6-.2 0-.5 0-.5-.1-.3-.9-1.4-.5-1.9-1.2-.9-1.4-2.8.1-4.1-.2 4.6-.7 9.5-3.4 14-2.8.9.8 1.9.5 2.9.5 1.4.1 2.3 1.8 3.8 1.9.4.1 1 0 .8.8 0 .4.6.5 1 .4 2.9-.6 3.5 4 4 .3h.3c.3.9.4 1.8 1.7 1.9 1.8.6 3.9 1.1 5.7 1.9.4 0 .9-.1 1.3-.1 0 0 0 .1.1.1-.2.1-.3.3-.7.6.4.1.7.2 1 .2 1.3-.3.9 1.7 2.1 1 .5-.3.5.2.8.4-1.9 1.9 1.6 1.5 2.7 1.8 4 1.6 9.8 1.4 14.1 2.7-.7.3-1.4 0-2.1.1-.7.7.6 1.8.2 2.7-1.6-.3-3-.8-4.5-.4-1.9-.9-3.9-.8-5.9-1.1h.3v-.1c-.4.1-.8.4-1.1.7l-.3.3c0 .2-.1.3-.1.5 6.5.8 12.4 2.9 18.8 3.8-.1.7.6 1.2 1.1 1.3.6 1.4 2 1.9 2.8 3-.4-.2-.6 0-.8.3m-37.8-11.6v-.1c1.3.2 1.8-1.1.3-1.3-5.2-.2-14.8-4.4-18.9-2.2 6 1.8 12.5 2.4 18.6 3.6m10.1 1.7c1.7 0 3.9 1.6 5.2.5-.2-.7-5.3-2.1-5.2-.5m-7.7-1.9c.7.9 4.6 1.4 5.4.7-1.9-.2-3.6-.8-5.4-.7m16.8 4.1s0 .1-.1.1c.1.1.2.1.2-.1 0 .1-.1.1-.1 0"/><path class="st28" d="M174.1 103.5c3.2-.9 5.9 1.8 9.1.7.4 0 1.1.1 1.3.3 2.5 2.1 6.3 1.8 9.4 2.5l-.4.4c1.5 2.3 4.4-.2 4.6 1.3-.6 0-1.1.1-1.7.1v.2c.7.3 1.9-.2 1.9 1 0 .2.4.5.6.7 2.7 1.1 4.9 3 6.4 5.8-.1.2-.2.4-.4.7.5.2 1-.9 1.3.1-4.1 1.8-9.1 3.6-13.6 1.7.2-.1.4-.3.5-.2.7.6 1.5 0 2.2.4-1.6-1.1.6-2.8-.8-4.2-5-1.1-10.7-1.6-15.7-3.1-3.6.3-7.8-.4-11-1.8 21.8 4.7 4.6-3 0 0-1.7-2.6 8.6 0 9.8.2 2 1 4-.6 5.8-.2-.1.2-.3.4-.5.7 2.1.4 4.2.7 6.3 1.1.9-1-1.6-.8-2.2-1.1.2-.3-.1-.8-.3-1.1-.3.2-.6.5-.8.7-1.4.3-.8-.6.1-.9-.4-.9-1-.9-2.5-.2-.8-1.3-2.3-2.2-3.5-3.1-.8-.3-1.8.7-2.6-.2-1-.9-1.9-1.8-3.3-1.7-.1-.4-.1-.6 0-.8m5.1 8c3.3.8 12 3.3 14.7 2-.1-1-6.5-1.5-7.6-1.7-2.1 0-5.9-2.2-7.1-.3M148.8 92c1.4.3 3.2-1.2 4.1.2.4.7 1.6.3 1.9 1.2 0 .1.3.1.5.1 1.2-.1 1.4 1 2.1 1.6 1.5.8 3.4 1.2 4.6 2.1.1.5.4.5.8.5.6.2 1.9.2 1.8 1.1-.4.6-2.8-.1-3.6-.1-1.8-.1-3.9-1.1-5 .7-.1-.3-.1-.6-.2-1-2.8 1.5-1.3-1.5-4.5-1-.7-2-4.3-2-6.2-2.4-.1-.3-.1-.5-.2-.8-1 .6-1.7-.1-2.8-.5 2.4-.7 4.5-1.6 6.7-1.7"/><path class="st9" d="M167.8 110c4.6-3 21.8 4.7 0 0"/><path class="st22" d="M148 105.5c-2.8-.9-6.1-.5-8.5-1.8 1.5-1.5 3.9.2 5.7.2 1.1.3 2.9-.1 3.7.9 0 .3-.4.7-.9.7"/><path class="st28" d="M177.8 109.4h2c-.7.6-1.5.7-2 0m14.2 9.7c-.2-.1-.5-.1-.7-.2v-.2c.3 0 .5 0 .8.1-.1.1-.1.2-.1.3m-10.3-10h.4v.1h-.4z"/><path class="st13" d="M256.9 92.6c-6-.9-13.1-1-18.4-3.1 1.6-.2 4.9 1.7 5.5-.1-1.6-.4-3.3-.4-5-.5-.2-1.1 4.2 0 5-.1.4 1.4.9-.6 2.9.3 2.2 1.4 13.1-.3 11.4 3.2-.3.5-.9.2-1.4.3m-5.5-2.2c-.5-.1-1-.1-1.5-.2-.1.1-.1.2-.2.2 0 0-.1 0-.1.1-.6-.8-4.8-1.8-5.1 0 4.6 0 9.6 2.3 13.8 1.1-.8-.9-2.2-.7-3.4-.9-1.1-.1-2.4-.7-3.5-.2.1-.1.1-.1 0-.1m-13.6-7.8c-1.4 3.1-15.5-.9-18.9-1.4.6-3.4 5.3-1 7.5-1 3.6 1 8.6-.1 11.4 2.4M219.3 81c2.6.1 17.7 3.6 18.1 1.7-4.1-1.8-9.3-1.5-13.7-2.5-1.5 0-3.9-1-4.4.8m48.9 6.7c-.3 1.7-16.3-.9-17.7-1.8 5.9.3 11.7 2 17.7 1.8"/><path class="st11" d="M248.8 84.7c.1.2.2.5.4.7 0 .1-.1.1-.1.2-1.7-.6-4.9.1-6-1.2l.2-.2c1.9-.2 3.8.5 5.5.5"/><path class="st0" d="M257.7 86.6c-.1 0-.2 0-.2-.1 0-.3.7-.6 0-.9.8-.4 11.5.5 10.7 1.6-1.6-.3-3.2-.4-4.7-.6-.3-.7-.9-.3-1.3-.4-2 .3-2.9-1-4.5.4"/><path class="st11" d="M252.9 86.2c-.8-.1-1.7-.2-2.5-.3 0-.2.1-.5.1-.7.9-.5 2.8-.4 3.4.2-.3.3-.6.5-1 .8"/><path class="st19" d="M253.9 85.4c-.6-.6-2.5-.7-3.4-.2 2.2-1.5 5 .3 7.5-.1-.9 1.3-2.9 0-4.1.3"/><path class="st13" d="M248.8 84.7c-1.8 0-3.7-.7-5.6-.4.6-.8 5.2-.5 5.6.4"/><path class="st9" d="M266.2 86.9c.6.1 1.3.2 1.9.3v.5c-.4 0-.9.1-1.3.1z"/><path class="st13" d="m243.3 84.3-.2.2c.1-.1.1-.2.2-.2"/><path class="st15" d="M204.8 84.1c-.4-3.5 10.4.7 12.8.6 1.6.6 14.5.8 9 3.5-7.1-.6-15.2-1.1-21.7-3.6 4.5.2 20 5 22.5 2.4-6.4-2-13.6-2.2-20.3-3.6-.9-.1-1.7-.1-2.3.7"/><path class="st9" d="M231.1 97.1q0-.15 0 0c.8-1.2 2.1-1.3 3.7-.3.7-.5 1.9-.3 2.4.2.7-.1 1.4-.5 1.9.2.9-.1 1.8-.3 2.6.2v.1c-1.8 1.6-5.2-.3-7.3 0-1.1-.1-2.2-.3-3.3-.4"/><path class="st11" d="M239 88.9c1.7.1 3.4.2 5 .5-.6 1.8-4-.1-5.5.1 0-.1 0-.2-.1-.3v-.1c.2 0 .4-.1.6-.2"/><path class="st13" d="M241.6 97.5c-.8-.6-1.7-.4-2.6-.2-.5-.8-1.2-.4-1.9-.2-.5-.6-1.7-.7-2.4-.2-1.6-1-2.9-.9-3.8.2-.1-.2-.2-.4-.2-.6.6-1.4 11.4-.1 10.9 1"/><path class="st11" d="M229.1 87.7c1.7.5 4.5 0 5.3 1.2-1.6.2-4.8-.4-5.3-1.2"/><path class="st13" d="M234.3 97.6c2.1-.3 5.5 1.6 7.3 0 1.1.3-.6.9-1 1.1-2.1-.2-4.4-.1-6.3-.7z"/><path class="st26" d="M221.7 87.9c.1 0 .3.1.4.1l-.3.3c0-.1-.1-.3-.1-.4"/><path class="st13" d="M238.4 89.1v.1z"/><path class="st22" d="M198.1 97c-7.4-1.5-14.9-2.5-22.3-4.2.4-.4.6-.7.9-.9 10.7 1.1 21.5 3.5 32.1 5.4 2.4 2.2-9.9-.3-10.7-.3m2.8-4.8c-1.8-.9-10.6-.9-10.1-2.6 7.6-.8 15.9 2.5 23.7 3.1 4.4 3-12.3-.4-13.6-.5"/><path class="st9" d="M199.3 101c3.4.8 7.4.3 10.4 2.1 0 0 .1-.2.1-.5 2.1.4 4.4.2 6.3 1.2-5.4 1.1-11.8-1.2-17.3-2 .2-.3.3-.5.5-.8"/><path class="st5" d="M206.4 93.1c1.3.1 10.4 2.4 8.6-.3-8-.6-16.4-4-24.2-3.2 3.4-2.5 18.7 2.5 24.1 2.7 4.5 4.1-12.8.7-14-.1 1.9.2 3.7.6 5.5.9"/><path class="st9" d="M190.2 100.7c-1-.1-1.9-.4-2.8-.7-.5-1.7 10.4.5 11.4 1.1-.1.3-.2.5-.4.9-2.7-.4-5.4-1.3-8.2-1.3"/><path class="st5" d="M222.7 100.1c1-.5 11.5-.2 9.1 2.1-2.4.4-4.7-.4-7.1-.6v-.5c1.3-.2 3.8 1.6 4.1-.4-1-.1-2-.3-3.2-.4-.3-.3-2.9-.6-2.8.5-1-.1-.2-.4-.1-.7m6.4 1.8c.5 0 3.8.3 2.3-.8-.8-.1-2.5-.7-2.3.8"/><path class="st27" d="M190.2 100.7c2.7 0 5.5.9 8.2 1.3.1-.4.2-.6.4-.9h.5c-.2.3-.3.5-.5.8.7.2 1.2.3 1.8.7-3.1-.4-7.8-.7-10.4-1.9"/><path class="st26" d="M190.8 90.3c2.8.5 5.6.9 8.3 1.5-.1.1-.1.2-.2.3-2.6-.6-5.5-.4-8.1-1.8"/><path class="st27" d="M202.9 98.5c.2.1.5.2.7.3-.2.3-.3.5-.5.8-.1 0-.2-.1-.3-.1.1-.4.1-.7.1-1"/><path class="st5" d="M222.7 101v-.2c.5.1 1.1.2 1.6.3-.1.1-.1.2-.2.3-.3-.1-.5-.1-.8-.2h.1s0-.1-.1-.1h-.7c.1 0 .1 0 .1-.1M199 92.1c.1-.1.1-.2.2-.3.5.1 1.1.2 1.6.3q-.9.3-1.8 0"/><path class="st26" d="M227.7 102.1c.5.1 1 .1 1.5.2-.5.2-1 .2-1.5-.2"/><path class="st27" d="M191.7 94.1c-.2 0-.4-.1-.6-.1l.4-.4c.1.2.1.4.2.5"/><path class="st26" d="M224.2 101.5c.1-.1.1-.2.2-.3h.3v.5c-.2-.1-.3-.1-.5-.2m5.3.8c.2 0 .3.1.5.1-.2 0-.3-.1-.5-.1m.9.1h.3c0 .1-.1.2-.1.2-.1 0-.1-.1-.2-.2m-6.9-1.2s0 .1 0 0v.1zm-.8-.2v.1z"/><path class="st27" d="M193.5 94.5c-.1 0-.1 0-.2-.1.1 0 .2 0 .2.1m-16-2.8h-.1z"/><path class="st22" d="M204.8 84.1c3.3-1.9 8.1.8 11.8.8 3.5.8 7.5.7 10.7 2.1-2.6 2.6-18-2.2-22.5-2.4z"/><path class="st5" d="M223.1 95.6c-.5-2 4.2-.4 5.3-.3 2.1 2.4-4.7 1.5-5.3.5 1.6.3 3.3.7 4.9.6.4-1.2-1.4-.8-2-1-1-.1-2.1-.7-2.9.2"/><path class="st9" d="M223.1 95.6c.8-.9 1.9-.3 2.9-.2.7.2 2.4-.2 2 1-1.7.1-3.3-.2-4.9-.6 0-.1.1-.1 0-.2"/><path class="st5" d="M234.3 97.6v.3c-.6-.2-3.8.2-3.3-.8 1.2.1 2.3.3 3.3.5m-30.5-15.1c.2.1.4.1.6.2v.2c-.2 0-.4-.1-.6-.1-.1-.1 0-.2 0-.3M234.5 98c.2 0 .3.1.5.1-.2 0-.4 0-.5-.1m4.4.5c.1 0 .2.1.3.1-.1 0-.2-.1-.3-.1m-7.7-2.4-.3.3zm-.3.3v.1s-.1-.1 0-.1c-.1 0 0 0 0 0"/><path class="st22" d="M201.7 107.9c-3.7-.8-7.3-1.3-11-2 0-.2.1-.3.1-.5l.3-.3c6.2.4 13.2 1.5 19.2 3.2-.8 1.4-6.9-.2-8.6-.4"/><path class="st29" d="M210.1 109.4c.1 0 .1.1.2.1-.1.1-.1.1-.2.1-.2 0-.2-.1 0-.2"/><path class="st16" d="M175.1 103.2c-6.2-1.2-12.6-1.7-18.6-3.6 4.1-2.2 13.8 2.1 18.9 2.2 1.4.2 1 1.5-.3 1.3z"/><path class="st9" d="M185.2 104.9c-.1-1.5 5-.2 5.2.5-1.4 1-3.5-.5-5.2-.5m-7.7-1.9c1.8-.2 3.5.4 5.4.7-.8.7-4.7.2-5.4-.7"/><path class="st27" d="m191.2 105.2-.3.3z"/><path class="st28" d="M194.3 107.1s.1 0 .1.1-.1.1-.2.1c0-.1.1-.1.1-.2"/><path class="st27" d="M192 104.7c.1 0 .2-.1.3-.1v.1zc.1 0 0 0 0 0"/><path class="st9" d="M179.2 111.5c1.2-2 5.1.2 7 .3 1.1.2 7.5.7 7.6 1.7-2.5 1.4-11.4-1.1-14.6-2m4.5 0c.4 1.3 2.7 1.3 2 .4-.7-.1-1.3-.2-2-.4m67.8-21.1c1.1-.5 2.3.2 3.5.2 1.1.3 2.5 0 3.4.9-.6 1-7.4.4-6.9-1.1"/><path class="st11" d="M249.6 91.1c-1.7-.2-3.3-.4-5.1-.6.1-1.7 5.8-.8 5.1.6"/><path class="st22" d="M249.6 91.1c0-.4 0-.7.3-.9.5.1 1 .1 1.5.2-.1.3-.2.5-.3.8-.5 0-1-.1-1.5-.1"/><path class="st11" d="M251.1 91.2c.1-.3.2-.5.3-.8h.1c0 .4 0 .8.5 1-.3-.1-.6-.1-.9-.2m-1.2-1c-.1.1-.1.2-.2.2.1 0 .1-.1.2-.2m.8 1h.2z"/><path class="st22" d="M219.3 81c.6-1.9 3-.9 4.4-.8 4.5 1 9.7.7 13.7 2.5-.5 1.9-15.5-1.5-18.1-1.7"/><path class="st11" d="m266.2 86.9.6.9c-3-.2-6.3-.5-9.1-1.2 1.6-1.4 2.5-.1 4.4-.3.4.1 1-.3 1.3.4.9.1 1.9.1 2.8.2"/><path class="st9" d="M253.9 85.4c1.2-.2 2.3.5 3.5.2.7.3 0 .6 0 .9-1.5-.1-3-.3-4.5-.3.4-.3.7-.5 1-.8m12.1 2.4h.3c0 .1-.2 0-.3 0"/><path class="st2" d="M213.6 94.1h-.7zm1-1.4c.2 0 .3 0 .5.1-.2 0-.4-.1-.5-.1m.3 1.1c-.1 0-.3.1-.4.1.1 0 .2 0 .4-.1"/><path class="st26" d="M200 92h-.3zm11.8 2c-.1 0-.2 0-.3-.1.1 0 .2 0 .3.1m-10.1-1.7c-.1 0-.2 0-.3-.1.1.1.2.1.3.1m4.1.6h-.4zm.6.2h-.1c0-.1 0 0 .1 0"/><path class="st9" d="M224.7 101.2c-.7 0-1.3-.2-1.9-.3 0-1.1 2.5-.8 2.8-.5 1.2.2 2.2.3 3.2.4-.3 2-2.8.2-4.1.4m4.4.7c-.2-1.5 1.5-.9 2.3-.8 1.5 1.1-1.8.8-2.3.8"/><path class="st10" d="M183.7 111.5c.7.1 1.4.3 2 .4.7.9-1.6 1-2-.4"/></svg>