<?xml version="1.0" encoding="utf-8"?>
<!-- Generator: Adobe Illustrator 26.0.1, SVG Export Plug-In . SVG Version: 6.00 Build 0)  -->
<svg version="1.1" id="Layer_1" xmlns="http://www.w3.org/2000/svg" xmlns:xlink="http://www.w3.org/1999/xlink" x="0px" y="0px"
	 viewBox="0 0 400 300" width="400" height="300" style="enable-background:new 0 0 400 300;" xml:space="preserve">
<style type="text/css">
	.st0{fill:#1A1825;}
	.st1{fill:#FBFCFC;}
	.st2{fill:#3353AF;}
	.st3{fill:#FBFBFB;}
	.st4{fill:#FDFDFD;}
	.st5{fill:#4471BD;}
	.st6{fill:#FAFBFB;}
	.st7{fill:#FAFAFA;}
	.st8{fill:#E5E5E8;}
	.st9{fill:#F9F9FA;}
	.st10{fill:#F7F8F8;}
	.st11{fill:#BFBEC0;}
	.st12{fill:#D7D5D6;}
	.st13{fill:#9F9FA0;}
	.st14{fill:#6E6E70;}
	.st15{fill:#111212;}
	.st16{fill:#1E1F1F;}
	.st17{fill:#191919;}
	.st18{fill:#1D1D1D;}
	.st19{fill:#132666;}
	.st20{fill:#3A4B96;}
	.st21{fill:#272727;}
	.st22{fill:#FCFCFC;}
	.st23{fill:#F6F7F7;}
	.st24{fill:#B9B8BB;}
	.st25{fill:#3051AE;}
	.st26{fill:#FEFEFE;}
</style>
<path class="st0" d="M269.6,237.9c1.9,11,3.5,21.9,5.7,32.8c0.2,0.8-0.3,2.2,1,2.2c8.3,0.8,15.7-3,18.7,6.9h1.5v1.1H188v-0.8
	c1.6-1.5,2.1-3.5,3.4-5.2c1.1-1.5,2.8-2,4.7-2h10.7c0.7,0,1.2-0.6,1.2-1.3c0-0.2,0-0.3-0.1-0.5c1.3-8.1,3.1-16.3,4.4-24.5
	c0.4-2.5,0.9-5,1.3-7.6c0.5-1.7-0.6-1.6-2-1.6c-28.3,0-56.7,0.3-85,0.1c-6.5,0.2-10.6-6.8-10.1-13c0.1-37.2,0-74.4,0.1-111.6
	c0-0.6-0.2-0.9-0.7-1.1c-2.5-1.2-4.9-2.4-7.4-3.7c-1.1,1.2-2.3,0.7-3.5,0c-2.7-1.5-5.4-3.1-8.2-4.6c0.3,13,1.8,26.2,0.7,39.1
	c4.5,24.2,4.8,49,4.5,73.6c-0.1,8.7-0.5,17.4-1,26.1c-0.1,2.6-0.3,5.1-0.5,7.7c-0.1,1-0.6,1.6-1.7,1.7c-0.7,0-0.9,0.3-0.9,0.9
	c0,1.1-0.1,2.2-0.1,3.3c0,0.3,0.1,0.7,0.3,0.9c1.9,1.5,3.8,3,5.9,4.4c3.3,2.2,7.6,1.4,11.3,2.2c3.9,0.5,4.1,4.6,4.3,7.8H57.2
	c0.3-3-0.1-6,1.2-8.8c1.5-3.2,1.8-6.6,2.3-10c0-0.2,0-0.4-0.2-0.5c-1.5-1.7-2.4-3.9-2.4-6.1c-0.3-21.4,0.3-42.8-0.6-64.2
	C57,168.3,56.7,155.1,58,142c-0.2-1.7-0.4-3.4-0.3-5c0-0.4,0.4-0.7,0.8-1.2c-8-6.8-17-12.9-22.6-22c-3-5.3,0.7-11.5,4.4-15.5
	c-0.4-0.9-1.7-1.9-0.9-2.9c1.4-2.1,2.8-4.2,4.3-6.1c5.9-6.7,11.1-15.7,20.1-18.4c2.1-1,9.2-2.1,10-3.8c2.4-6.2,0-3.3-1.4-8.3
	c-0.6-2.5-1.2-5-1.7-7.5c-0.9-4.5,3.4-8.7,7.9-7.6c6.3,1.8,10.2,3.2,13.2-4c0.7-1.3,1.8-1.9,3.3-1.7c4.6,0.7,3.8,7.1,1.6,9.9
	c-2.6,4-7,3-6.9,4.3c0,1.8-0.1,3.6,0.1,5.3c0,0.5,0.5,1,0.9,1.4c1.9,2-1.4,1.7-0.6,3.4c1.9,4.2-1.7,5.5-5.3,4.7
	c-1.1-0.2-1,1.3-1.4,2c-0.3,1.1-0.1,1.7,1.1,2c3.9,1.4,8.3,1.9,11.7,4.6c6.7,5.7,13.7,10.6,20.3,16.3c0-7.3,0-14.5,0-21.8
	c0-5,3.7-9.3,8.9-9.3c3.8-0.1,7.5-0.1,11.3,0c0.9,0,1.1-0.3,1.1-1.1c0-10.6,0-21.3,0-31.9c0-4.6,3.5-8,7.6-8.5c63-0.7,126,0,189-0.3
	c4.5-0.5,8.6,2.6,9.2,7.2c0.5,11.2,0.1,22.4,0.2,33.6c0,0.8,0.3,1,1.1,1c4.1,0,8.1,0,12.2,0c4.7,0.1,8.1,3.9,8.3,8.2
	c0.2,7.5,0.2,14.9,0.2,22.4c0,43.4,0.1,86.8-0.1,130.2c0.5,6.2-1.5,13.3-7.9,15.4C328.2,238.9,298.8,236.8,269.6,237.9 M81.4,174.8
	c2.6-9.8,4-20.1,4-30.2H85c-0.2,10.5-2.1,21-4.2,31.3L81,176L81.4,174.8z M86.3,187.8c2.4,17.6,2.5,35.5,3.4,53.2
	c0,1,0.2,2.1,0.3,3.1c0,0.6,0.4,0.7,0.9,0.6c-0.7-20.5-1.6-41.2-4.8-61.5l-0.3,0C86,184.8,86.2,186.3,86.3,187.8L86.3,187.8z
	 M94,143.3c-0.1-0.7-0.3-1.3-0.4-2l-0.2,0c0,3,0.6,6,1,9c0.3,1.6,1.4,3.2,3.3,3.1c0.1,0,0.3-0.2,0.3-0.4c0-0.1-0.1-0.2-0.2-0.3
	c-1.5-0.6-2.1-1.8-2.5-3.3C94.8,147.4,94.4,145.3,94,143.3L94,143.3z M78.5,61.1c0-1.6-0.1-3.3-0.1-5.1l-1.2,0.9
	c-0.1-1.2,0.5-2-0.5-2.9c-0.2,0.3-0.7,0.6-0.6,0.8c0.1,0.6,0.2,1.3,0.6,1.8c1,1.3,1,2.7,0.8,4.1c-1.7,0.3-1.7,2.1-2,3.4
	c-0.4,1.3-0.7,2.8-1.4,4c-0.9,1.3-0.1,2.5,0.5,3.7c2.6,5.1,10.4,4,8.4-0.8c-0.6-1.3,0-2.9,0.5-4.2C80.9,65.7,78.4,64.5,78.5,61.1
	L78.5,61.1z M74,146c-0.1-0.8-0.1-1.6-0.2-2.4l-0.2,0c-0.2,4.6-1.1,10.4-6.1,11.9c-0.8-4.5,0.4-9.1-0.2-13.6l-0.2,0
	c-1.7,28.6-2.3,57.2-3.5,85.8c-0.1,3.8-0.3,7.6-0.4,11.3c0.1,1.7-0.6,4.5,0.4,5.9c0.1-0.3,0.4-0.6,0.4-0.9
	c0.4-7.5,0.5-14.9,0.8-22.4c0.9-21.3,1.5-42.6,2.3-63.9c0-0.5,0.2-0.6,0.6-0.8C72,155.2,74.4,150.5,74,146L74,146z M144.9,92.7v0.7
	c-2.8,2.3-4.7,5.7-7,8.2c1.8,24.8,0,50.6,0.6,75.8c0,6,0,12,0,18.1c0,0.7,0.2,0.9,0.9,0.9c67.7,0,135.3,0,203-0.1V87.8H225.1v78.9
	h109.4V94h-103c0,21.2,0.1,42.3,0.1,63.4c0,0.6,0,0.9,0.8,0.9c27.6-0.1,55.2,0.1,82.7-0.1c0.4,0,0.9-0.1,0.9,0.6
	c-28.1,0.4-56.3,0-84.4,0.2c-0.5,0-0.8,0-0.8-0.7c0-21.7,0-43.5,0-65.2c34.4,0,68.9,0,103.3,0c1.2,0,1.2,0,1.2,1.1
	c0.1,24.4,0.1,48.7,0,73.1c-36.6,0.3-73.2,0.1-109.7,0.2c-1.2,0-1.4-0.2-1.4-1.4c0-8.5,0-17,0-25.5c0-17.5,0-35.1,0-52.6
	c0-1.1,0-1.1,1.1-1.1H287c18.3,0,36.5,0,54.8,0c0.8,0,0.8-0.4,0.8-0.9c0.2-17.3-0.3-34.7,0-51.9c0.1-5.9,1-13.5-7-14l-145.1,0
	c-14.4,0-28.8,0-43.2,0c-2.2,0-4.3,0.5-6.1,2c-2,1.7-2.7,3.9-2.7,6.5c0.1,20.2-0.2,40.4,0.1,60.5c3.5-0.7,4.6-4.7,6.3-7.4
	c0,0.4,0.1,0.8,0.1,1.2c-1.2,2.4-2.1,5.1-4.7,6.4c-5.8,3.1-11.5,6.2-17.2,9.3c-0.9,0.7-4.8-2.9-6-3.5c-0.8,5.3-3.6,9.3-7.6,12.5
	c3.6,2,12.3,7.6,15.8,4.7c7-5.5,12.5-12.6,18.5-19.2C144.1,92.8,144.6,92.8,144.9,92.7 M137.6,102.4c-4.3,3.6-7.8,8.1-12.6,11
	c-0.2,0.1-0.4,0.5-0.4,0.8c0,18.8,0,37.6,0,56.4c0,11.8,0,23.6,0,35.4c0,0.7,0.2,0.9,0.9,0.9c7.2,0,14.4,0,21.7,0
	c69.8,0,139.6,0,209.4,0c0.8,0,1.1-0.2,1-1c-0.1-0.9-0.1-1.7-0.1-2.6c0-44.3,0-88.6,0-133c0-1.1,0-1.2-1.2-1.2
	C352.1,69,348,69,343.7,69v128.1h-206L137.6,102.4z M117.5,215.8c-0.1,8.1-1.9,20.7,9.7,21c72.4-0.2,144.7,0.1,217.1-0.1
	c4.3-0.2,8.8,0.7,13-0.4c8.6-3.2,6.6-13.1,6.8-20.4H117.5z M61.6,128.5c1-0.8,3.6-5.4,4.2-2.4c0.1,1.6-0.1,2.2,1.7,2.7
	c3,1,6,2.2,8.9,3.3c0.9,0.4,1,0.8,0.2,1.5c-1.1,1.1-2.3,2.1-3.3,3.2c-0.7,0.8-1.5,1-2.5,1.1c-3.5-0.2-7.6,1.6-10.6-0.9
	c-0.4-0.3-0.9-0.6-1.3-0.9c-0.6,1-0.7,1.3-0.7,3c0,0.8,0.3,1,1.1,1c2.1-0.1,4.3-0.1,6.4-0.1c9.9,0,19.8,0,29.6-0.1
	c1.2,0,1.6-0.2,1.7-1.4c0.5-8.2-0.3-16.4-0.6-24.5C96,104,95.3,93.8,94.1,83.9l0.2,0c1.7,5.7,1.5,11.7,2.2,17.5
	c0.1,0.7,0.3,1.2,0.8,1.6c2.1,1.2,8.6,6.4,10.6,4.8c4.6-3.3,8-7.8,8.5-13.6c0.3-2.4-3.3-3.7-4.8-5.1c-6.3-4.7-12.2-10.2-18.9-14.3
	c-2.6-1.1-5.7-2-8.4-2.8c-0.9,3.3-3.1,5-6.4,3.8c-3.1-0.9-4.6-3.8-5.4-6.7c-3.5,0.8-6.8,2.1-10.3,3.2c-2.3,0.8-4.4,2-6,3.8
	C50.5,82,45.4,88.4,40.5,95c-0.8,1.1-0.8,1.2,0,2.3c3.1,4.2,7.2,7.3,12,9.3c0.6,0.2,0.9,0.1,1.3-0.4c1-1.2,2-2.4,3-3.6
	c6.2-7.2,6.9-12.6,6.5-21.8c1.4,5.2,0.8,11-0.5,16.2c-0.8,3.3-2.5,6.1-4.3,8.9c-0.2,0.4-0.3,0.8-0.3,1.2
	C59.1,114.4,60.5,121.3,61.6,128.5 M86.9,264.4c0.6-4.1,0.8-8.1,1.2-12.2c0-0.2-0.1-0.6-0.3-0.7c-2.1-1.5-1.5-5.3-1.9-7.7
	c-0.6-9.2-1.4-18.4-2.2-27.6c-1-9.8-1.5-19.7-3.2-29.5h-0.2c-3.8,17.3-5.1,35.2-6.6,52.9c-0.2,3.2-0.5,6.5-0.7,9.7
	c0,2-1,2.5-2.8,2.6c0,1.2-1.1,4.8-0.4,5.4c2.1,1.6,4.2,3.3,6.4,4.7C79.5,264.3,83.5,262.5,86.9,264.4L86.9,264.4z M294.1,279.8
	c-0.7-2.6-2.6-5.8-5.6-5.7c-4.3,0.3-8.7-0.4-13,0.3c-26.8-0.2-53.7-0.2-80.5-0.3c-3,0.1-4.4,3.3-5.5,5.7L294.1,279.8z M72.8,136.2
	c-2.3-0.6-4.6-0.8-7-1.3c-0.2,0-0.4-0.3-0.6-0.5c1.4-0.5,3.4,0.5,5,0.6c1.6,0.2,3.3,0.7,4.8-0.2c-0.5-0.4-1-1-1.6-1.1
	c-2.7-0.7-5.5-1.2-8.2-2c0-0.1,0-0.2,0-0.3c3.3-0.4,6.4,1.3,9.5,2.1c0.5,0.2,1.1,0.3,1.6-0.5c-3.2-1.7-6.6-2.5-10-3.7
	c-1.5-0.3-1.1-2-1.4-3.2l-0.3-0.3c-0.7,1.1-1.5,2.1-2.4,3.1c-0.5,0.6-0.8,0.6-1.3-0.1c-2-2.8-4.1-5.5-6.1-8.3
	c-1.8-2.4-3.6-4.8-5.4-7.2c-1.9-2.2,1.1-4.3,2.1-6.3c-4-1.8-7.5-4.2-10.3-7.6c-0.4-0.5-0.6-0.5-1,0c-2.7,3.4-6.3,8.7-4.1,13.1
	c5.7,9.9,15.4,16.2,23.8,23.5c1.4,1.2,2.8,1.7,4.7,1.5c2.1-0.2,4.3-0.3,6.4-0.3C71.9,137.2,72.4,137,72.8,136.2 M124.5,96.8
	c4-2.5,8.5-4.5,12.7-6.8c0.2-0.2,0.4-0.4,0.4-0.7c0-6.6,0-13.1,0-19.7c0-0.6-0.2-0.7-0.7-0.7c-4.2,0.1-8.2-0.1-12.4,0.2L124.5,96.8z
	 M56.8,104.3l-0.3,0c-1.1,1.1-2.1,3.2-3.7,3.3c-1.1,0-2.1,2.5-2.9,3.3c-0.9,1.2,0.6,2.4,1.2,3.4c3,4.1,6.3,8,9.2,12.1
	C59.2,119,58.2,111.6,56.8,104.3 M89,59.1c0-2.2,0-4.4,0-6.5c0-1.2,0-1.2-1.1-1.2c-2.4-0.1-4.8-0.7-7-1.8c-0.9-0.4-1.2-0.4-1.6,0.6
	c-0.6,1.4-0.8,2.8-0.1,4.3c0.7,1.5,1.2,3,2.6,3.9c1,0.6,1.9,1.2,2.9,1.8C86,61,86.5,58.6,89,59.1 M88.8,251.9
	c-0.2,2.8-0.4,5.6-0.6,8.6c1.8,0.1,3.6,0.3,5.3,0.3c3.6-0.4,3.8-6.2,3.5-8.9H88.8z M69.4,252.4c-2.4-0.5-5-0.2-7.5-0.4
	c-0.2,0-0.4,0.4-0.5,0.6c-0.4,2.4-0.8,4.9-1.2,7.3c-0.1,0.5,0.1,0.7,0.5,0.7c1.3,0.1,2.5,0.2,3.8,0.4
	C69.1,261.3,68.9,255.5,69.4,252.4 M270,245l-0.3-0.1c-8.2,6.7-10.9,17.7-11.4,27.9c0,0.6,0.3,0.7,0.7,0.7
	c5.2-0.1,10.4,0.2,15.7-0.1L270,245z M116,268.8c-7.2,0-14.3-0.1-21.5-0.2c-0.8,0-0.6,0.6-0.6,1.1c-0.1,0.5,0.3,0.6,0.7,0.6
	c1.4,0,2.8-0.1,4.2-0.1c5.3,0,10.6,0,15.9,0C115.5,270.2,115.9,269.8,116,268.8 M85,270.4l0.1-0.3c-6.6-1-13.5-0.7-20.1-1.3
	c-0.7,0-0.8,0.4-0.8,0.9c0,0.6,0.3,0.6,0.8,0.6C71.6,270.3,78.3,270.4,85,270.4 M88.8,60.7c-0.8-1.1-2.3-0.2-2.6,0.8
	c0,0.5,0.8,1.1,1.4,1.1C88.1,62.6,88.8,61.7,88.8,60.7"/>
<path class="st1" d="M342.4,44.5c0.4,13.8,0,27.6,0.1,41.5c0,0.6,0,0.9-0.8,0.9c-38.8,0-77.7,0-116.5,0c-1.1,0-1.1,0-1.1,1.1
	c0,26,0,52.1,0,78.1c0,1.2,0.2,1.4,1.4,1.4c36.6-0.1,73.2,0.2,109.7-0.2c0-24.4,0-48.7,0-73.1c0-1.1,0-1.1-1.2-1.1
	c-34.4,0-68.9,0-103.3,0c0,21.7,0,43.5,0,65.2c0,0.7,0.3,0.7,0.8,0.7c28.1-0.1,56.3,0.2,84.4-0.2c-0.1-0.7-0.5-0.6-0.9-0.6
	c-27.6,0.2-55.2,0-82.7,0.1c-0.8,0-0.8-0.3-0.8-0.9c0-21.1,0-42.3-0.1-63.4h103v72.7H225.1V87.8h117.5v108.4
	c-41.8,0-83.7,0.1-125.5,0c-0.1-50,0-100.1,0-150.1c0-1.7-0.4-1.5,1.6-1.5C259.9,44.6,301.1,44.6,342.4,44.5 M224.2,65.5
	c0,5,0,10,0,15.1c13.2-0.4,26.8,0.7,39.8-0.4c-12.7-1.1-26.1,0-39-0.4c-0.3-4.2-0.1-8.4-0.2-12.6c0.1-4.3-0.3-8.7,0.2-12.9h109.5
	c0,8.2,0,16.4,0,24.6c0,0.8-0.2,1-1,1c-13.9,0.3-28.2-0.7-41.9,0.4c14,1.1,28.6,0,42.8,0.4c0.5,0,0.8,0,0.8-0.7c0-8.6,0-17.1,0-25.7
	c-35.2-2.4-73.5,0-109.7-0.8c-1.7-0.1-1.4,0.4-1.4,1.8C224.2,58.6,224.2,62,224.2,65.5 M238.9,104.6c-1,14.1-0.1,28.5-0.3,42.7
	c0,1.9,1.8,2.7,3.5,2.6c11.6,0,23.1,0,34.7,0c2.3,0,3-0.6,3-2.9c0-13.7,0-27.5,0-41.2c0-1.7-0.8-2.6-2.5-2.6c-11.9,0-23.8,0-35.7,0
	C240.4,103.1,239.6,103.7,238.9,104.6L238.9,104.6z M224.2,175c0,5,0,10,0,14.9c31.4,2.4,66.7,0,99.4,0.8c3.6,0,7.2,0,10.8,0
	c0.4,0,0.8,0.1,0.8-0.6c0-5.3,0-10.7,0-16c0-0.6-0.2-0.8-0.8-0.8c-1.7,0-3.4,0-5,0c-35,0.4-70.3-0.7-105.1,0.4
	C224.2,174.1,224.2,174.6,224.2,175L224.2,175z M330.1,128c0-7.1,0-14.2,0-21.2c0-2.6-1.1-3.7-3.7-3.7c-12.3,0-24.7,0-37,0
	c-1.9,0-3,1-3.1,2.9c-0.1,13.4,0,26.9,0,40.3c0,2.6-0.4,6.6,3.3,6.5c12.5-0.1,25-0.1,37.5-0.1c1.9,0,2.9-1,3-2.9
	C330.1,142.5,330.1,135.3,330.1,128L330.1,128z M232.5,62.4c0,1.1,0.7,0.8,1.2,0.8c30.2-0.4,61,0.9,90.9-0.4
	C294.2,61.7,263.1,62.8,232.5,62.4 M232.2,71.5h86.2c0.5,0,0.8-0.1,0.5-0.8c-28.7,0-57.4,0-86.1,0C232.3,70.7,232,70.8,232.2,71.5
	 M318.4,159.9c-0.9,0.8-0.6,0.7,0,1.4C319.1,160.8,318.9,160.6,318.4,159.9 M328.2,160.9c-0.3-0.2-0.5-0.5-0.7-0.4
	c-0.8,0.4-0.4,0.7,0.1,1.1C327.7,161.4,327.9,161.2,328.2,160.9 M324.8,160.9c-0.7-0.6-0.8-0.3-1.3,0.1
	C324,161.7,324.1,161.5,324.8,160.9 M331.5,160.9c-0.3-0.2-0.5-0.4-0.7-0.5c-0.6,0.3-0.4,0.7,0,1.1L331.5,160.9z M321.8,160.9
	c-0.5-0.6-0.7-0.6-1.1-0.1C321.1,161.4,321.1,161.5,321.8,160.9L321.8,160.9z"/>
<path class="st2" d="M342.4,44.5c-41.3,0-82.6,0.1-123.9,0.1c-1.9,0-1.6-0.2-1.6,1.5c0,50-0.1,100.1,0,150.1
	c-22.9,0.1-46.1,0.2-69-0.1c0.4-34.1,0.3-68.4,0-102.5l-3.2-0.3v-0.7c2.2,0.1,4.5,0.5,6.4-0.8c1.5-1,3-2.3,4.5-3.4
	c0.1-0.1,0.1-0.2,0.3-0.5c-1.4,0.1-2.1,1.1-3.3,1.5c0-2.3,5.6-3.3,7.1-5.1l-0.2-0.2c-3.1,0.6-6,1.9-9,3.2c0.3-1.3,2.5-2,3.5-2.8
	c2-1.3,4.4-2,6.3-3.6l-0.2-0.3c-3.8,1.1-7.7,2.1-11.2,4.1l-0.2-0.3c2.6-2.4,6-3.6,8.8-5.8l-0.2-0.3c-3.4,1.3-6.8,2.5-10,4.4
	c-0.5-0.6,0-0.9,0.4-1.2c1.1-0.7,2.2-1.5,3.3-2.2l-0.1-0.3c-0.8-0.1-1.4,0.3-2.1,0.4c-2,0.2-3.2,1.6-4.1,3.3c-0.4-1.8,1-3.2,2.5-4
	c1.8-13.4,0-28.3,0.6-42.2c0-1.9,0-1.9,1.9-1.9c64.1,0.1,128.3,0,192.4,0.1L342.4,44.5z M169.4,190.3c-1.1,0-2.1,0.4-1.8,1.9
	c0.1,0.6,0.6,0.4,1,0.4c3,0,6,0,9.1,0c0.6,0,0.9-0.1,0.9-0.8c0.3-1.9-1-1.5-2.4-1.6c-2-0.4-4.1-0.1-6.2-0.1
	C169.8,190.2,169.6,190.2,169.4,190.3 M188.4,55.7c0-2.4,0-4.8,0-7.2c0-0.4,0.1-0.9-0.6-0.9c-4.7,0-9.4,0-14.1,0
	c-0.4,0-0.6,0.1-0.6,0.6c0,4.8,0,9.7,0,14.5c-0.1,2.2,1.4,2.6,3,2.6c3.6,0,7.3-0.1,10.9-0.2c0.8,0,1.3-0.4,1.3-1.2
	c0.1-0.2,0.1-0.4,0.1-0.5C188.5,60.9,188.8,58.2,188.4,55.7 M180.6,95.1L180.6,95.1c1.7,0,3.4,0,5,0c2.4,0,2.3,0.4,2.4-2.4
	c0.3-5.9,0.6-11.8,1.2-17.6c0.1-0.6-0.1-0.8-0.7-0.9c-1.1,0-2.5-0.8-3.5-0.1c-2.2,2.8-6.8,2.4-8.8,0c-0.8-0.8-2.9,0.2-4,0.3
	c-0.4,0.1-0.6,0.3-0.6,0.8c0.4,4.8,0.8,9.7,1.2,14.5C173.5,97,171.9,94.8,180.6,95.1 M182.9,117.1c0.6,10,1.2,20.5,1.8,30.6
	c0.4,2.2-0.5,5.7,2.6,6c2.4,0.2,3.1-1.6,3-3.5c0.1-13,0.6-26-0.8-38.9c-1,1.2-1.8,2.5-2.8,3.4C185.7,115.7,184.3,116.3,182.9,117.1
	 M171.6,111.5l-0.2,0c-1.3,13.2-0.9,26.5-0.8,39.7c0,1.4,0.6,2.3,1.7,2.6c2,0.6,3.3-0.5,3.5-2.7c0.4-5.7,0.8-11.3,1.2-17
	c0.4-5.5,0.7-10.9,1.1-16.4c0-0.7-0.2-0.9-0.7-1.1C174.7,115.8,172.9,113.9,171.6,111.5 M180.6,102.3L180.6,102.3l-6.6,0
	c-0.4,0-0.8,0-0.9,0.6c-0.3,2.7-1.6,5.6-0.6,8.2c3.3,8.1,16.7,6.1,16.7-2.8c-0.4-1.8-0.8-3.6-1.1-5.4c-0.1-0.5-0.4-0.6-0.9-0.6
	C184.9,102.3,182.7,102.3,180.6,102.3 M185.1,153.6c0.2,11,0.6,21.9,0.9,32.9c0,1.5,2.2,0.7,3.2,0.8c0.5,0,0.7-0.3,0.7-0.8
	c0.1-11,0.3-21.9,0.2-33C188.4,155.2,186.8,154.8,185.1,153.6L185.1,153.6z M170.9,154.1c-0.2,10.7,0.2,21.5,0.3,32.3
	c0,1.6,1.9,0.8,2.9,1c0.8,0.1,1-0.3,1-1c0.3-10.9,0.3-21.7,0.7-32.5C174.1,155,172.5,155.4,170.9,154.1L170.9,154.1z M198.9,95.1
	c0-1.5-7.4-24.4-8.9-19.4c-0.1,2.6-0.7,5.4-0.5,8c1.1,1.1,1.6,2.6,2,4.1C194.7,96.6,191.7,96.1,198.9,95.1 M162.5,95.5l4,0.5
	c1.1,0.1,1.2,0,1.4-1.1c0.7-3.6,1.8-7.1,3.3-10.5c0.3-0.7,0.4-1.4,0.4-2.1c-0.1-2.2-0.3-4.5-0.5-6.7c0-0.7-0.4-0.8-0.9-0.4
	C165.8,81,164.5,88.7,162.5,95.5 M199,95.8c-1.5,0.2-2.8,0.4-4.1,0.6c-0.7,0.1-0.8,0.3-0.8,0.9c0.3,5.5,0.6,10.9,0.9,16.4
	c0.1,2,0.3,2,2.3,1.8c0.9-0.1,1.5-0.4,1.4-1.4C198.9,107.9,198.9,101.9,199,95.8 M167.3,98.7c-0.2-0.9,0.3-1.8-0.8-2
	c-1-0.2-2.1-0.3-3.2-0.4c-0.6-0.1-0.8,0.2-0.8,0.8c0,2.2-0.1,4.4,0,6.6c0,3.3,0.1,6.5,0.2,9.8c0.1,2,0,1.8,2.2,2
	c0.9,0.1,1.2-0.2,1.2-1.1C166.5,109.1,166.9,103.8,167.3,98.7 M187.6,96.1h-14.1c0.4,5.7-1.6,5.3,3.7,5.2h9.6c0.4,0,0.8,0.1,0.8-0.5
	C187.6,99.2,187.6,97.7,187.6,96.1L187.6,96.1z M183,66.1h-3.5c-1.2,0-1.1,0-1.2,1.2c-0.1,1.9,0,3.9-1.2,5.7c0.1,2.7,5.4,2.7,6.9,1
	c0.4-0.4,0.6-0.7,0.2-1.3C183.1,70.8,183.4,68.4,183,66.1 M162.8,116.3c-0.6,4.6-2.5,10.4,3.6,11.9c0.1,0,0.3-0.1,0.7-0.2
	c-1.9-1.6-3.8-3.4-2.9-6c0.1-0.4,0.6-0.9,1-1c0.4-0.1,0.9,0.4,1.2,0.7c0.4,0.9,0.5,2.2,1.2,3.1c0.4,0.5,0.8,0,1.1-0.3
	c0.6-0.7-0.6-1.1-1-1.6l0.3-0.1c1.1-2.1,0.1-4.3-1.1-6.1C165.6,116,164.1,116.5,162.8,116.3 M194.6,127.8c0.1,0.1,0.1,0.2,0.2,0.3
	c6.6-1.8,4.6-7,3.7-12c-1,0.2-3.2-0.1-4,0.6c-0.9,1.8-1.9,3.5-1.1,5.7c0.2,0.4,0.3,0.9-0.4,1.1c-0.4,0.2-0.1,1.1,0.1,1.1
	c0.3,0,0.9-0.1,1-0.3c0.5-1.3,0.7-4.6,2.8-3C198.8,123.8,196.3,126.3,194.6,127.8 M188.3,192.6c1.3-0.2,4.7,0.4,5.5-0.3
	c0.3-0.7,0-1.6-0.7-1.9c-0.2-0.1-0.3-0.1-0.5-0.1c-2.9-0.1-5.9,0-8.8,0c-0.8,0-1,0.5-1,1.7c0,0.8,0.6,0.6,1,0.6
	C185.3,192.6,186.8,192.6,188.3,192.6 M189.3,54c0,2.3,0,4.6,0,6.9c0,0.3,0.2,0.5,0.3,0.8c0.5-0.3,1.3-0.4,1.1-1.2v-5.2
	C190.7,54.2,190.5,54.1,189.3,54 M172.4,57.9L172.4,57.9c-0.1-1.3,0.4-2.8-0.5-3.8c-0.3,0.2-1,0.5-1,0.7c-0.1,2.1-0.1,4.1,0,6.2
	c0,0.3,0.6,0.5,1,0.8C172.8,60.6,172.3,59.2,172.4,57.9 M193.2,189.4c-1.7-2.2-4.4-0.8-6.7-1.2c-1.2-0.2-1.8,0.4-2.6,1.2H193.2z
	 M177.8,189.4c-1.9-1.9-4.4-1-6.7-1.3c-1,0-1.7,0.4-2.2,1.3H177.8z"/>
<path class="st3" d="M137.6,102.4v94.8h206V69c4.4,0,8.5,0,12.8,0.1c1.2,0,1.2,0.1,1.2,1.2c0.1,45.2-0.1,90.4,0.1,135.6
	c0.1,0.9-0.3,1-1,1c-69.8,0-139.6,0-209.4,0c-7.2,0-14.4,0-21.7,0c-0.7,0-0.9-0.2-0.9-0.9c0-11.8,0-23.6,0-35.4
	c0-18.8,0-37.6,0-56.4c0-0.3,0.2-0.7,0.4-0.8C129.9,110.5,133.4,106,137.6,102.4"/>
<path class="st4" d="M117.5,215.8h246.6c-0.1,7.2,1.8,17.3-6.8,20.4c-4.2,1.1-8.7,0.2-13,0.4c-72.4,0.2-144.7,0-217.1,0.1
	C115.7,236.6,117.4,223.9,117.5,215.8 M239.6,221.7c-5.6,0.4-5.5,8-0.3,8.5C244.4,230,244.9,222.2,239.6,221.7"/>
<path class="st1" d="M342.4,34.9c-64.1-0.1-128.3,0-192.4-0.1c-1.9,0-1.9,0-1.9,1.9v41.2c-0.1,1.5-2.4,1.3-3.2,3.9
	c-1.7,2.7-2.7,6.7-6.3,7.4c-0.3-20.2,0-40.4-0.1-60.5c0-2.6,0.6-4.8,2.7-6.5c1.8-1.4,3.8-2,6.1-2c48.8-0.1,97.6-0.1,146.3,0
	c14,0,28,0,42,0c3.9,0,7,3.2,7,7.2C342.5,29.8,342.9,32.4,342.4,34.9 M239.7,31l0.2,0.3h9.7c0.6,0,0.7-0.3,0.5-0.8
	c-3.3-0.2-6.6,0-9.9,0C240.1,30.5,239.9,30.8,239.7,31 M322.8,29c2.5,0,2.5-2.9,0.2-3C320.7,26,320.5,28.9,322.8,29 M328.3,29
	c2.5,0,2.6-2.9,0.1-3.1C326.1,26.1,326,28.9,328.3,29 M312.1,29c2.4,0,2.5-2.8,0.2-3C310,26.1,309.8,28.8,312.1,29 M317.5,29
	c2.4-0.1,2.4-3,0-3C315.3,26.1,315.2,29,317.5,29 M306.7,29.1c2.4,0,2.5-2.9,0.1-3C304.6,26.1,304.5,28.9,306.7,29.1L306.7,29.1z
	 M175.2,26c-2.4,0-2.2,2.9,0,3C177.6,29,177.5,26.1,175.2,26L175.2,26z M169.8,29c2.4,0.1,2.4-3,0.1-3C167.6,26,167.7,29,169.8,29
	 M164.5,29c2.4,0.1,2.3-3,0-3C162.3,26,162.5,29.1,164.5,29 M159.2,29c2.4,0,2.3-2.9,0.1-3C157.1,26,157.1,29,159.2,29L159.2,29z
	 M154.1,29c2.2,0,2.3-3,0.1-3C151.9,26,152,29,154.1,29L154.1,29z M333.7,26c-2.1-0.1-2.1,3-0.1,2.9C335.9,28.9,336,26.1,333.7,26
	 M301.6,26.1c-2.2-0.1-2.2,2.8-0.1,2.9C303.7,29,303.9,26.2,301.6,26.1L301.6,26.1z M149.2,28.9c2.1,0,2.1-2.8,0.1-2.9
	C147.2,26,147.1,28.9,149.2,28.9"/>
<path class="st5" d="M61.6,128.5c-1-7.3-2.4-14.1-3.3-21.3c0-0.4,0.1-0.9,0.3-1.2c1.8-2.8,3.5-5.7,4.3-8.9c1.2-5.2,1.9-11,0.5-16.2
	c0.4,9.2-0.3,14.6-6.5,21.8c-1,1.2-2,2.4-3,3.6c-0.4,0.5-0.7,0.6-1.3,0.4c-4.9-2-8.9-5.1-12-9.3c-0.8-1.1-0.9-1.2,0-2.3
	c4.9-6.7,10.1-13.1,15.8-19c1.7-1.8,3.7-3,6-3.8c3.4-1.1,6.7-2.4,10.3-3.2c0.8,2.9,2.3,5.8,5.4,6.7c3.3,1.1,5.5-0.5,6.4-3.8
	c2.7,0.8,5.8,1.7,8.4,2.8c6.7,4.1,12.5,9.7,18.9,14.3c1.5,1.5,5.1,2.8,4.8,5.1c-0.4,4.4-2.4,8.1-5.6,11.2c-1.4,0.9-3,3.4-4.8,2.6
	c-2.1-1.1-9.3-4.2-9.5-6.5c-0.6-5.9-0.5-11.9-2.2-17.5l-0.2,0c1.2,10,1.8,20.1,2.3,30.2c0.3,8.2,1.1,16.4,0.6,24.5
	c-0.1,1.2-0.5,1.4-1.7,1.4c-9.9,0-19.8,0-29.6,0.1c-2.1,0-4.3,0-6.4,0.1c-0.7,0-1.1-0.2-1.1-1c0-1.7,0-2,0.7-3
	c1.9,1.5,3.5,2.6,6.1,2.2c2.4-0.5,6.8,0.4,8.3-1.4c1-1.2,2.2-2.2,3.3-3.2c0.7-0.7,0.7-1.2-0.2-1.5c-3-1.1-5.9-2.2-8.9-3.3
	c-1.7-0.4-1.6-1.1-1.7-2.7C65.2,123.1,62.5,127.8,61.6,128.5"/>
<path class="st1" d="M144.9,93.3l3.2,0.3c0,34.2,0,68.4,0,102.6c-2.9,0-5.7,0-8.6,0.1c-0.7,0-0.9-0.2-0.9-0.9
	c-0.7-31.2,1.1-63-0.7-93.8C140.2,99,142.1,95.6,144.9,93.3"/>
<path class="st3" d="M294.1,279.8H189.5c1.1-2.4,2.5-5.6,5.5-5.7c25.9,0,51.8,0.1,77.7,0.2c0.9,0,1.9,0.3,2.8,0.1
	c2.8-0.6,5.6-0.1,8.4-0.2C289.6,274,291.9,273.3,294.1,279.8"/>
<path class="st6" d="M145,83c0.9-1.7,2.1-3.1,4.1-3.3c0.7-0.1,1.3-0.6,2.1-0.4l0.1,0.3c-1.1,0.7-2.2,1.5-3.3,2.2
	c-0.4,0.3-0.9,0.5-0.4,1.2c3.2-1.9,6.6-3.1,10-4.4l0.2,0.3c-2.8,2.2-6.2,3.4-8.8,5.8l0.2,0.3c3.5-2,7.4-3,11.2-4.1l0.2,0.3
	c-1.7,1.7-9.1,4.2-9.8,6.3c2.9-1.3,5.8-2.6,9-3.2l0.2,0.2c-1.5,1.7-7.1,2.8-7.1,5.1c1.1-0.3,1.9-1.4,3.3-1.5
	c-0.1,0.3-0.2,0.4-0.3,0.5c-1.5,1.2-2.9,2.4-4.5,3.4c-1.9,1.3-4.3,0.9-6.4,0.8c-0.4,0.1-0.8,0.1-1.1,0.4c-6,6.6-11.5,13.7-18.6,19.2
	c-3.6,3-12.2-2.6-15.8-4.7c4-3.3,6.8-7.2,7.6-12.5c1.2,0.6,5.1,4.2,6,3.5c5.7-3.1,11.4-6.2,17.2-9.3C142.9,88,143.7,85.3,145,83"/>
<path class="st7" d="M72.8,136.2c-0.4,0.8-0.9,1-1.8,1c-2.1,0-4.3,0.1-6.4,0.3c-1.8,0.2-3.3-0.3-4.7-1.5
	c-8.4-7.3-18.1-13.7-23.8-23.5c-2.3-4.4,1.4-9.7,4.1-13.1c0.4-0.5,0.6-0.5,1,0c2.8,3.4,6.3,5.8,10.3,7.6c-1,1.9-4,4-2.1,6.3
	c1.8,2.4,3.6,4.8,5.4,7.2c2,2.7,4.1,5.5,6.1,8.3c0.5,0.7,0.7,0.7,1.3,0.1c0.8-1,1.7-2,2.4-3.1l0.3,0.3c0.3,1.2-0.2,2.9,1.4,3.2
	c3.4,1.2,6.8,2,10,3.7c-0.5,0.8-1.1,0.7-1.6,0.5c-3.1-0.8-6.2-2.5-9.5-2.1c0,0.1,0,0.2,0,0.3c2.7,0.8,5.5,1.3,8.2,2
	c0.7,0.2,1.1,0.8,1.6,1.1c-1.5,0.9-3.2,0.4-4.8,0.2c-1.6-0.1-3.6-1.1-5-0.6c0.2,0.2,0.4,0.4,0.6,0.5
	C68.2,135.4,70.6,135.6,72.8,136.2 M124.5,96.8V69.1c4.2-0.3,8.2-0.1,12.4-0.2c0.5,0,0.7,0.2,0.7,0.7c0,6.6,0,13.1,0,19.7
	c0,0.3-0.2,0.5-0.4,0.7C133,92.3,128.6,94.2,124.5,96.8"/>
<path class="st8" d="M74,146c0.4,4.6-2,9.2-6.3,11.1c-0.4,0.2-0.6,0.4-0.6,0.8c-0.8,21.3-1.5,42.6-2.3,63.9
	c-0.3,7.5-0.4,14.9-0.8,22.4c0,0.3-0.3,0.6-0.4,0.9c-1-1.3-0.3-4.2-0.4-5.9c0.1-3.8,0.2-7.5,0.4-11.3c1.3-28.6,1.8-57.3,3.5-85.8
	l0.2,0c0.6,4.5-0.6,9.1,0.2,13.6c4.3-1.3,5.8-6,6-10L74,146z"/>
<path class="st9" d="M78.5,61.1c-0.1,3.4,2.4,4.6,5,5.7c-0.6,1.3-1.2,2.9-0.5,4.2c2,4.9-5.8,5.9-8.4,0.8c-0.7-1.2-1.5-2.4-0.5-3.7
	c0.7-1.2,1-2.6,1.4-4c0.3-1.3,0.3-3.1,2-3.4L78.5,61.1z M89,59.1c-2.5-0.5-3,1.8-4.3,1.2c-1-0.6-1.9-1.2-2.9-1.8
	c-1.5-0.9-1.9-2.5-2.6-3.9c-0.7-1.5-0.5-2.9,0.1-4.3c0.4-1,0.7-1.1,1.6-0.6c2.2,1.1,4.6,1.7,7,1.8c1.2,0,1.1,0.1,1.1,1.2
	C88.9,54.7,89,56.9,89,59.1"/>
<path class="st1" d="M88.8,251.9H97c0.4,2.7,0.1,8.5-3.5,8.9c-1.7,0-3.4-0.2-5.3-0.3C88.5,257.5,88.6,254.7,88.8,251.9"/>
<path class="st10" d="M69.4,252.4c-0.5,3.1-0.3,8.9-4.9,8.6c-1.3-0.1-2.5-0.3-3.8-0.4c-0.4,0-0.6-0.2-0.5-0.7
	c0.4-2.4,0.8-4.9,1.2-7.3c0-0.2,0.3-0.6,0.5-0.6C64.4,252.2,67,251.9,69.4,252.4"/>
<path class="st11" d="M270,245l4.7,28.2c-5.2,0.3-10.4,0-15.7,0.1c-0.5,0-0.8,0-0.7-0.7c0.5-10.2,3.2-21.1,11.4-27.9L270,245z
	 M269.9,247.9c-1,0.4-1.6,0.3-2.5-0.1c0,0.4-0.1,1-0.1,1.7c-2,0.1-2.4,2.1-3.4,3.4l0.5,0.7l-0.7,0.1l0.2,0.1
	c-2.2,3.2-3.3,7-3.8,10.7c-0.6,0.9-0.7,1.9-0.6,3c-0.2,1.4-0.6,2.7-0.5,4.2c0,0.6,0.2,0.9,0.8,0.9c2.8,0,5.7,0,8.5,0
	c0.3,0,0.5-0.3,0.9-0.4c2.1-0.5,0.3,0.7,2.7,0.4c0.3-1.1,0.1-3.2,0.8-3.9c0.6-0.2,0.5-0.6,0.4-1c-0.2-1.2-0.4-2.5-0.7-3.7
	c-0.1-0.5-0.4-0.9-0.2-1.5c0.1-0.7,0-1.4-0.4-1.9c-0.7-0.9-0.1-1.8-0.3-2.8C270.8,254.6,270.6,251.1,269.9,247.9 M273.5,269.3
	c0-0.1-0.1-0.2-0.2-0.1C273.4,269.3,273.4,269.4,273.5,269.3"/>
<path class="st8" d="M87.8,195c1.7,16.5,2.7,33.1,3.2,49.7c-0.5,0.1-0.9,0-0.9-0.6c-0.1-1-0.2-2.1-0.3-3.1
	c-0.7-15.6-1.1-31.1-2.6-46.7L87.8,195z M116,268.8c-0.1,1-0.4,1.4-1.3,1.4c-5.3,0-10.6,0-15.9,0c-1.4,0-2.8,0-4.2,0.1
	c-0.4,0-0.8,0-0.7-0.6c0.1-0.4-0.2-1.1,0.6-1.1C101.6,268.7,108.8,268.8,116,268.8 M85,270.4c-6.7,0-13.4-0.1-20.1-0.2
	c-0.4,0-0.8,0-0.8-0.6c0-0.5,0.2-0.9,0.8-0.9c6.7,0.7,13.5,0.4,20.1,1.3L85,270.4z"/>
<path class="st12" d="M85.4,148c-0.4,8.4-1.6,16.8-3.5,25l-0.6,0.2c1.9-8.4,2.9-16.9,3.7-25.5L85.4,148z"/>
<path class="st8" d="M94,143.3c0.4,2.1,0.8,4.2,1.3,6.3c0.3,1.4,1,2.7,2.5,3.3c0.1,0,0.3,0.2,0.2,0.3c-0.2,0.7-1.4,0.3-1.8,0.1
	c-2.6-1.5-2.2-7.7-2.8-10.5L94,143.3z M78.5,61.1l-1-0.4c0.2-1.5,0.2-2.9-0.8-4.1c-0.4-0.5-0.5-1.2-0.6-1.8c0-0.2,0.4-0.5,0.6-0.8
	c1,0.9,0.4,1.7,0.5,2.9l1.2-0.9C78.4,57.8,78.5,59.4,78.5,61.1 M88.8,60.7c0,0.9-0.7,1.8-1.2,1.9c-0.6,0-1.4-0.6-1.4-1.1
	C86.5,60.6,88,59.6,88.8,60.7"/>
<path class="st11" d="M87.8,195l-0.6-0.7c-0.2-1.8-0.4-3.6-0.7-5.4h0.6C87.3,191,87.7,193,87.8,195"/>
<path class="st13" d="M87.1,188.9h-0.6c-0.1-1.1-0.3-2.2-0.4-3.4l0.5,0C86.7,186.7,86.9,187.8,87.1,188.9 M85.4,148l-0.4-0.3v-3h0.4
	V148z M74,146l-0.6-0.5l0.2-1.9l0.2,0C73.8,144.3,73.9,145.1,74,146"/>
<path class="st14" d="M86.6,185.6l-0.5,0c-0.1-0.8-0.1-1.6-0.2-2.3l0.3,0L86.6,185.6z"/>
<path class="st13" d="M94,143.3l-0.6-0.6v-1.3l0.2,0C93.7,141.9,93.9,142.6,94,143.3"/>
<path class="st11" d="M81.3,173.1l0.6-0.2l-0.5,1.9l-0.3-0.3C81.1,174,81.2,173.6,81.3,173.1"/>
<path class="st13" d="M81.1,174.5l0.3,0.3L81,176l-0.3-0.1L81.1,174.5z"/>
<path class="st11" d="M86.3,187.8c0,0.2,0.1,0.4,0.1,0.5C86.4,188.1,86.3,187.9,86.3,187.8"/>
<path class="st15" d="M224.2,184.6c0.1-3.6,0-7.3,0-10.9c36.5-1.1,73.5-0.1,110.2-0.3c0.6,0,0.8,0.2,0.8,0.8c0,5.3,0,10.7,0,16
	c0,0.7-0.4,0.6-0.8,0.6c-36.5,0.1-72.9-0.1-109.4,0c-1.4,0.2-0.5-2-0.8-2.8C224.1,187.3,224.9,184.7,224.2,184.6 M326.1,173.8
	c-33.6,0.6-67.4,0-101.1,0.2v15.9c36.2,0.1,72.4-0.1,108.5,0c0.7,0,0.9-0.2,0.9-0.9c0-4.7,0-9.4,0.1-14.1c0-0.8-0.2-1-0.9-1
	C331.1,174,328.6,174.1,326.1,173.8"/>
<path class="st16" d="M330.1,128c0,7.2,0,14.4,0,21.7c-0.1,1.9-1.1,2.9-3,2.9c-12.5,0-25,0-37.5,0.1c-3.7,0.1-3.3-3.9-3.3-6.5
	c0-13.4,0-26.9,0-40.3c0.1-1.9,1.1-2.9,3.1-2.9c12.3,0,24.7,0,37,0c2.6,0,3.7,1.1,3.7,3.7C330.1,113.9,330.1,121,330.1,128
	 M328.6,151.4C328.6,151.4,328.7,151.4,328.6,151.4c1.2-0.9,0.7-2.3,0.7-3.5v-4.4c0-6.8,0-13.7,0-20.5v-15.8
	c0.2-2.9-0.4-3.5-3.3-3.5c-12,0-24,0-36,0c-2.5,0-3.2,0-3.2,3.2c0,6.4,0,12.8,0,19.2c0,7.9,0,15.7,0,23.6c0,1.4,0.8,2.2,2.2,2.2
	c0.9,0,1.7-0.1,2.6,0c0.9,0.1,1-0.3,1-1c0.1-13.4-0.2-26.7,0.1-40.1l0.3-0.1c0.5,13.4,0,26.8,0.2,40.2c0,0.5-0.1,1,0.7,0.8
	C305.5,151.6,317.2,152.7,328.6,151.4"/>
<path class="st17" d="M224.2,54.9c-0.1-1.5-0.1-1.5,1.4-1.5c36.2,0.8,74.5-1.5,109.7,0.8c0,8.6,0,17.1,0,25.7c0,0.7-0.3,0.7-0.8,0.7
	c-14.2-0.4-28.8,0.7-42.8-0.4c13.7-1.1,28-0.1,41.9-0.4c0.8,0,1-0.2,1-1c0-8.2,0-16.4,0-24.6H225.1c-0.1,0.2-0.1,0.4-0.1,0.7
	L224.2,54.9z"/>
<path class="st17" d="M232.5,62.4c30.6,0.4,61.7-0.7,92.1,0.4c-29.9,1.3-60.7,0-90.9,0.4C233.2,63.2,232.4,63.5,232.5,62.4"/>
<path class="st18" d="M232.2,71.5c-0.2-0.7,0.1-0.8,0.6-0.8c28.7,0,57.4,0,86.1,0c0.2,0.7,0,0.8-0.5,0.8
	C289.6,71.5,260.9,71.5,232.2,71.5"/>
<path class="st19" d="M238.7,147.3c-0.1-6.2,0-12.3,0-18.5c0.8,5.9-0.5,12.1,0.5,18c-0.4,2,1.4,2.6,3.1,2.7c11.5,0,23,0.1,34.4,0
	c2.1-0.1,2.6-0.6,2.7-2.1c0.1-2.6,0.1-5.2,0.1-7.8c-0.1-9-0.1-18.1,0-27.2c0-2.3-0.1-4.6-0.1-7c0.1-1.6-1.5-1.8-2.7-1.8
	c-11.6,0-23.2,0-34.8,0c-1,0-1.9,0.2-2.5,1.1l-0.4-0.1c0.7-0.9,1.5-1.5,2.7-1.5c11.9,0,23.8,0,35.7,0c1.7,0,2.5,0.9,2.5,2.6
	c0,13.7,0,27.5,0,41.2c0,2.3-0.7,2.9-3,2.9c-11.6,0-23.1,0-34.7,0C240.5,149.9,238.7,149.2,238.7,147.3"/>
<path class="st17" d="M224.9,78.6c0,0.4,0.1,0.7,0.1,1.2c12.9,0.4,26.3-0.7,39,0.4c-13,1.1-26.6,0-39.8,0.4v-2H224.9z"/>
<path class="st20" d="M238.9,104.6l0.4,0.1c-0.4,14-0.1,28.1-0.2,42.1c-0.8-5.5-0.1-11.4-0.3-17.1c-0.7-7.7-0.1-15.7-0.3-23.5
	C238.5,105.7,238.8,105.1,238.9,104.6"/>
<path class="st15" d="M224.2,73v-6.7c0.2,0.3,0.5,0.6,0.7,0.8v0.5c-0.5,0.4-0.5,1.8,0,2.2v0.7l-0.3,0.2l0.3,0.1v2L224.2,73z"/>
<path class="st17" d="M224.2,63.4v-0.3c0.1-0.2,0.3-0.3,0.3-0.5c-0.1-1.2,0.4-3.6-0.3-4.4l0-3c0.2,0.6-0.2,2.4,0.7,2.4l0,5.5
	L224.2,63.4z M224.2,73l0.7-0.2v3.3l-0.7,0.1C224.2,75.2,224.2,74.1,224.2,73"/>
<path class="st15" d="M224.2,76.3l0.7-0.1l0,2.4h-0.7V76.3z"/>
<path class="st17" d="M224.9,67.1c-0.3-0.3-0.5-0.5-0.7-0.8c-0.1-0.8,0.3-1.4,0.7-2L224.9,67.1z"/>
<path class="st18" d="M224.2,177.2c0.1,1.7,0.2,3.4,0,5V177.2z"/>
<path class="st15" d="M224.2,58.2c0.1,0.2,0.3,0.3,0.3,0.5c-0.1,1.2,0.4,3.6-0.3,4.4L224.2,58.2z M224.9,57.6
	c-0.9,0.2-0.6-2.1-0.7-2.7h0.7L224.9,57.6z"/>
<path class="st21" d="M318.4,159.9c0.4,0.7,0.7,0.9,0,1.4C317.8,160.7,317.6,160.7,318.4,159.9"/>
<path class="st18" d="M224.2,184.6c0.6,0.2-0.1,2.7,0,3.4C224.2,186.8,224.2,185.7,224.2,184.6"/>
<path class="st21" d="M328.2,160.9c-0.3,0.3-0.4,0.5-0.6,0.7c-0.5-0.4-0.9-0.8-0.1-1.1C327.6,160.5,327.9,160.7,328.2,160.9"/>
<path class="st15" d="M224.9,64.3c-0.3,0.4-0.5,0.8-0.7,1.2v-2l0.7-0.4C224.9,63.5,224.9,63.9,224.9,64.3"/>
<path class="st21" d="M324.8,160.9c-0.7,0.6-0.8,0.8-1.3,0.1C324,160.6,324.1,160.3,324.8,160.9 M331.5,160.9l-0.7,0.6
	c-0.4-0.4-0.6-0.8,0-1.1C331,160.5,331.2,160.7,331.5,160.9"/>
<path class="st17" d="M224.9,69.8c-0.5-0.4-0.5-1.8,0-2.2C224.9,68.4,224.9,69.1,224.9,69.8"/>
<path class="st21" d="M321.8,160.9c-0.7,0.7-0.7,0.6-1.1-0.1C321.1,160.3,321.2,160.3,321.8,160.9"/>
<path class="st18" d="M224.2,175c0,0.6,0,1.2,0,1.8C224.2,176.2,224.2,175.6,224.2,175 M224.2,188.3l0,1.7
	C224.2,189.4,224.2,188.8,224.2,188.3 M224.2,173.7v0.7V173.7z"/>
<path class="st17" d="M224.9,70.8l-0.3-0.1l0.3-0.2V70.8z"/>
<path class="st20" d="M238.7,147.3v0.2C238.6,147.4,238.6,147.3,238.7,147.3"/>
<path class="st22" d="M180.6,95.1c-8.7-0.4-7.1,1.9-7.6-5.4c-0.4-4.8-0.7-9.7-1.2-14.5c0-0.5,0.1-0.7,0.6-0.8c1.1,0,3.2-1.1,4-0.3
	c1.9,2.3,6.6,2.8,8.8,0c1-0.7,2.4,0.1,3.5,0.1c0.6,0.1,0.7,0.3,0.7,0.9c-0.7,5.9-0.9,11.8-1.2,17.6c-0.2,2.8,0,2.3-2.4,2.4
	C184,95.1,182.3,95.1,180.6,95.1L180.6,95.1z"/>
<path class="st4" d="M188.4,63.9c-0.1,0.8-0.5,1.2-1.3,1.2c-4.1-0.1-8.4,0.5-12.5,0c-1-0.2-1.5-1-1.5-2.4c0-4.8,0-9.7,0-14.5
	c0-0.5,0.1-0.6,0.6-0.6c4.7,0,9.4,0,14.1,0c0.7,0,0.6,0.4,0.6,0.9C188.4,53.6,188.4,58.8,188.4,63.9"/>
<path class="st3" d="M182.9,117.1c1.3-0.8,2.7-1.4,3.8-2.4c1.1-1,1.9-2.2,2.8-3.4c1.4,12.9,0.9,25.9,0.8,38.9c0.1,1.9-0.7,3.7-3,3.5
	c-3.1-0.3-2.3-3.8-2.6-6C184.2,137.6,183.6,127.1,182.9,117.1 M171.6,111.5c1.3,2.4,3.1,4.3,5.7,5.2c0.6,0.2,0.8,0.4,0.7,1.1
	c-0.4,5.5-0.7,10.9-1.1,16.4c-0.4,5.7-0.8,11.3-1.2,17c0.1,3.8-5.2,3.8-5.1,0.1c-0.1-13.2-0.5-26.5,0.8-39.7L171.6,111.5z"/>
<path class="st1" d="M180.6,102.3c2.2,0,4.3,0,6.5,0c0.5,0,0.8,0.1,0.9,0.6c0.4,1.8,0.8,3.6,1.1,5.4c0.1,8.9-13.4,10.8-16.7,2.8
	c-1-2.6,0.3-5.5,0.6-8.2c0.1-0.6,0.5-0.6,0.9-0.6C176.2,102.3,178.4,102.3,180.6,102.3L180.6,102.3z"/>
<path class="st9" d="M185.1,153.6c1.7,1.2,3.3,1.6,5.1,0c0,11.1-0.1,21.9-0.2,33c0,0.5-0.2,0.8-0.7,0.8c-1-0.2-3.2,0.7-3.2-0.8
	C185.7,175.5,185.3,164.6,185.1,153.6 M170.9,154.1c1.6,1.2,3.2,0.9,4.9-0.3c-0.4,10.9-0.4,21.7-0.7,32.5c0,0.7-0.2,1.1-1,1
	c-1-0.2-3,0.7-2.9-1C171.1,175.7,170.7,164.8,170.9,154.1 M198.9,95.1c-1.1,0-4.9,1.2-5.2,0.1c-0.8-2.5-1.4-5-2.2-7.4
	c-0.5-1.4-0.9-2.9-2-4.1c-0.2-2.6,0.4-5.3,0.5-8C191.5,70.7,198.8,93.5,198.9,95.1 M162.5,95.5c2-6.8,3.3-14.5,7.8-20.3
	c0.4-0.4,0.8-0.2,0.9,0.4c0.2,2.2,0.4,4.5,0.5,6.7c0,0.7-0.1,1.4-0.4,2.1c-1.5,3.3-2.7,6.9-3.3,10.5c-0.2,1.1-0.3,1.2-1.4,1.1
	L162.5,95.5z"/>
<path class="st10" d="M199,95.8c-0.1,6.1,0,12.1-0.2,18.3c0.1,1-0.4,1.3-1.4,1.4c-2,0.3-2.2,0.2-2.3-1.8c-0.3-5.5-0.6-10.9-0.9-16.4
	c0-0.6,0.1-0.9,0.8-0.9C196.2,96.2,197.5,96,199,95.8"/>
<path class="st9" d="M167.3,98.7c-0.4,5.1-0.8,10.4-1.2,15.8c-0.1,0.8-0.4,1.1-1.2,1.1c-2.2-0.1-2.1,0-2.2-2
	c-0.1-3.3-0.2-6.5-0.2-9.8c0-2.2,0-4.4,0-6.6c0-0.6,0.2-0.9,0.8-0.8c1.1,0.1,2.1,0.2,3.2,0.4C167.6,96.9,167.1,97.8,167.3,98.7"/>
<path class="st3" d="M187.6,96.1c0,1.6,0,3.1,0,4.7c0,0.6-0.4,0.5-0.8,0.5h-9.6c-5.3,0.1-3.4,0.5-3.7-5.2H187.6z"/>
<path class="st9" d="M183,66.1c0.4,2.3,0.1,4.6,1.2,6.6c0.4,0.6,0.2,0.9-0.2,1.3c-1.4,1.7-6.8,1.7-6.9-1c1.1-1.7,1.1-3.7,1.2-5.7
	c0-1.2,0-1.2,1.2-1.2L183,66.1z"/>
<path class="st23" d="M162.8,116.3c1.3,0.1,2.8-0.4,3.9,0.3c1.2,1.8,2.2,3.9,1.1,6.1l-0.3,0.1c0.4,0.5,1.6,0.9,1,1.6
	c-0.3,0.3-0.7,0.8-1.1,0.3c-0.7-0.8-0.8-2.1-1.2-3.1c-0.3-0.4-0.8-0.8-1.2-0.7c-0.3,0.1-0.8,0.6-1,1c-0.9,2.7,1,4.4,2.9,6
	c-0.3,0.1-0.5,0.3-0.7,0.2C160.3,126.8,162.2,120.9,162.8,116.3 M194.6,127.8c1.8-1.5,4.2-4,2.4-6.4c-2.1-1.7-2.2,1.7-2.8,3
	c-0.1,0.2-0.7,0.3-1,0.3c-0.2-0.1-0.6-1-0.1-1.1c0.7-0.2,0.5-0.7,0.4-1.1c-0.8-2.1,0.2-3.9,1.1-5.7c0.7-0.8,2.9-0.4,4-0.6
	c0.8,5.1,2.9,10.3-3.7,12C194.7,128,194.6,127.9,194.6,127.8 M188.3,192.6h-4.5c-0.5,0-1,0.1-1-0.6c0-1.2,0.2-1.6,1-1.7
	c2.9,0,5.9-0.1,8.8,0c0.8,0,1.4,0.7,1.4,1.5c0,0.2-0.1,0.4-0.1,0.5C193.1,193,189.6,192.4,188.3,192.6 M176.2,190.3
	c0.6,0,1.1,0,1.7,0.1c1,0.1,0.8,0.9,0.8,1.5c0,0.6-0.4,0.8-0.9,0.8c-3,0-6,0-9.1,0c-0.4,0-0.9,0.2-1-0.4c-0.3-1.5,0.7-1.9,1.8-1.9
	L176.2,190.3z"/>
<path class="st14" d="M148.1,196.2c0.1-34.2,0.1-68.3,0-102.5C148.4,127.8,148.5,162.1,148.1,196.2"/>
<path class="st23" d="M189.3,54c1.3,0,1.4,0.2,1.4,1.2c0,1.7,0,3.5,0,5.2c0.2,0.8-0.6,0.9-1.1,1.2c-0.1-0.3-0.3-0.5-0.3-0.8
	C189.3,58.6,189.3,56.4,189.3,54 M172.4,57.9c-0.1,1.3,0.3,2.8-0.4,3.9c-0.3-0.3-1-0.5-1-0.8c-0.1-2.1-0.1-4.1,0-6.2
	c0-0.3,0.6-0.5,1-0.7C172.9,55.1,172.3,56.6,172.4,57.9L172.4,57.9z M193.2,189.4h-9.3c0.8-0.8,1.4-1.3,2.6-1.2
	C188.8,188.6,191.5,187.2,193.2,189.4 M177.8,189.4h-9c0.6-0.8,1.2-1.3,2.2-1.3C173.4,188.4,175.9,187.5,177.8,189.4"/>
<path class="st14" d="M188.4,63.9v-8.2c0.4,2.5,0,5.1,0.1,7.7C188.6,63.6,188.5,63.8,188.4,63.9 M176.2,190.3h-6.7
	c2-0.4,4.1-0.1,6.2-0.1C175.8,190.1,176,190.2,176.2,190.3"/>
<path class="st17" d="M239.6,221.7c5.4,0.5,4.8,8.3-0.3,8.5C234.1,229.7,234,222.1,239.6,221.7 M242.7,225.8c-0.4-4.5-6-4.1-6.7,0
	C236.3,230.2,242.4,230.5,242.7,225.8L242.7,225.8z"/>
<path class="st15" d="M239.7,31c0.2-0.2,0.4-0.5,0.5-0.5c3.3,0,6.6-0.1,9.9,0c0.1,0.5,0.1,0.8-0.5,0.8h-9.7L239.7,31z M322.8,29
	c-2.3-0.1-2.1-3,0.2-3C325.3,26.2,325.3,29.1,322.8,29 M328.3,29c-2.3-0.2-2.1-3,0.1-3.1C330.8,26.1,330.7,29.1,328.3,29 M312.1,29
	c-2.3-0.2-2.1-3,0.2-3C314.6,26.2,314.4,29,312.1,29 M317.5,29c-2.3-0.1-2.2-3,0-3C319.9,26.1,319.9,29,317.5,29 M306.7,29.1
	c-2.2-0.2-2.2-3,0.1-3C309.2,26.2,309.1,29.1,306.7,29.1 M175.2,26c2.3,0.1,2.4,2.9,0,3C173,29,172.8,26.1,175.2,26 M169.8,29
	c-2.1,0-2.1-3,0.1-3C172.2,26,172.2,29.1,169.8,29 M164.5,29c-2.1,0.1-2.2-3,0-3C166.8,26,166.9,29.1,164.5,29 M159.2,29
	c-2.2,0-2.2-3,0.1-3C161.5,26.1,161.6,29,159.2,29 M154.1,29c-2.1-0.1-2.2-3,0.1-3C156.4,26.1,156.3,29,154.1,29 M333.7,26
	c2.3,0,2.2,2.9-0.1,2.9C331.6,29,331.6,26,333.7,26 M301.6,26.1c2.3,0.1,2.1,2.9-0.1,2.9C299.4,28.9,299.4,26,301.6,26.1
	 M149.2,28.9c-2-0.1-1.9-2.9,0.1-2.9C151.2,26.1,151.2,28.9,149.2,28.9"/>
<path class="st24" d="M269.9,247.9c0.6,3.2,0.8,6.7,1.7,9.9c0.2,0.9-0.4,1.9,0.3,2.8c0.4,0.6,0.5,1.3,0.4,1.9
	c-0.1,0.6,0.1,1,0.2,1.5c0.3,1.2,0.5,2.4,0.7,3.7c0.1,0.4,0.1,0.8-0.4,1c-0.7,0.7-0.5,2.8-0.8,3.9c-2.4,0.3-0.6-1-2.7-0.4
	c-0.3,0.1-0.6,0.4-0.9,0.4c-2.8,0-5.7,0-8.5,0c-0.7,0-0.9-0.3-0.8-0.9c-0.2-1.4,0.3-2.8,0.5-4.2c-0.2-1.1,0-2.1,0.6-3
	c0.5-3.7,1.5-7.5,3.8-10.7l-0.2-0.1l0.7-0.1l-0.5-0.7c1-1.3,1.4-3.4,3.4-3.4c0.1-0.7,0.1-1.3,0.1-1.7
	C268.3,248.3,268.9,248.3,269.9,247.9 M273.5,269.3c-0.1,0.1-0.2,0.1-0.2-0.1C273.5,269.1,273.5,269.1,273.5,269.3"/>
<path class="st22" d="M326.6,173.8c2.3,0.5,4.7,0.1,7,0.2c0.7,0,0.9,0.2,0.9,1c-0.1,4.7-0.1,9.4-0.1,14.1c0,0.7-0.1,0.9-0.9,0.9
	c-36.2-0.1-72.4,0.1-108.5,0V174C258.9,173.8,292.8,174.4,326.6,173.8 M239.7,181.9l-0.1,0.3c27.6,1,56.7,0.7,84.3,0.1
	C296.2,181.3,267.6,182.3,239.7,181.9L239.7,181.9z"/>
<path class="st4" d="M326.9,151.9c-10.3,0-20.6,0.1-31,0c0.3-1.2-1.6-0.4-1.5-1.6c0.1-1.4,0.2-2.7,0.1-4.1s0.2-2,1.9-1.9
	c1.6,0.5,3.4,0,5.1,0.2c0.9,0,1.8,0,2.6-0.7c6.4,0,12.8-0.1,19.2,0.1c0.2-0.1,0.5-0.5,0.8-0.6l-0.4-0.3l0.1-0.3l0.3-0.2l-0.3-0.1
	l0-1.5c0.5-0.3,0.5-1,0-1.5v-1.3c0.7-0.5,0.7-0.8,0-1.3l0-9.4l0.5-0.2c-0.3-0.4,0.3-1.2-0.5-1.5l0-2.3c0.3-0.3,0.4-0.6-0.1-0.9
	c-0.1-0.3-0.2-0.5-0.4-0.8c-0.3,0-0.5,0-0.8,0c-0.7-0.3-1.2-1.1-2-1.1v-3.9c1-0.2,1.1-2.5-0.1-2.2l-0.2-0.2c0.2-1.9-2.9-0.5-1.4-3.1
	c-5.1,0.4-10.2-0.1-15.4,0c-0.2-0.5-0.4-0.5-0.7,0h-0.7l-0.2-0.3l-0.3,0.3h-0.5c-0.6-0.5-1.1-0.5-1.7,0h-0.7c-0.7-0.6-2-0.3-3-0.4
	c-0.2,0-0.4,0.3-0.6,0.4h-0.3l-1.6-1.2l-0.1,0.7c-0.3,0-0.5,0.2-0.8,0.4l0.4,0.4c0,0.4-0.1,0.7-0.1,1.1l-0.3,0.1l0.3,0.1
	c0.1,12.7,0,25.4,0,38c0,0.7-0.1,1.1-1,1c-0.8-0.1-1.7,0-2.6,0c-1.4-0.1-2.2-0.8-2.2-2.2c0-14.3,0-28.6-0.1-42.8
	c0-3.2,0.7-3.2,3.2-3.2c12,0,24,0,36,0c3.1-0.2,3.9,1.6,3,4.3c0,1.9,0.1,3.8-0.1,5.7c0,0.7,0,1.3,0,2c0,0.5-0.2,1.1,0.5,1.4v2.4
	c-0.5,0.3-0.5,0.6,0,0.8v2.9c-0.6,0.2-0.3,2.5-0.5,3.2c0,0.2,0.3,0.3,0.5,0.5v0.7c-0.5,0-0.5,0.3-0.5,0.6c0,0.3-0.1,0.7,0.5,0.7v1.3
	c-0.2,0.2-0.4,0.4-0.5,0.6c0.1,1.1-0.4,2.5,0.5,3.4v4.4l-0.6,0.2l0.6,0.2v4.7c-0.1,0.1-0.4,0.1-0.4,0.2c0,0.7,0,1.3,0,2
	c0,0.1,0.3,0.1,0.4,0.2v2c-0.7,0.1-0.4,0.6-0.4,0.9c-0.1,0.8-0.1,1.8-0.3,2.6C327.7,150.9,327,151.1,326.9,151.9"/>
<path class="st4" d="M296.4,144.4c-1.6-0.2-1.9,0.5-1.9,1.9c0,1.3-0.1,2.7-0.1,4.1c-0.1,1.2,1.8,0.3,1.5,1.6l-1.8,0
	c-0.4-8.1,0.2-16.2,0-24.3c0-0.8-0.6-1.6,0-2.5c0-0.1-0.1-0.2-0.1-0.3c-0.2-4.1-0.1-8.4-0.2-12.5c1.3,0,2.4,0,3.5,0
	c0.1,0,0.1-0.3,0.2-0.4h1.3c0.1,0.1,0.2,0.4,0.4,0.4c2.3-0.1,4.7-0.1,7,0.3c1.3-0.2,2.6-0.4,3.9-0.2c1.2,0,2.5,0,3.7,0
	c0.4,0,0.9,0.3,1.1-0.3h2c0.4,0.7,1,0.2,1.5,0.4c0,1.4,2.1,0.6,1.8,2.2l-1.8-0.1c-0.3-0.4-0.6-0.4-0.8,0h-0.3c0-0.1-0.1-0.3-0.2-0.6
	c-0.1,0.4-0.1,0.5-0.2,0.6h-0.7l-0.5-0.6l-0.6,0.6h-3.4l-0.5-0.6c-0.2,0.2-0.3,0.4-0.5,0.6h-0.7l-0.3-0.4l-0.3,0.4h-1.3
	c-0.3-0.7-1.1-0.9-1,0h-1.3c-0.3-0.9-0.7-1.1-1.5-0.7l0.3,0.7h-0.5l-0.2-0.2l-0.2,0.2H303c0-1.2-1.7-0.5-2.2,0h-1.7l-0.2-0.6l-0.2,0
	l-0.1,0.5h-0.7c-0.3-0.4-0.6-0.4-0.8,0c-1.1,0.8-0.5,2.2-0.7,3.4c-0.5,0.2-0.5,0.5,0,0.7v1.3c-0.7,0.4-0.7,0.8,0,1.2v1
	c-1.2,1.1-0.5,3.1-0.5,4.5c0,0.8-0.3,1.7-0.3,2.5c0,1.9,0.1,3.7,0.1,5.6c0,1.9-0.6,4.3,0.7,5.8v0.5l-0.8,0.5l0.8,0.4
	C296.4,142.7,296.5,143.6,296.4,144.4 M294.6,120.7l0.5,0c-0.1-0.9,0.3-1.9-0.3-2.6C293.9,118.4,294.6,119.9,294.6,120.7
	L294.6,120.7z M295.3,140.3l-0.6-0.7c-0.5,0.4-0.4,0.6,0,1.1L295.3,140.3z"/>
<path class="st23" d="M297.5,111.9c-0.1,0.1-0.1,0.4-0.2,0.4c-1.1,0-2.2,0-3.5,0c0.1,4.1,0,8.4,0.2,12.5c0,0.1,0.1,0.2,0.1,0.3
	c-0.6,0.8,0,1.7,0,2.5c0.2,8.1-0.4,16.2,0,24.3c-0.7,0.2-0.7-0.3-0.7-0.8c0-13.6,0.1-27.3-0.1-40.8l1.6,1.2l-0.4,0.2
	c0,0.1,0,0.1,0.1,0.2L297.5,111.9z M329.4,117c-0.7-0.3-0.5-0.9-0.5-1.4c0-1.2,0-2.4,0.1-3.6c0.2-1.6-0.4-3.3,0.3-4.8L329.4,117z
	 M329.4,134.2c-0.2-0.2-0.4-0.4-0.5-0.6c0.1-1.1-0.4-2.5,0.5-3.4V134.2z M329.4,126.8c-0.2-0.2-0.5-0.3-0.5-0.5
	c0.1-0.7-0.1-3,0.5-3.2C329.4,124.3,329.4,125.5,329.4,126.8 M328.7,151.4c0.1-0.8,0.2-1.7,0.2-2.5c0-0.4-0.3-0.9,0.4-0.9
	C329.2,149.1,329.8,150.6,328.7,151.4 M329.3,145.9c-0.1-0.1-0.4-0.1-0.4-0.2c0-0.7,0-1.3,0-2c0-0.1,0.3-0.1,0.4-0.2V145.9z
	 M326.9,151.9c0.1-0.8,0.9-1,1.7-0.5L326.9,151.9z M329.4,128.8c-0.6,0-0.5-0.4-0.5-0.7c0-0.3,0-0.7,0.5-0.6
	C329.4,127.9,329.4,128.3,329.4,128.8 M292.8,111.7l-0.4-0.4l0.5-0.3L292.8,111.7z M329.4,120.2c-0.5-0.3-0.5-0.6,0-0.8V120.2z
	 M329.3,138.9l-0.6-0.2l0.6-0.2C329.3,138.7,329.3,138.8,329.3,138.9 M292.8,113l-0.3-0.1l0.3-0.1V113z"/>
<path class="st25" d="M239.1,146.8c0.1-14-0.2-28.1,0.2-42.1c0.6-0.9,1.5-1.1,2.5-1.1h24.8c3.3,0,6.7,0,10,0c1.2,0,2.8,0.3,2.7,1.8
	c0.2,14,0.2,27.9,0,41.9c0,1.5-0.6,2-2.7,2.1c-3,0.1-6,0-9,0c-8.5,0-17,0-25.4,0C240.6,149.4,238.7,148.7,239.1,146.8"/>
<path class="st23" d="M242.7,225.8c-0.3,4.7-6.4,4.3-6.7,0C236.7,221.7,242.3,221.4,242.7,225.8"/>
<path class="st21" d="M239.7,182c28,0.4,56.5-0.7,84.2,0.4c-27.6,0.6-56.7,0.9-84.3-0.1L239.7,182z"/>
<path class="st16" d="M318.5,114.5l1.8,0.1l0.2,0.2c0.1,2.8,0.1,5.6,0,8.4H320c-0.1-2.7,0-5.4,0-8.1c-7.2,0.4-14.4,0-21.6,0.2
	c-1.3,0-1.3,0-1.2,1.4c0,1.2,0,2.5,0,3.7c0.2,6.1,0.1,12.3,0.1,18.4c0,0.5,0.2,0.7,0.7,0.7c0,0.1,0,0.3,0,0.4h-0.7v2.5
	c0,1.1,0,1.1,1.1,1.1c7.4,0,14.7,0.2,22.1,0c0.1,0.1,0.1,0.2,0.2,0.3c0,0.1-0.1,0.3-0.1,0.4c-8-0.1-16,0.2-24-0.2
	c0-8.6-0.1-17.2,0-25.9c0.2-1.2-0.3-2.6,0.7-3.4C304.2,114.4,311.3,114.5,318.5,114.5"/>
<path class="st14" d="M323.8,127.4c-0.1,5.4,0.2,10.9-0.1,16.3c-0.5,0.6-1.8,0.1-2.6,0.2v-0.5c2.1-0.2,2.4,0.5,2.2-2
	c0-6.3-0.1-12.6,0-18.8c0-1.1-1.7-0.4-2.4-0.6V122c0.8-0.1,1.6-0.3,2.4-0.2C324.2,123.5,323.6,125.6,323.8,127.4"/>
<path class="st23" d="M322.5,121.8L321,122v0.1c3.5-0.2,2.1,0.4,2.4,3.7l-2.8,0c-0.1-1.7-0.1-3.3,0-5
	C321.3,120.7,321.8,121.5,322.5,121.8"/>
<path class="st14" d="M297.5,111.9h-2.9c0-0.1,0-0.1-0.1-0.2c7.7-0.5,15.8,0,23.6,0C311.3,112.5,304.3,111.6,297.5,111.9"/>
<path class="st4" d="M297.1,143.8l7.1,0.1c-0.8,0.6-1.7,0.7-2.6,0.7c-1.5-0.1-3.1,0.2-4.6,0L297.1,143.8z"/>
<path class="st23" d="M320.5,116.9l-0.1-2.2C321.6,114.4,321.5,116.7,320.5,116.9 M298.8,111.5h-3.5c0.2-0.2,0.4-0.4,0.6-0.4
	C296.8,111.1,298.1,110.8,298.8,111.5 M316.9,112l1.9-0.5c-0.2,0.4-0.3,0.6-0.4,0.9C318,112.2,317.3,112.7,316.9,112 M323.8,127.4
	c0-0.6,0-1.1,0-1.7c0.8,0.3,0.2,1,0.5,1.5L323.8,127.4z M301.1,111.5l-1.7,0C300,111,300.6,111,301.1,111.5 M323.9,141.1v-1.5
	C324.4,140.1,324.4,140.7,323.9,141.1 M323.9,138.2v-1.3C324.5,137.4,324.5,137.7,323.9,138.2 M297.1,143.8l-0.2,0.7l-0.5-0.2v-0.7
	L297.1,143.8z M323.7,123.4c0-0.3,0-0.6-0.1-0.9C324.2,122.8,324.1,123.1,323.7,123.4 M323.7,143.7v-0.5l0.4,0.3L323.7,143.7z
	 M303.5,111.5h-0.7C303.1,111,303.3,111,303.5,111.5"/>
<path class="st14" d="M320.5,143.9c0-0.1,0.1-0.3,0.1-0.4l0.2,0l0.1,0.4L320.5,143.9z"/>
<path class="st23" d="M302.2,111.5h-0.5l0.3-0.3L302.2,111.5z M323.8,142.9v-0.3l0.3,0.1L323.8,142.9z M323.3,121.8l-0.4,0
	L323.3,121.8z"/>
<path class="st16" d="M320.8,143.9l-0.1-0.4l0.4-0.1v0.5L320.8,143.9z"/>
<path class="st23" d="M296.4,122.1c0,6.2,0,12.3,0,18.5c-1.3-1.6-0.7-3.9-0.7-5.8c0-1.9-0.1-3.7-0.1-5.6c0-0.8,0.3-1.7,0.3-2.5
	C295.9,125.2,295.2,123.2,296.4,122.1 M298.8,111.9l16.1,0.1c-0.2,0.7-0.7,0.3-1.1,0.3c-1.2,0-2.5,0-3.7,0c-1.3-0.2-2.6,0-3.9,0.2
	c-2.3-0.4-4.7-0.4-7-0.3C299,112.2,298.9,112,298.8,111.9"/>
<path class="st4" d="M294.6,120.7c-0.1-0.7-0.2-1.5-0.2-2.2c0-0.1,0.3-0.3,0.4-0.4c0.6,0.7,0.2,1.7,0.3,2.6L294.6,120.7z"/>
<path class="st23" d="M303,114.5l-2.2,0C301.3,114,303,113.3,303,114.5 M305.9,114.4h-1.2l-0.3-0.7
	C305.1,113.3,305.6,113.5,305.9,114.4"/>
<path class="st4" d="M295.3,140.3l-0.6,0.4c-0.4-0.5-0.4-0.6,0-1.1L295.3,140.3z"/>
<path class="st23" d="M308.2,114.5h-1C307.1,113.5,307.9,113.8,308.2,114.5 M296.4,141.1v0.8l-0.8-0.4L296.4,141.1z M311.9,114.5h-1
	c0.2-0.2,0.3-0.4,0.5-0.6L311.9,114.5z M316.3,114.5h-1l0.6-0.6L316.3,114.5z M296.4,119.9v1.2C295.7,120.7,295.7,120.3,296.4,119.9
	 M310.2,114.5h-0.7l0.3-0.4L310.2,114.5z M299.1,114.4h-0.5l0.1-0.5l0.2,0L299.1,114.4z M318.5,114.5l-0.8,0
	C317.9,114,318.2,114,318.5,114.5 M298,114.4l-0.8,0C297.4,114,297.7,114,298,114.4 M296.4,117.9v0.7
	C295.9,118.3,295.9,118.1,296.4,117.9 M317.3,114.5h-0.3c0-0.1,0.1-0.3,0.2-0.6C317.2,114.2,317.2,114.3,317.3,114.5 M304.2,114.5
	h-0.3l0.2-0.2L304.2,114.5z"/>
<path class="st4" d="M297.2,119.4l0-0.8c0.7-0.3,0.4-0.6,0-0.8v-1.2c2.8-1.3,6.2-0.6,9.1-0.3c1.9-0.1,3.8-0.2,5.7-0.5
	c0.6-0.1,1.5,0.3,1.9-0.6l3.9,0c0.3,0.9,1.4,0.5,2.2,0.7v1.2c-0.7,1-0.3,2.8-0.4,4c0,0.1,0.3,0.3,0.4,0.4v0.7
	c-0.5,0.2-0.5,0.7,0,1.3v0.7c-0.1,0-0.2,0.1-0.2,0.1c-0.5,1.8-1.1,0.3-1.4,1.6l-0.3,0c-0.4-0.5-1.2-0.5-1.6,0c0,0,0,0-0.1,0.1H316
	c-0.3-0.5-0.6-0.5-0.8,0h-1.8c-0.1-0.3-0.1-0.5-0.2-0.8h-0.3c-0.1,0.3-0.1,0.5-0.2,0.8h-4.4c0.2-0.9-1.5-0.9-1.3,0h-2.7
	c-0.3-0.5-0.7-0.5-1,0h-1.3c0-0.1-0.1-0.2-0.1-0.3c0,0.1-0.1,0.2-0.1,0.3l-1.8,0.1c-0.1-0.1-0.1-0.2-0.2-0.3c0,0.1-0.1,0.2-0.1,0.3
	l-1.2,0C297.2,123.7,298.5,119.1,297.2,119.4 M309.2,118.2c0.2-1.3-1.4-0.6-2.2-0.9c-2.4-0.7-3.2,4.4-0.8,4.5
	c1.6,0.1,3.2,0.1,4.8,0.1c0.8,0,1.4-0.9,1.4-1.8C312.6,118.1,310.5,118.4,309.2,118.2L309.2,118.2z"/>
<path class="st10" d="M320.1,143.2c-7.2,0.3-14.5,0-21.8,0c-1.1,0-1.1,0-1.1-1.1v-2.5c7.4,0,14.8,0.3,22.2-0.1l0-0.3l-2.1-0.1
	c0.4-0.9,1.4-0.7,2-0.3c0.2-0.4,0.4-0.7,0.7-1.1L320.1,143.2z M321.1,143.5c-0.2,0-0.4,0.1-0.6,0c-0.1-0.1-0.1-0.2-0.2-0.3
	c0.1-5.7-0.1-11.4,0.2-17.1l2.7,0c0,5.3,0,10.7,0.1,16C323.7,144,322.4,143.2,321.1,143.5 M297.2,119.4c0.5,0,0.6,0.3,0.6,0.7
	c0,2-0.2,3.9,0.5,5.8c-0.1,0.8,0.5,0.6,0.9,0.6c4.2,0,8.3,0,12.5,0c0,0.9,0,0.7-1.2,0.7c-2-0.1-4.1-0.2-6.1,0
	c-1.1,0.1-2.1,0.3-3.1,0.1c-0.7-0.2-1.5-0.5-2.2,0.2c-1.1-0.1-1.4,0.2-1.3,1.3c0.6,3.5-0.4,7.1,1,10.4c-0.6,0-1.6,0.4-1.6-0.5
	C297.3,132.2,297.2,125.8,297.2,119.4 M313.9,115.2c-0.4,0.9-1.3,0.5-1.9,0.6c-1.9,0.3-3.8,0.4-5.7,0.5c-3-0.3-6.3-1-9.1,0.3
	c-0.1-1.4-0.1-1.4,1.2-1.4C303.5,115.2,308.7,115.1,313.9,115.2"/>
<path class="st14" d="M297.9,139.3c7.1-0.2,14.3-0.2,21.5,0l0,0.3c-7.1,0.4-14.4,0.1-21.5,0.1C297.9,139.5,297.9,139.4,297.9,139.3"
	/>
<path class="st21" d="M320.6,126.1c-0.3,5.7-0.1,11.4-0.2,17.1l-0.3,0c-0.2-6.7-0.3-13.5-0.1-20.1h0.4
	C320.5,124.1,320.4,125.1,320.6,126.1L320.6,126.1z"/>
<path class="st10" d="M320,115.9c-0.8-0.2-1.9,0.2-2.2-0.7l2.2-0.2V115.9z M319.9,121.4c-0.1-0.1-0.4-0.3-0.4-0.4
	c0.2-1.2-0.3-3,0.4-4L319.9,121.4z M320,123.1l-0.1,0.3c-0.5-0.6-0.5-1.1,0-1.3L320,123.1z M297.2,117.7c0.5,0.3,0.7,0.6,0,0.8
	V117.7z"/>
<path class="st24" d="M320.6,126.1l-0.1-0.3l2.8,0c0,0.1,0,0.3-0.1,0.4L320.6,126.1L320.6,126.1z"/>
<path class="st17" d="M309.2,118.2c1.3,0.2,3.4-0.1,3.2,1.8c0,0.9-0.6,1.8-1.4,1.8c-2.3-0.1-7.5,1.1-6-3
	C306.4,118.1,307.8,118.2,309.2,118.2"/>
<path class="st21" d="M311.7,126.5c-4.2,0-8.3,0-12.5,0c-0.4,0-1,0.2-0.9-0.6c6.6-0.2,13.3-0.1,20-0.1l0.5,0.6
	C316.5,126.7,314.1,126.4,311.7,126.5"/>
<path class="st10" d="M309.2,118.2c-1.4,0-2.9-0.1-4.2,0.6c0.1-1.2,0.9-1.7,2-1.5C307.8,117.6,309.4,116.9,309.2,118.2 M318.8,126.4
	l-0.5-0.6c0.3-1.3,1,0.2,1.4-1.6c0-0.1,0.1-0.1,0.2-0.1v3.2C319.5,127,319.2,126.7,318.8,126.4 M308.2,125.8h-1.3
	C306.7,124.9,308.4,124.8,308.2,125.8 M317.9,125.8l-1.7,0C316.7,125.3,317.4,125.3,317.9,125.8
	C317.9,125.7,317.9,125.7,317.9,125.8 M313.2,125.8h-0.7c0.1-0.3,0.1-0.5,0.2-0.8h0.2C313.1,125.3,313.2,125.5,313.2,125.8
	 M304.2,125.8h-1C303.5,125.2,303.8,125.2,304.2,125.8 M315.9,125.8h-0.8C315.4,125.3,315.7,125.3,315.9,125.8 M299.8,125.8l-0.3,0
	c0-0.1,0.1-0.2,0.1-0.3C299.7,125.6,299.7,125.7,299.8,125.8 M301.9,125.8h-0.2c0-0.1,0.1-0.2,0.1-0.3
	C301.8,125.6,301.8,125.7,301.9,125.8"/>
<path class="st22" d="M318.8,126.4c0.4,0.3,0.7,0.6,1.1,0.9v2.4l-0.8,0.5l0.8,0.5v1.7c-0.3,0.3-0.9,0.6-0.9,0.8
	c0.2,0.5,0.6,1,0.9,1.4v0.8c-0.7,0-1.4,0-1.8,0.8l-10.9-0.2l-0.2-0.2l-0.2,0.2l-5.9,0c-0.1-0.1-0.1-0.2-0.2-0.3l-0.3,0.3l-1.4,0.2
	l0,0.4l3.7,0.1c-0.4,1.3,4.8,0.3,5.9,0.8c1.3,1.1,3.5-0.6,4.8,1c1.3,0.1,2.7-0.6,3.9,0.4l-0.2,0.3l-8.9,0c-0.1-0.7-0.6-0.8-1.2-0.8
	c-0.6,0-0.7,0.4-0.8,0.8H306c-0.4-1-1.7-1.2-2,0h-0.7c-0.1-0.2-0.2-0.5-0.2-0.7c-0.4,0.2-0.8,0.4-1.1,0.7l-3.2,0
	c-1.4-3.3-0.4-6.9-1-10.4c-0.1-0.3,0-0.8,0.2-1.1c0-0.1,0.4-0.1,0.6-0.2v0.5c-0.4,0.2-0.6,0.4-0.3,0.8c0.2,1.1,0.6,2.1,1.1,3.1
	c-0.1,0.4-1.2,2.5,0.1,1.9c2.4,0.4,4.9,0.1,7.4,0.2c-0.4,1.2,3.8,0.5,4.6,0.6c0.2,0,0.4-0.4,0.7-0.6c1.6,0,3.2-0.1,4.7,0
	c0.9,0,0.9-0.6,1-1.1c0.1-0.7-0.6-0.4-0.9-0.5c-0.7-0.3-1.5-0.1-2.2-0.1c-0.4-0.5-0.8-0.5-1.2,0l-0.8-0.1l-0.3-0.3
	c-0.1-0.2-0.1-0.4-0.2-0.7c1.3-0.6,2.9-0.6,4.3-0.7c1.3,0,1.3,0,1.3-1.3l1.3-0.3c0.1-2.2-0.1-0.8-1.4-1.7l0.2-0.6l0.5,0l0.2,0.3
	c0-0.1,0.1-0.2,0.1-0.3L318.8,126.4z"/>
<path class="st4" d="M317.4,138.9c-1.2-1-2.6-0.3-3.9-0.4c-1.3-1.5-3.5,0.1-4.8-1c1.5,0.1,3.2-0.2,4.6,0.1c1,1.3,2.2-0.1,3.4,0.3
	c0.9,0.2,0.7-0.7,0.7-1.2c0.9-0.2,1.7,0.2,2.5,0.6v0.5c-0.2,0.3-0.4,0.7-0.7,1.1C318.7,138.6,318.1,138.3,317.4,138.9"/>
<path class="st23" d="M320.6,126.1C320.6,126.1,320.6,126.1,320.6,126.1L320.6,126.1z"/>
<path class="st4" d="M298.6,127.9v-0.5c4-0.1,7.9-0.6,12-0.3c1.1,0.1,1.1,0.2,1.2-0.7h3.2c-0.1,1.2,2,0.4,2.7,0.6
	c1.3,0.9,1.5-0.5,1.4,1.7c-4,0.7-8,0.1-12,0.1c-0.5-0.7-1.2-0.7-1.7,0c-1.1,0.1-2.3,0-3.4,0.3c-0.7,1-2.2,1.9-3.4,1
	C298.6,129.4,298,128.8,298.6,127.9"/>
<path class="st4" d="M301.3,127.3l-2.2,0.2C299.8,126.8,300.6,127.1,301.3,127.3"/>
<path class="st10" d="M306.4,139.2c0.1-0.4,0.2-0.9,0.8-0.8c0.6,0,1.1,0.1,1.2,0.8L306.4,139.2z M304,139.2c0.3-1.2,1.6-1,2,0H304z
	 M302,139.2c0.3-0.3,0.7-0.6,1.1-0.7c0.1,0.2,0.2,0.5,0.2,0.7H302z M319.9,137.4l-1.4-0.7l-0.4-0.5c0.4-0.8,1.1-0.8,1.8-0.8
	C319.9,136,319.9,136.7,319.9,137.4 M319.9,134.5c-0.3-0.5-0.7-0.9-0.9-1.4c0-0.1,0.6-0.5,0.9-0.8L319.9,134.5z M319.9,130.6
	l-0.8-0.5l0.8-0.5V130.6z M317.6,127.1c-0.7-0.2-2.8,0.5-2.7-0.6h2.9L317.6,127.1z M318.6,126.5c0,0.1-0.1,0.2-0.1,0.3l-0.2-0.3
	L318.6,126.5z"/>
<path class="st12" d="M312.7,132.2c0.7,0.3,5.5-0.2,5.1,0.8c-0.1,0.5-0.1,1.1-1,1.1c-5.8-0.2-11.6,0.3-17.3-0.2
	c0.1-0.6-0.4-1.6,0.8-1.5C304.4,132.2,308.7,132.5,312.7,132.2"/>
<path class="st13" d="M318.1,136.2l0.4,0.5c-6.4,0.1-12.9,0-19.3-0.1l0-0.4C305.4,135.6,311.8,136.2,318.1,136.2"/>
<path class="st26" d="M307.9,136.7l9.6,0c0,0.5,0.2,1.4-0.7,1.2c-1.2-0.4-2.4,1-3.4-0.3c-1.7-0.4-3.7,0.2-5.5-0.3
	C307.9,137.2,307.9,136.9,307.9,136.7"/>
<path class="st12" d="M312.2,129.1l5.6,0c0,1.4,0,1.4-1.3,1.3c-4.7-0.5-9.6,0.2-14.4-0.3c5-0.7,10.1,0,15.1-0.5v-0.3
	C315.6,129.1,313.9,129.6,312.2,129.1"/>
<path class="st10" d="M304,130.3c3.9,0.1,7.9-0.3,11.8,0.2c-1.2,0.2-2.5,0.1-3.5,0.7c-1.7-0.2-3.5-0.4-5.2-0.3
	C306.1,130.7,304.5,131.2,304,130.3"/>
<path class="st1" d="M309,130.8l3.2,0.3c0.1,0.4,0.2,0.8,0.2,1.1l-3.2,0C309.2,131.8,309.1,131.3,309,130.8"/>
<path class="st4" d="M300.3,132.3c-1.3,0-0.7,0.9-0.8,1.5c-1.3,0.6-0.2-1.5-0.1-1.9c-0.2-0.5-0.5-1-0.7-1.6c0.7,0.5,1.5,0.5,2.2,0
	C301,131.1,300.6,131.7,300.3,132.3 M306.9,134h5.2c-0.2,0.2-0.4,0.6-0.7,0.6C310.6,134.5,306.5,135.2,306.9,134 M307.9,136.7v0.6
	h-4.2c-0.5,0-0.8,0-0.8-0.6L307.9,136.7z"/>
<path class="st10" d="M314.8,132.3l-1.2,0C314,131.8,314.4,131.8,314.8,132.3"/>
<path class="st4" d="M298.6,127.9c-0.1,0.3-0.2,0.6-0.3,0.8C298,128.3,298.2,128.1,298.6,127.9 M298.3,129.1l0.3,0.7L298.3,129.1z"
	/>
<path class="st10" d="M301,136l-0.5,0l0.3-0.3C300.8,135.8,300.9,135.9,301,136 M312.4,132.3v-0.5l0.3,0.3L312.4,132.3z M307.2,136
	h-0.3l0.2-0.2L307.2,136z M316.9,132.4l-0.3-0.1L316.9,132.4z"/>
<path class="st8" d="M312.2,129.1c1.6,0.4,3.4,0,5,0.3v0.3c-5,0.4-10.2-0.3-15.1,0.5L302,130l0-0.7
	C305.3,128.6,308.8,129.1,312.2,129.1"/>
<path class="st22" d="M302,130l0.2,0.2l1.4,0.2c0.4,1.9-1.1,1.2-2.2,0.8l-0.3,1.1h-0.7c0.3-0.6,0.7-1.3,0.5-2
	C301.2,130.1,301.5,129.9,302,130"/>
<path class="st10" d="M307,129h-1.7C305.9,128.3,306.5,128.2,307,129 M302,130h-0.5c0.2-0.2,0.3-0.4,0.5-0.7
	C302,129.5,302,129.7,302,130 M302.5,129.1l-0.5,0.2L302.5,129.1z"/>
<path class="st1" d="M301,132.3l0.3-1.1c1.1,0.3,2.7,1,2.2-0.8h0.5c0.3,0.9,3.4,0.3,4.4,0.5c-0.5,0.4-1.1,0.4-1.7,0.3v0.3
	c0.7,0.1,2-0.3,1.9,0.8L301,132.3z"/>
<path class="st22" d="M308.5,132.3c0.1-1.1-1.2-0.7-1.9-0.8v-0.3c0.4,0,0.7,0,1.1,0c0.4-0.2,0.8-0.4,1.3-0.3c0.1,0.5,0.1,1,0.2,1.5
	L308.5,132.3z"/>
</svg>
