<svg id="Layer_1" data-name="Layer 1" xmlns="http://www.w3.org/2000/svg" viewBox="0 0 1967.51 1558.52"><defs><style>.cls-2{fill:#fbfcfc}.cls-4{fill:#fbfbfb}.cls-5{fill:#fdfdfd}.cls-9{fill:#e5e5e8}.cls-10{fill:#f9f9fa}.cls-11{fill:#f7f8f8}.cls-12{fill:#bfbec0}.cls-13{fill:#d7d5d6}.cls-14{fill:#9f9fa0}.cls-15{fill:#6e6e70}.cls-16{fill:#111212}.cls-17{fill:#1e1f1f}.cls-18{fill:#191919}.cls-19{fill:#1d1d1d}.cls-21{fill:#3a4b96}.cls-22{fill:#272727}.cls-23{fill:#fcfcfc}.cls-24{fill:#f6f7f7}.cls-25{fill:#b9b8bb}</style></defs><path d="M1401.91 1302.51c11.39 65.2 21 130.56 34.13 195.4 1.27 4.65-1.49 13.34 6 12.95 49.55 4.52 93.56-18 111.53 41.05h8.89v6.61H916V1554c9.36-9 12.33-21.09 20.3-30.89 6.7-8.8 16.7-12.11 27.7-12.11h63.5a7.46 7.46 0 0 0 6.76-10.32c7.67-48.2 18.53-97.3 26.12-146 2.65-15 5.26-30 8-45 2.87-10.38-3.71-9.7-11.9-9.59-168.74.12-337.51 2-506.24.79-38.81 1.11-62.9-40.43-60.15-77.14.77-221.49-.22-443 .53-664.47 0-3.6-1.13-5.17-4.24-6.68-14.61-7.13-29.07-14.55-44.23-22.19-6.25 7-13.45 4.28-20.75.13-16.15-9.17-32.35-18.27-48.64-27.47 2 77.49 10.6 155.71 4.26 232.84 27.06 144.19 28.41 291.62 26.62 437.88-.76 51.86-2.93 103.69-6 155.46-.88 15.25-2 30.5-3 45.74-.41 6.07-3.74 9.72-10 10-3.94.2-5.08 1.62-5.07 5.45 0 6.47-.73 12.94-.79 19.41 0 1.76.73 4.2 2 5.19 11.49 8.88 22.85 18 34.9 26 19.77 12.81 45.25 8.47 67.55 13 23.44 2.74 24.26 27.26 25.43 46.34H137.52c2-17.68-.57-35.69 7.4-52.17 8.73-18.84 11-39.24 13.58-59.57a4.32 4.32 0 0 0-.95-3.07 58.14 58.14 0 0 1-14.55-36.51c-1.72-127.3 1.86-254.74-3.41-382-3.27-78.56-5.16-157.28 3-235.59-1.3-9.84-2.61-20-1.57-30 .18-2.24 2.67-4.28 4.58-7.12C98 653.87 44.42 617.85 10.93 563.68c-18.14-31.3 4.31-68.75 26-92.14-2.37-5.59-10-11.32-5.54-17.47 8.46-12.22 16.46-24.79 25.51-36.55 35-40.15 66-93.29 119.63-109.31 12.72-5.82 55-12.59 59.76-22.64 14.39-37.15-.07-19.91-8.08-49.19-3.54-14.78-7-29.6-9.84-44.52-5.61-26.56 20-52 46.9-45.22 37.34 10.85 60.81 18.94 78.4-23.84 4.26-7.5 10.67-11.26 19.36-10.28 27.33 4.41 22.91 42.52 9.62 59.14-15.51 24-41.69 18.14-40.9 25.68.11 10.61-.3 21.25.36 31.82.19 3 3 6.08 5.24 8.55 11.48 12-8.24 10.14-3.79 20.4 11.43 25.19-9.84 33-31.29 27.86-6.47-1.12-6.2 7.66-8.39 11.77-1.95 6.79-.4 9.94 6.31 12.16 23.47 8.6 49.45 11.51 69.61 27.49 39.59 33.83 81.25 63.36 120.94 97.27-.06-43.43.17-86.31 0-129.69-.13-29.67 22.23-55.09 52.91-55.61q33.5-.57 67-.18c5.28 0 6.26-1.59 6.25-6.5q-.25-95 0-190c.09-27.2 20.71-47.39 45.3-50.55 374.77-4 749.74-.11 1125-1.86 26.94-2.75 51.09 15.62 54.57 42.83 2.76 66.46.31 133.28 1 199.85 0 5 1.63 6.12 6.28 6.1q36.24-.15 72.48.25c27.73.31 48.45 23.25 49.16 48.89 1.22 44.44 1.15 88.93 1.17 133.4-.09 258.39.5 516.83-.5 775.19 3.26 36.61-8.78 79-47.21 91.73-173.4 9.94-348.59-2.51-522.24 4M281.42 927.1c15.19-58.6 23.83-119.41 24-180h-2.54c-1.06 62.78-12.78 124.89-25 186.31l1.6.48Zm29.5 77c14 105 14.95 211.17 20.15 316.85.26 6.13 1.18 12.22 1.59 18.35.25 3.8 2.42 4 5.61 3.64-4.39-122.24-9.36-245.07-28.33-366l-1.6.22q1.25 13.48 2.58 26.93Zm45.68-265q-1.22-5.88-2.44-11.75l-1.15.27c.12 18 3.36 35.85 6 53.58 1.56 9.71 8.6 19.08 19.37 18.64.6.06 1.57-1.45 2-2.41.14-.32-.78-1.47-1.41-1.72-8.94-3.43-12.7-11-14.66-19.4-2.92-12.31-5.19-24.81-7.71-37.22Zm-92.14-489c-.2-9.82-.4-19.63-.62-30.55l-6.92 5.13c-.63-7.09 2.93-11.86-2.93-17.11-1.34 1.62-3.94 3.4-3.75 4.83.48 3.75 1.31 8 3.55 10.89 5.94 7.61 6 15.88 4.56 24.63-10.21 1.88-9.93 12.49-12 20.53-2.48 8-4.26 16.61-8.45 23.71-5.54 7.95-.84 15 3.14 22 15.5 30.15 61.67 23.85 49.74-5-3.85-7.83-.21-17.3 3.13-25.22-15.24-6.74-30.05-13.73-29.45-33.87Zm-27 505.09q-.62-7.12-1.25-14.23L235 741c-.93 27.28-6.26 61.86-36.54 70.82-4.66-26.49 2.38-54.11-1.36-80.7l-1.44.11c-10.38 170.17-13.44 340.71-20.92 511q-1.25 33.71-2.21 67.41c.78 10.25-3.52 27.07 2.47 35 .86-1.7 2.32-3.34 2.48-5.11 2.56-44.37 2.81-88.87 4.65-133.29 5.16-126.78 9.16-253.64 13.95-380.4.11-2.76 1.35-3.81 3.76-5 25.83-10.66 40.16-38.36 37.59-65.68Zm422.3-317.11v3.87c-16.53 13.5-27.86 33.77-41.62 49.08 10.66 147.87.16 301.4 3.81 451.13 0 35.82.22 71.64.15 107.46 0 4.22 1.31 5.41 5.45 5.33q604.16.19 1208.5-.31V409.16h-699.27V879h651.45V446.13h-613c.22 125.9.63 251.73.47 377.62 0 3.64.26 5.63 5 5.63 164.16-.35 328.32.54 492.47-.4 2.31 0 5.09-.6 5.53 3.75-167.43 2.46-335 .21-502.49 1-3 0-5-.12-5-4.15q-.27-194.13-.28-388.1 307.53 0 614.89-.08c6.88 0 6.9 0 6.92 6.79q.45 217.49.28 434.94c-217.69 1.9-435.48.43-653.21.93-7 0-8.38-1.23-8.39-8.32q-.12-76-.16-152 0-156.49.06-313c0-6.75 0-6.78 6.8-6.78h367.5q163-.06 326-.2c4.63 0 4.61-2.22 4.61-5.54 1.13-103-1.91-206.44.21-309.06.86-34.94 5.71-80.49-41.59-83.11l-863.52-.19q-128.68.08-257.33.26c-13.32 0-25.75 3.2-36.18 11.81-12.08 10-15.91 23.35-15.9 38.61.53 120.1-1.23 240.36.45 360.38 21-4.12 27.16-27.84 37.29-43.87.18 2.39.36 4.79.53 7.18-7.4 14.17-12.62 30.27-28 38C597.94 436.39 564 455 529.82 473.29c-5.43 4-28.73-17.11-35.77-20.9-4.82 31.61-21.62 55.11-45.26 74.61 21.22 12.09 73 45.46 94.24 27.75 41.85-33 74.58-75.27 110.39-114.34 1.34-1.47 4.19-1.58 6.34-2.33m-43.39 57.82c-25.47 21.45-46.26 48.06-75.15 65.58-1.29.79-2.28 3.16-2.29 4.8q.27 167.73.15 335.46 0 105.24-.15 210.48c0 4.26 1.32 5.27 5.38 5.26 43-.08 86 .06 129 .07q623.2.18 1246.4.12c4.58 0 6.73-1.13 6.22-6.21a153 153 0 0 1-.32-15.47q0-395.73-.07-791.45c0-6.67 0-7-6.85-7.06-25.69-.34-50.06-.37-76-.34v762.73H616.37ZM496.6 1171.1c-.61 48.12-11.06 123.32 58 124.89 430.74-1.1 861.51.56 1292.24-.89 25.71-1.13 52.42 3.94 77.56-2.34 51-19.33 39.39-78.18 40.27-121.66ZM163.52 651.39c5.94-4.57 21.44-32.35 25.16-14 .72 9.24-.36 13.3 10 15.78 17.82 6.24 35.53 12.83 53.14 19.63 5.62 2.17 5.89 4.8 1.47 9.22-6.56 6.54-13.77 12.46-19.93 19.34-4.26 4.75-9.12 6.13-15 6.42-20.93-1-45.36 9.24-63.15-5.61-2.27-2.06-5.08-3.53-7.64-5.27-3.82 5.87-4 7.83-3.95 18 0 4.61 1.87 6.11 6.32 6q19-.51 38-.54 88.2-.23 176.41-.35c7.28 0 9.45-1.48 10.3-8.58 3.05-48.57-1.51-97.5-3.3-146.1-2.82-60.07-6.87-120.34-13.86-179.8l1.25-.06c9.92 33.88 9.07 69.59 12.92 104.46.33 4.05 1.85 7 5 9.23 12.25 7 51.29 38 63.17 28.32 27.09-19.45 47.81-46.56 50.41-80.7 1.87-14.05-19.74-21.84-28.56-30.58-37.68-27.85-72.38-60.75-112.25-85.37-15.64-6.79-34.18-11.78-50.08-16.63-5.23 19.74-18.6 29.57-38.06 22.84-18.5-5.58-27.14-22.65-32.05-40.08-21 4.73-40.71 12.66-61.15 19.17-13.65 4.73-25.92 11.78-35.77 22.72-34.32 35.36-65 73.65-94.15 113.32-4.87 6.41-4.65 6.92.21 13.47 18.68 25.18 42.81 43.35 71.68 55.43 3.46 1.44 5.46.59 7.64-2.1 5.86-7.24 12-14.27 17.89-21.47 36.75-43 41.28-75 38.68-129.58 8.58 30.93 4.52 65.18-2.77 96.2-5 19.39-14.73 36.58-25.71 53.16a13.76 13.76 0 0 0-2 7.34c5.34 42.86 13.7 83.53 19.73 126.77m151 809c3.41-24.44 4.86-48.42 7-72.89.11-1.36-.62-3.48-1.65-4.12-12.47-8.9-8.76-31.75-11.37-45.55-3.54-54.81-8.36-109.51-13.1-164.22-6.13-58.49-8.64-117.46-19.11-175.42h-1.37c-22.35 103.08-30.64 209.76-39.07 315-1.45 19.19-2.75 38.4-4.14 57.6-.28 12.06-5.92 14.9-16.5 15.56-.06 7.21-6.76 28.39-2.35 32.33 12.54 9.58 24.76 19.69 38 28.21 19.31 12.75 43.27 2.11 63.62 13.48Zm1233 91.41c-4.41-15.68-15.19-34.81-33.24-34-25.85 1.69-51.67-2.14-77.42 1.76-159.52-1-319.46-1.1-479.11-1.5-18.07.38-26.44 19.52-32.86 33.77ZM230.71 697.12c-13.58-3.78-27.67-5-41.46-8-1.33-.26-2.4-1.9-3.6-2.9 8.48-3 20.46 3 29.7 3.41 9.75 1.18 19.78 4.33 28.82-1.14-3.18-2.27-5.73-5.82-9.66-6.75-16.2-4.14-32.76-7.12-48.75-12 .08-.55.17-1.11.26-1.67 19.36-2.27 37.91 8 56.44 12.55 3.16 1 6.4 2.06 9.51-2.92-18.95-10-39.43-14.91-59.54-21.79-9.2-1.64-6.51-11.92-8.3-18.88l-1.94-1.55C178 642.07 173 648 168 653.94c-3.23 3.82-4.54 3.56-7.5-.49q-18.06-24.71-36.31-49.27c-10.72-14.39-21.57-28.67-32.42-43-11.37-13.3 6.33-25.81 12.54-37.35-23.87-10.94-44.8-25.21-61.56-45.53-2.36-2.77-3.57-2.79-6 0-16 20.16-37.55 51.73-24.15 77.72 33.85 58.69 91.45 96.6 141.54 140.1 8.35 7.2 16.93 10 27.82 8.85 12.7-1.36 25.55-1.68 38.34-1.83 4.77.01 7.93-1.35 10.41-6.02M538.4 462.36c24.08-15.1 50.6-26.78 75.6-40.36a5.58 5.58 0 0 0 2.57-4.07c.1-39 0-78 .05-117 0-3.33-1.22-4.28-4.41-4.25-24.74.58-49-.63-73.78 1.08Zm-403.26 44.78-1.52-.17c-6.74 6.33-12.31 18.88-22 19.69-6.34-.15-12.6 14.88-17.09 19.78-5.55 7.1 3.73 14.17 7 20.32 18 24.19 37.29 47.5 54.57 72.24-6.3-44.24-12.36-88.27-20.96-131.86m191.52-268.81c0-13.38-.11-26.15 0-38.92.08-6.88.28-7-6.71-7.19a100.6 100.6 0 0 1-41.68-10.45c-5.46-2.65-7-2.12-9.36 3.63-3.51 8.51-4.86 16.74-.51 25.81 4.16 8.7 7 17.95 15.71 23.49 5.69 3.63 11.3 7.42 17.16 10.77 7.53 3.88 10.73-10.25 25.39-7.14m-.73 1147.3c-1.14 16.87-2.26 33.61-3.43 51 11 .73 21.18 1.69 31.4 2 21.49-2.5 22.89-37 20.71-53Zm-115.62 2.93c-14.34-2.78-29.86-1.15-44.65-2.1-1 0-2.61 2.12-2.84 3.45-2.45 14.42-4.62 28.9-7 43.33-.5 2.94.57 4 3.23 4.25 7.45.73 14.91 1.44 22.36 2.25 27.23 2.06 25.71-32.5 28.9-51.18m1194.25-43.82-1.54-.85c-48.74 40-64.76 105.37-67.91 165.81-.17 3.81 1.54 4 4.41 4 31.15-.6 62.17 1 93.27-.88Zm-917.15 141.59c-42.74-.18-85.33-.39-128-1.26-4.92-.07-3.51 3.86-3.81 6.53-.34 3.09 1.75 3.42 4.19 3.38 8.32-.16 16.64-.32 25-.32 31.62 0 63.25.15 94.88.16 5.15 0 7.33-2.4 7.74-8.49M303.25 1496l.48-1.84c-39.33-5.67-80.11-3.93-119.88-7.93-3.91-.27-4.81 2.26-5 5.37-.16 3.33 2 3.47 4.65 3.49 39.95.23 79.85.71 119.75.91m22.44-1248.17c-4.73-6.83-13.56-1-15.22 4.51-.19 2.76 4.7 6.67 8.25 6.6 2.86-.06 6.97-5.56 6.97-11.11" transform="translate(-4.28)" style="fill:#1a1825"/><path class="cls-2" d="M1831.17 151.53c2.25 82 0 164.56.8 246.74 0 3.32 0 5.54-4.61 5.54q-346.74.15-693.48.2c-6.8 0-6.8 0-6.8 6.78q0 232.5.1 465c0 7.09 1.35 8.32 8.39 8.32 217.73-.5 435.52 1 653.21-.93q-.15-217.48-.28-434.94c0-6.76 0-6.79-6.92-6.79q-307.52 0-614.89.08 0 194.16.28 388.1c0 4 2 4.15 5 4.15 167.49-.82 335.06 1.43 502.49-1-.44-4.35-3.22-3.76-5.53-3.75-164.15.94-328.31 0-492.47.4-4.71 0-5-2-5-5.63.16-125.89-.25-251.72-.47-377.62h613V879H1132.5V409.16h699.22v645.48c-249-.21-498.06.62-747.08 0-.53-297.79-.05-595.59-.18-893.39 0-10.19-2.11-9.18 9.34-9.19q368.69-.27 737.37-.53M1127.41 276c0 30 .11 59.67.1 89.76 78.54-2.22 159.75 4.32 237-2.36-75.34-6.69-155.13-.11-231.91-2.34-2.06-25.06-.36-49.93-.91-75 .78-25.61-1.56-51.56 1-77h651.77c0 48.79 0 97.48.17 146.26 0 4.59-1.07 5.83-5.76 5.82-82.86 1.92-167.87-4-249.68 2.26 83.24 6.65 170.15 0 254.59 2.41 2.94 0 5 .05 5-4q-.18-76.49 0-153c-209.42-14-437.43 0-652.94-4.79-10.14-.71-8.48 2.28-8.29 11-.17 20.37-.14 40.69-.14 60.98m87.54 232.88c-6 84-.46 169.56-1.54 254.08.07 11.18 10.85 15.92 20.87 15.24q103.25-.25 206.48-.19c13.79 0 17.73-3.69 17.75-17.39q.15-122.73 0-245.47 0-15.225-15-15.24-106.24-.09-212.48-.06c-7.2.03-12.05 3.66-16.08 9.07Zm-87.44 419.15c-.09 29.64-.23 59.28.06 88.92 187 14.09 397.16.07 591.73 4.94q32 0 64-.1c2.46 0 5 .5 5-3.56q-.27-47.73-.25-95.47c0-3.53-1.45-4.65-4.79-4.65-10 0-20-.26-30-.27-208.24 2.15-418.36-4.34-625.7 2.21q.07 4.03-.05 8.02Zm630-279.53c0-42.16.07-84.32 0-126.48 0-15.41-6.7-21.86-22-21.87q-110.23 0-220.47-.1c-11.48 0-17.61 5.72-18.3 17.12-.37 80 0 160-.15 240-.07 15.34-2.37 39.31 19.46 38.43 74.48-.61 149-.68 223.45-.75 11.47 0 17.5-5.87 18-17.33.22-42.98-.05-85.98.03-128.98Zm-580.86-390.6c-.23 6.6 4.34 4.88 7.29 4.88 179.71-2.48 363 5.06 541-2.47-181-6.75-365.91-.11-548.29-2.41m-1.72 54.21h512.87c3.05 0 4.5-.76 3.24-4.63q-256.24.21-512.49-.18c-2.78-.03-4.64.7-3.62 4.81m513.47 526.32c-5.3 4.61-3.71 4.35 0 8.13 3.88-2.85 2.66-4.25 0-8.13m57.93 5.85c-1.85-1.22-3.18-2.78-4.31-2.65-4.59 2.09-2.29 4.4.64 6.62 1.06-1.12 2.06-2.25 3.67-3.97m-20.31-.28c-3.9-3.39-4.82-1.84-8 .46 3.18 4.54 3.95 3.11 8-.46m40.14.22c-1.78-1.32-2.89-2.65-4.2-2.91-3.71 1.53-2.12 4 .15 6.34Zm-58.09-.29c-3.16-3.36-3.92-3.57-6.74-.32 2.72 3.66 2.86 4.28 6.74.31Z"/><path d="M1835.45 151.53q-368.68.33-737.37.5c-11.45 0-9.33-1-9.33 9.19.12 297.8-.36 595.6.17 893.4-136.57.44-274.34 1.44-410.42-.36 2.38-203 1.9-407.23.18-610.26l-19-2.05v-3.87c13 .55 27 3.26 38.38-4.65 9.22-6.2 17.72-13.48 26.5-20.33.53-.42.7-1.29 1.53-2.89-8.07.77-12.6 6.82-19.38 8.89.28-13.57 33.46-19.84 42.32-30.2l-1.05-1.47c-18.67 3.42-35.87 11.22-53.33 18.93 1.87-7.55 14.84-11.84 20.93-16.43 12.09-7.56 26.34-12.13 37.3-21.24l-1-1.59c-22.73 6.73-45.81 12.39-66.72 24.53l-1.16-2.08c15.39-14.31 35.94-21.49 52.41-34.37l-.9-1.57c-20.19 8-40.74 15.08-59.75 26.27-3-3.82.09-5.32 2.48-6.94 6.51-4.42 13.06-8.77 19.6-13.15l-.78-1.84c-4.5-.83-8.3 1.76-12.5 2.64-12.15 1.43-19 9.29-24.42 19.64-2.58-11 6.14-19.17 14.94-24 10.48-79.79.13-168.53 3.67-251.21 0-11.59-.08-11.59 11.24-11.44 381.81.53 763.62 0 1145.43.31ZM805.65 1019c-6.65.12-12.34 2.45-10.72 11.21.67 3.86 3.67 2.64 5.93 2.65 18 .07 35.92 0 53.87.14 3.44 0 5.61-.8 5.53-4.53 2.07-11.42-6.16-9-14.55-9.5-12-2.15-24.64-.3-36.86-.83a13 13 0 0 0-3.2.86m113.17-801q.1-21.5.22-43c0-2.67.53-5.25-3.8-5.23-28 .19-56 .18-84 .18-2.5 0-3.32.72-3.32 3.48q.13 43.2-.1 86.4c-.82 12.88 8.37 15.19 18.12 15.28 21.63-.24 43.26-.65 64.89-1 4.7-.07 7.5-2.29 8-7.12a13 13 0 0 0 .84-3.21c-.59-15.13 1.33-30.78-.85-45.78m-46.64 234.61v-.25c10 0 20 .13 30 0 14.41-.23 13.41 2.56 14.35-14.11 2-35.05 3.37-70.15 7.24-105 .32-3.28-.48-4.86-4.11-5.16-6.54 0-15-4.68-20.7-.31-13.27 16.53-40.71 14-52.23.08-4.6-5-17.12 1.44-23.57 1.61-2.55.49-3.58 1.78-3.32 4.48 2.54 28.83 4.75 57.69 7 86.54 2.79 43.58-6.64 29.94 45.34 32.12m13.88 130.83c3.75 59.74 7.26 122 10.73 182.28 2.12 13-3 33.75 15.63 35.53 14.16 1.39 18.68-9.52 18.12-20.83.35-77.23 3.4-154.75-4.94-231.69-5.79 7.19-10.47 14.86-16.92 20.52s-14.68 9.33-22.62 14.19m-67.35-33.36-1.19.25c-7.46 78.48-5.58 157.56-4.71 236.31.09 8.5 3.51 13.59 9.9 15.57 11.64 3.62 19.76-2.7 20.72-16.29q3.57-50.55 7-101.12c2.18-32.55 4.1-65.11 6.43-97.65.28-3.91-.9-5.06-4.26-6.28-15.7-5.19-26.15-16.41-33.89-30.79M872 495.25v.13h-39.47c-2.45 0-5-.21-5.62 3.39-1.95 15.78-9.59 33.38-3.77 48.84 19.5 48 99.67 36.43 99.21-16.51-2.09-10.77-4.59-21.45-6.71-32.22-.62-3.17-2.2-3.77-5.17-3.73-12.83.2-25.66.1-38.47.1m26.92 305.48c1.24 65.35 3.55 130.53 5.61 195.84 0 9.13 13.12 3.9 18.91 5 3-.09 4.25-1.59 4.27-4.78.69-65.77 1.49-130.39 1.48-196.33-10.7 9.8-20.34 7.6-30.28.27Zm-84.71 3.18c-1.29 63.57 1.45 128.16 1.79 192.09-.15 9.78 11.55 4.48 17.48 5.86 4.88.46 5.9-2 6-6.14 1.92-64.69 1.85-129 4-193.7-10.15 6.98-19.64 9.27-29.28 1.89Zm166.66-351.69c0-9-43.81-145.13-53.1-115.33-.62 15.67-4.22 32-3.17 47.42 6.82 6.68 9.41 15.57 12.19 24.17 19.03 53.11 1.49 49.73 44.08 43.74m-216.67 2.72 23.69 3c6.5.83 7.2.21 8.39-6.45a264.4 264.4 0 0 1 19.79-62.41 28 28 0 0 0 2.39-12.33c-.6-13.27-1.9-26.51-2.84-39.77-.29-4-2.64-4.83-5.17-2.58-26.45 34.08-34.37 79.83-46.25 120.54m217.29 1.59c-8.78 1.25-16.42 2.63-24.12 3.32-4 .35-5 1.86-4.73 5.6 1.86 32.53 3.42 65.08 5.42 97.6.73 12 1.64 12.07 13.8 10.58 5.48-.67 8.65-2.33 8.15-8.43 1.35-36.38 1.14-72.14 1.48-108.67m-188.56 17.33c-1.19-5.24 2.06-10.61-4.51-11.62-6.22-1-12.5-1.5-18.77-2.11-3.53-.34-5 1.25-5 5 .06 13-.33 26-.2 39 .2 19.47.43 38.95 1.17 58.41.46 12-.22 11 13 11.87 5.15.32 7-1.47 7.39-6.49 2.23-31.92 4.67-63.8 6.92-94.06m121-15.67h-84c2.13 33.93-9.51 31.75 22.26 31h56.91c2.26 0 4.85.65 4.81-3.14-.08-9.12-.02-18.24-.02-27.86Zm-27.69-178.06h-20.56c-7 0-6.78 0-7 7.13-.37 11.59-.17 23.31-7 33.68.4 16.26 32.27 16.13 40.89 6.19 2.31-2.34 3.38-4.34 1.06-7.67-6.77-11.79-4.92-25.78-7.39-39.33M765.93 578.9c-3.58 27.18-14.8 62 21.48 70.58.76.28 2-.63 3.93-1.33-11.4-9.54-22.83-20.18-17.44-36 .73-2.46 3.49-5.61 5.7-5.95s5.21 2.23 6.85 4.32c2.65 5.57 3.21 13.3 7.19 18.32 2.27 2.9 4.72.08 6.45-2 3.77-4.29-3.69-6.7-6-9.58l1.68-.36c6.3-12.72.76-25.43-6.54-36.09-6.38-4.1-15.23-1.05-23.3-1.91m189.42 68.34c.4.66.8 1.32 1.19 2 39.21-10.46 27.11-41.42 22.09-71.62-6.24 1.35-19.25-.82-23.64 3.65-5.65 10.57-11.45 21.13-6.67 33.83.94 2.5 2 5.57-2.28 6.67-2.58 1-.4 6.29.77 6.7 2.06.16 5.52-.32 6.09-1.59 3.2-7.58 4.29-27.61 16.52-17.61 11.07 13.98-3.62 28.84-14.07 37.97m-37.14 385.54c7.55-1 28.16 2.31 32.78-2a8.43 8.43 0 0 0-7.3-11.94c-17.44-.38-34.91 0-52.35.26-4.82.11-6.16 2.7-6.05 9.88.07 4.59 3.3 3.75 6 3.77 8.97.06 17.95.03 26.92.03M923.72 208c0 13.89-.06 27.46.09 41 0 1.52 1.25 3 1.93 4.54 3.17-1.86 7.58-2.56 6.56-7.3v-30.88c-.06-6.29-.98-7.14-8.58-7.36m-100.09 23h.06c-.75-7.63 2.37-16.39-2.81-22.82-2 1.44-5.69 2.82-5.75 4.34-.46 12.31-.47 24.65 0 37 .07 1.69 3.86 3.22 5.93 4.82 4.62-6.94 1.94-15.52 2.57-23.34m123.48 782.76c-10.3-13.2-26-4.82-39.61-7.13-7.18-.91-11 2.59-15.73 7.13Zm-91.77 0c-11.05-11.29-26.19-6.05-40-7.49-6-.28-9.87 2.52-13.33 7.49Z" transform="translate(-4.28)" style="fill:#3353af"/><path class="cls-4" d="M612.09 495.9v564h1226.32V297.14c25.94 0 50.31 0 76 .34 6.85.11 6.85.39 6.85 7.06.34 269-.57 538 .39 806.92.51 5.08-1.64 6.24-6.22 6.21q-623.19-.23-1246.4-.12c-43 0-86-.15-129-.07-4.06 0-5.39-1-5.38-5.26q.23-105.24.15-210.48 0-167.73-.15-335.46c0-1.64 1-4 2.29-4.8 28.89-17.48 49.69-44.13 75.15-65.58"/><path class="cls-5" d="M492.32 1171.1h1468.07c-.85 43.14 10.62 102.68-40.28 121.65-25.12 6.29-51.86 1.22-77.55 2.35-430.73 1.45-861.5-.21-1292.24.89-68.81-1.53-58.79-76.76-58-124.89m726.55 34.9c-33.35 2.45-32.68 47.39-1.49 50.82 30.12-1.49 33.51-48.01 1.49-50.82"/><path class="cls-2" d="M1831.14 93.89c-381.81-.35-763.62.22-1145.43-.31-11.32-.15-11.24-.15-11.24 11.44v245c-.5 9.18-14.53 7.85-19.16 23.05-10.18 16.06-16.28 39.72-37.3 43.87-1.68-120 .08-240.28-.45-360.38 0-15.26 3.82-28.65 15.9-38.61 10.46-8.63 22.89-11.81 36.26-11.83q435.54-.6 871.07-.07c83.29.08 166.57-.09 249.86 0a42.22 42.22 0 0 1 41.74 42.62c-.76 15.04 1.33 30.47-1.25 45.22m-611.24-23 1.2 2h57.8c3.71 0 4-2 3.17-4.82-19.49-1-39.35 0-59-.09-1.05.02-2.1 1.9-3.17 2.91m494.46-11.58c14.67.1 14.87-17.09.93-18.11-13.44.18-14.51 17.3-.93 18.11m32.42 0c14.72.08 15.19-17.39.65-18.16-13.42.35-14.24 17.26-.65 18.16m-96.35-.06c14.12 0 15.11-16.78 1.31-18-13.68.35-14.92 16.8-1.31 18m32.2 0c14.22-.47 14.31-17.59.25-18.06-13.28.5-13.8 17.75-.25 18.06m-64 .09c14 0 14.74-17 .88-17.89-13.74.09-14.17 16.93-.86 17.89Zm-783-17.91c-14.29.1-13.22 17.45-.29 17.65 14.38-.33 14.17-17.24.27-17.65Zm-32.15 17.74c14.17.52 14.12-17.86.76-18-13.52.08-13.12 17.74-.76 18m-31.25-.05c14.33.35 13.52-18 .28-17.6-13.53-.38-12.68 17.98-.28 17.6m-31.55 0c14.18-.19 13.45-17.33.61-17.82-13.42.08-13.49 17.61-.57 17.85Zm-30.56.07c13.35 0 13.42-17.59.38-17.8-13.48-.13-13.15 17.47-.38 17.83Zm1069.13-17.75c-12.67-.33-12.32 17.74-.44 17.53 13.63-.26 14.13-17.41.44-17.53m-191 .26c-13.35-.36-13.17 16.68-.72 17.47 13.32-.17 14.1-16.62.68-17.47ZM680.72 58.63c12.43-.18 12.45-16.7.54-17.52-12.11.04-12.65 17.12-.54 17.52"/><path d="M163.52 651.39c-6-43.23-14.39-83.91-19.71-126.77a13.76 13.76 0 0 1 2-7.34c11-16.58 20.7-33.77 25.71-53.16 7.29-31 11.35-65.27 2.77-96.2 2.61 54.54-2 86.68-38.68 129.58-5.91 7.2-12 14.23-17.89 21.47-2.18 2.69-4.18 3.54-7.64 2.1-28.87-12.08-53-30.25-71.68-55.43-4.86-6.55-5.08-7.06-.22-13.47 29.16-39.67 59.85-78 94.16-113.32 9.85-10.94 22.12-18 35.77-22.72 20.45-6.52 40.16-14.44 61.15-19.17 4.91 17.43 13.55 34.5 32.05 40.08 19.44 6.73 32.84-3.11 38.06-22.84 15.91 4.86 34.44 9.84 50.08 16.63 39.87 24.62 74.53 57.52 112.24 85.39 8.86 8.75 30.43 16.56 28.56 30.58-2.55 26.33-14 48.43-33.23 66.44-8.27 5.59-17.81 20.5-28.78 15.59-12.63-6.48-55.45-25-56.56-38.88-3.85-34.87-3-70.58-12.92-104.46l-1.25.06c7 59.47 11 119.73 13.85 179.8 1.8 48.6 6.36 97.53 3.31 146.1-.85 7.1-3 8.56-10.3 8.58q-88.2.18-176.41.35-19 0-38 .54c-4.45.12-6.28-1.38-6.32-6-.09-10.22.13-12.18 3.95-18 11.59 8.66 21 15.2 36.07 13 14.17-2.74 40.29 2.13 49.7-8.56 6.16-6.88 13.37-12.8 19.93-19.34 4.42-4.42 4.15-7-1.47-9.22-17.61-6.8-35.32-13.39-53.14-19.63-10.36-2.46-9.3-6.58-10-15.78-3.46-18.45-19.35 9.51-25.16 14" transform="translate(-4.28)" style="fill:#4471bd"/><path class="cls-2" d="m655.43 442 19 2.05c-.07 203.49.2 407-.21 610.46-17 .13-34 .15-51 .49-4.14.08-5.45-1.11-5.45-5.33-3.88-185.53 6.74-374.92-4-558.59 13.8-15.36 25.13-35.64 41.66-49.08"/><path class="cls-4" d="M1543.19 1551.78H920.56c6.33-14.24 14.85-33.39 32.86-33.77q231.14.39 462.26 1.2c5.63 0 11.53 1.49 16.85.3 16.64-3.73 33.33-.37 50-1.37 34.19-.92 48.13-4.7 60.66 33.64"/><path d="M660.14 380.23c5.41-10.35 12.26-18.21 24.42-19.64 4.2-.88 8-3.47 12.5-2.64l.78 1.84c-6.54 4.38-13.09 8.73-19.6 13.15-2.39 1.62-5.51 3.12-2.48 6.94 19-11.19 39.56-18.3 59.75-26.27l.9 1.57c-16.47 12.88-37 20.06-52.41 34.37l1.27 2.08c20.91-12.14 44-17.8 66.72-24.53l1 1.59c-10.22 10.24-54.21 25.12-58.23 37.67 17.46-7.71 34.66-15.51 53.33-18.93l1.05 1.47c-8.83 10.32-42.14 16.71-42.32 30.2 6.78-2.07 11.31-8.12 19.38-8.89-.83 1.6-1 2.47-1.53 2.89-8.78 6.85-17.28 14.13-26.5 20.33-11.41 7.91-25.34 5.19-38.38 4.65-2.15.75-5 .86-6.34 2.34-35.84 39.07-68.57 81.32-110.45 114.34-21.59 17.69-72.72-15.6-94.24-27.75 23.64-19.51 40.44-43 45.26-74.62 6.93 3.75 30.41 24.87 35.77 20.9 34.14-18.3 68.12-36.9 102.33-55.07 15.39-7.72 20.62-23.82 28.02-37.99" transform="translate(-4.28)" style="fill:#fafbfb"/><path d="M226.43 697.12c-2.48 4.67-5.64 6-10.42 6.09-12.79.15-25.64.47-38.34 1.83-10.89 1.16-19.47-1.65-27.82-8.85-50.13-43.49-107.7-81.42-141.53-140.1-13.42-26 8.13-57.5 24.14-77.72 2.47-2.82 3.68-2.8 6 0 16.76 20.33 37.69 34.59 61.56 45.53-6.22 11.51-23.91 24.07-12.54 37.35 10.85 14.29 21.7 28.57 32.42 43q18.28 24.54 36.31 49.27c3 4 4.27 4.31 7.5.49 5-6 10-11.87 14.16-18.44l1.94 1.55c1.79 7-.9 17.24 8.3 18.88 20.12 6.88 40.58 11.82 59.54 21.79-3.11 5-6.35 3.88-9.51 2.92-18.53-4.5-37.09-14.82-56.44-12.55-.09.56-.18 1.12-.26 1.67 16 4.85 32.55 7.83 48.75 12 3.93.93 6.48 4.48 9.66 6.75-9 5.47-19.07 2.32-28.82 1.15-9.27-.46-21.17-6.46-29.7-3.42 1.2 1 2.27 2.64 3.6 2.9 13.79 2.93 27.92 4.13 41.5 7.91m307.69-234.76V297.74c24.76-1.71 49-.5 73.78-1.08 3.19 0 4.41.92 4.41 4.25 0 39 0 78-.05 117a5.58 5.58 0 0 1-2.54 4.09c-25 13.58-51.53 25.26-75.6 40.36" style="fill:#fafafa"/><path class="cls-9" d="M233.15 755.16c2.59 27.37-11.75 55-37.61 65.8-2.41 1.16-3.65 2.21-3.76 5-4.79 126.76-8.79 253.62-13.95 380.4-1.84 44.42-2.09 88.92-4.65 133.29-.16 1.77-1.62 3.41-2.48 5.11-6-7.75-1.7-25-2.47-35q1-33.7 2.21-67.41c7.48-170.32 10.54-340.86 20.92-511l1.44-.11c3.74 26.59-3.3 54.21 1.36 80.7 25.55-7.46 34.82-35.5 35.64-59.65Z"/><path class="cls-10" d="M260.18 250.07c-.6 20.14 14.21 27.13 29.5 33.79-3.33 7.91-7 17.4-3.13 25.23 11.93 28.87-34.23 35.19-49.74 5-4-7-8.69-14-3.14-22 4.19-7.1 6-15.67 8.45-23.71 2-8 1.74-18.67 12-20.53Zm62.2-11.74c-14.74-3.09-17.79 11-25.35 7.14-5.86-3.35-11.47-7.14-17.16-10.77-8.7-5.54-11.55-14.79-15.71-23.49-4.35-9.07-3-17.3.51-25.81 2.37-5.75 3.9-6.28 9.36-3.63a100.6 100.6 0 0 0 41.69 10.45c7 .2 6.79.31 6.71 7.19-.16 12.77-.05 25.59-.05 38.92"/><path class="cls-2" d="M321.65 1385.63h48.68c2.18 15.92.78 50.47-20.7 53-10.23-.29-20.43-1.25-31.41-2 1.17-17.39 2.29-34.13 3.43-51"/><path class="cls-11" d="M206.03 1388.56c-3.18 18.66-1.69 53.25-28.94 51.18-7.45-.81-14.91-1.52-22.36-2.25-2.66-.26-3.73-1.31-3.23-4.25 2.42-14.43 4.59-28.91 7-43.33.23-1.33 1.88-3.47 2.84-3.45 14.83.95 30.38-.68 44.69 2.1"/><path class="cls-12" d="m1400.28 1344.74 28.23 168.07c-31.1 1.9-62.12.28-93.27.89-2.87 0-4.58-.19-4.41-4 3.15-60.43 19.18-125.83 67.91-165.81Zm-.69 17.37c-5.95 2.4-9.5 2.06-14.84-.89-.2 2.66-.44 5.91-.77 10.22-11.91.49-14 12.49-20.14 20.47l3.11 4.29-4.17.5 1.26.65c-13.31 18.75-19.51 41.6-22.36 63.58-3.53 5.58-4.37 11.51-3.38 17.91-.94 8.29-3.84 16.33-2.92 24.87-.25 3.76.94 5.44 5 5.4 16.83-.16 33.66 0 50.49-.19 1.69 0 3.27-2.05 5.07-2.52 12.31-3.24 1.9 4.41 16 2.43 1.71-6.41.71-18.94 4.77-23.19 3.47-1.06 3-3.8 2.6-6.11-1.17-7.35-2.16-14.78-4.22-21.89-.88-3-2.1-5.14-1.22-8.76a15.68 15.68 0 0 0-2.29-11.45c-4-5.31-.44-10.86-1.82-16.49-5.23-19.01-6.47-39.76-10.17-58.83m21.45 127.21c-.16-.86-.44-1-1.18-.52.16.86.44.99 1.18.52"/><path class="cls-9" d="M315.23 1047.08c10.07 98.27 16.11 197.05 18.76 295.85-3.19.38-5.36.16-5.61-3.64-.41-6.13-1.33-12.22-1.59-18.35-4.1-92.63-6.65-185.39-15.19-277.73Zm167.9 439.25c-.39 6.09-2.59 8.49-7.82 8.49-31.63 0-63.26-.13-94.88-.16-8.32 0-16.64.16-25 .32-2.44 0-4.53-.29-4.19-3.38.3-2.67-1.11-6.6 3.81-6.53 42.75.87 85.34 1.08 128.08 1.26M298.97 1496c-39.9-.2-79.8-.68-119.71-.91-2.62 0-4.81-.16-4.65-3.49.15-3.11 1.05-5.64 5-5.37 39.77 4 80.55 2.26 119.88 7.93Z"/><path class="cls-13" d="M301.1 767.15c-2.62 50.06-9.25 100.1-21 148.85l-3.53 1c11.12-50.09 17.32-100.82 22-151.88Z"/><path class="cls-9" d="M352.32 739.09c2.52 12.41 4.79 24.88 7.66 37.21 2 8.45 5.72 16 14.66 19.4.63.25 1.55 1.4 1.41 1.72-1.13 4.32-8.07 1.67-10.7.54-15.63-8.84-13.18-45.57-16.63-62.59Zm-92.14-489.02-6.11-2.18c1.43-8.75 1.38-17-4.56-24.63-2.24-2.87-3.07-7.14-3.55-10.89-.19-1.43 2.41-3.21 3.75-4.83 5.87 5.25 2.3 10 2.93 17.11l6.92-5.13c.22 10.92.42 20.73.62 30.55m61.23-2.24c0 5.55-4.11 11-7 11.11-3.55.07-8.44-3.84-8.25-6.6 1.7-5.47 10.56-11.34 15.25-4.51"/><path class="cls-12" d="m315.23 1047.08-3.63-3.87q-2-16.07-4-32.12h3.55c1.28 12.01 3.67 23.91 4.08 35.99"/><path class="cls-14" d="M311.15 1011.1h-3.55c-.89-6.65-1.65-13.31-2.24-20l2.78.08q1.52 9.95 3.01 19.92M301.1 767.15l-2.54-2v-18h2.54Zm-67.95-11.99-3.35-2.95.92-11.21 1.2-.11q.61 7.11 1.23 14.27"/><path class="cls-15" d="m308.14 991.17-2.78-.08q-.64-7-1.3-13.92l1.6-.22z"/><path class="cls-14" d="m352.32 739.09-3.6-3.72v-7.76l1.15-.27q1.24 5.88 2.45 11.75"/><path class="cls-12" d="m276.6 917 3.53-1-3 11.1-1.73-2.05c.41-2.68.8-5.36 1.2-8.05"/><path class="cls-14" d="m275.41 925.05 1.73 2.05-2 6.79-1.6-.48Z"/><path class="cls-12" d="M306.64 1004.09c.17 1 .35 2.1.52 3.14-.18-1.04-.35-2.09-.52-3.14"/><path class="cls-16" d="M1127.42 985c.87-21.69.13-43.23.15-64.95 217.34-6.34 437.45-.49 655.68-1.94 3.34 0 4.79 1.12 4.79 4.65q0 47.75.25 95.47c0 4.06-2.55 3.55-5 3.56-217.09.35-434.2-.31-651.28.1-8.26 1.39-3.14-12-4.57-16.9-.37-3.99 3.83-18.99-.02-19.99m606.53-64c-200.25 3.31-401.14 0-601.62 1.09V1017c215.32.49 430.69-.35 646 .17 4.32 0 5.21-1.35 5.2-5.4q-.08-42 .39-84c.06-4.53-1.31-5.73-5.56-5.66-14.81.03-29.79.89-44.41-1.11"/><path class="cls-17" d="M1757.53 648.54c-.08 43 .18 86-.09 129-.51 11.46-6.54 17.31-18 17.33-74.48.07-149 .14-223.45.75-21.81.85-19.54-23.07-19.46-38.43.1-80-.22-160 .15-240 .69-11.4 6.82-17.12 18.3-17.12q110.24.12 220.47.1c15.35 0 22 6.46 22 21.87.15 42.18.08 84.34.08 126.5m-8.75 139.28a.54.54 0 0 0 .42-.34c6.72-4.74 3.45-13.62 4-20.54v-25.91c.08-40.66 0-81.33.09-122v-94c1.1-17-2.52-20.89-19.45-20.94-71.33 0-142.66.12-214-.05-15 0-19.06 0-19 19.25.18 38.16.16 76.33.21 114.49q.08 70.25.18 140.49c0 8.21 4.82 12.93 13.06 13.26 5.16.21 10.36-.37 15.48.09s5.73-1.67 5.72-6c.6-79.49-1.05-159.11.65-238.54l1.88-.4c3 79.63.26 159.52 1.08 239.24 0 2.75-.32 5.71 4 4.75 68.4-1.97 138.11 4.5 205.68-2.85"/><path class="cls-18" d="M1127.48 213c-.59-8.92-.59-9 8.28-9 215.43 4.75 443.6-9.17 652.94 4.77q-.13 76.51 0 153c0 4.09-2.06 4-5 4-84.43-2.41-171.35 4.24-254.59-2.41 81.82-6.3 166.82-.34 249.68-2.26 4.69 0 5.78-1.23 5.76-5.82-.2-48.79-.15-97.47-.17-146.26h-651.74c-.31 1.39-.6 2.66-.88 3.92Z"/><path class="cls-18" d="M1176.65 257.9c182.36 2.3 367.31-4.34 548.29 2.41-178 7.53-361.27 0-541 2.48-2.95-.01-7.52 1.71-7.29-4.89"/><path class="cls-19" d="M1174.93 312.11c-1-4.07.84-4.84 3.62-4.84q256.25.18 512.49.18c1.26 3.87-.19 4.64-3.24 4.63q-256.44-.39-512.87.03"/><path d="M1217.69 763c-.86-36.65-.28-73.3-.22-110 4.74 35.11-2.76 72.27 3.13 107-2.3 11.64 8.51 15.73 18.21 15.87 68.31 0 136.66.62 205-.07 12.55-.46 15.72-3.43 16-12.39.39-15.46.79-30.93.85-46.4-.58-53.86-.79-107.78 0-161.66 0-13.8-.45-27.61-.86-41.41.31-9.36-8.76-10.88-16.18-10.95-69-.25-138-.06-207-.11-5.88 0-11.15 1.27-14.81 6.37l-2.52-.4c4-5.41 8.88-9 16.14-9q106.23.11 212.48.06c10 0 15 5.09 15 15.24q.06 122.73 0 245.47c0 13.7-4 17.38-17.75 17.39q-103.24.11-206.48.19c-10.13.61-20.77-3.7-20.99-15.2" transform="translate(-4.28)" style="fill:#132666"/><path class="cls-18" d="M1131.72 354c.24 2.13.49 4.26.82 7.06 76.77 2.23 156.58-4.35 231.91 2.34-77.21 6.69-158.4.14-237 2.36V354Z"/><path class="cls-21" d="m1214.95 508.92 2.52.39c-2.5 83.55-.31 167.18-1.15 250.76-4.88-33-.39-67.87-1.95-101.5-4.32-46.11-.48-93.26-1.6-139.72.01-3.32 1.42-6.62 2.18-9.93"/><path class="cls-16" d="M1127.4 321v-40a42.4 42.4 0 0 0 4.23 5v3c-3.25 2.5-3.24 10.47 0 13.05V306l-1.72 1.22 1.72.67v12.18Z"/><path class="cls-18" d="M1127.4 264.05v-2c.67-1 1.9-1.88 1.92-2.83-.75-7 2.34-21.19-1.91-26.17l.06-18c1.37 3.65-1.33 14.54 4.14 14l.06 32.88Zm0 56.95 4.26-.91v19.94l-4.15.66q-.05-9.81-.11-19.69"/><path class="cls-16" d="m1127.51 340.73 4.15-.66.07 14h-4.22Z"/><path class="cls-18" d="M1131.64 286.08a42.4 42.4 0 0 1-4.23-5c-.76-4.68 1.56-8.37 4.25-12Z"/><path class="cls-19" d="M1127.43 941.05c.76 10 1.38 20 0 30Z"/><path class="cls-16" d="M1127.41 233c.67 1 1.9 1.88 1.92 2.84-.76 7 2.33 21.2-1.93 26.16Zm4.2-3.95c-5.06 1.38-3.36-12.57-4.13-16h4.24Z"/><path class="cls-22" d="M1688.4 838.43c2.66 3.88 3.88 5.28 0 8.13-3.68-3.79-5.3-3.56 0-8.13"/><path class="cls-19" d="M1127.42 985c3.86 1-.36 15.86 0 20q.01-10 0-20"/><path class="cls-22" d="M1746.33 844.28c-1.6 1.72-2.63 2.85-3.67 4-2.94-2.23-5.23-4.53-.63-6.62 1.12-.16 2.45 1.4 4.3 2.62"/><path class="cls-16" d="M1131.66 269a60 60 0 0 0-4.25 7v-12l4.27-2.12q-.02 3.61-.02 7.12"/><path class="cls-22" d="M1726.02 844c-4 3.59-4.82 5-8 .46 3.18-2.31 4.09-3.86 8-.46m40.14.21-4 3.43c-2.27-2.3-3.86-4.82-.15-6.34 1.26.26 2.37 1.59 4.15 2.91"/><path class="cls-18" d="M1131.65 302.11c-3.25-2.58-3.26-10.55 0-13.05q-.01 6.53 0 13.05"/><path class="cls-22" d="M1708.07 843.92c-3.88 4-4 3.34-6.74-.32 2.82-3.25 3.58-3.04 6.74.32"/><path class="cls-19" d="M1127.51 928.07c0 3.66-.06 7.31-.08 11 .02-3.69.05-7.34.08-11m-.08 78.98.14 9.94q-.06-4.99-.14-9.94m.14-86.96v3.89Z"/><path class="cls-18" d="m1131.65 308-1.72-.67 1.72-1.22Z"/><path class="cls-21" d="M1213.41 763v1c-.08-.36-.41-.7 0-1"/><path class="cls-23" d="M867.9 452.61c-52-2.19-42.55 11.46-45.41-32.2-2.21-28.85-4.42-57.71-7-86.54-.26-2.7.77-4 3.32-4.48 6.36-.2 19.08-6.62 23.57-1.61 11.52 13.93 39 16.45 52.23-.08 5.71-4.38 14.14.37 20.7.31 3.63.3 4.43 1.88 4.11 5.16-3.87 34.9-5.22 70-7.24 105.05-.94 16.67.06 13.88-14.35 14.11-10 .16-20 0-30 0Z"/><path class="cls-5" d="M914.54 267.05c-.45 4.83-3.25 7.05-8 7.12-24.7-.46-49.77 2.76-74.28-.22-6.25-1.34-8.78-6-8.73-14.06q.24-43.2.1-86.4c0-2.76.82-3.48 3.32-3.48 28 0 56 0 84-.18 4.33 0 3.82 2.56 3.8 5.23q-.3 45.99-.21 91.99"/><path class="cls-4" d="M881.78 583.44c8-4.86 16.17-8.52 22.62-14.19s11.13-13.33 16.92-20.52c8.34 76.95 5.29 154.46 4.94 231.69.55 11.26-4 22.27-18.12 20.83-18.67-1.78-13.51-22.55-15.63-35.53-3.47-60.26-6.98-122.55-10.73-182.28m-67.35-33.36c7.74 14.39 18.19 25.58 33.92 30.79 3.36 1.22 4.54 2.37 4.26 6.28-2.33 32.54-4.25 65.1-6.43 97.65q-3.39 50.57-7 101.12c.5 22.83-31.16 22.9-30.62.72-.87-78.75-2.75-157.83 4.71-236.31Z"/><path class="cls-2" d="M867.72 495.25c12.82 0 25.65.1 38.47-.07 3 0 4.55.56 5.17 3.73 2.12 10.77 4.62 21.45 6.71 32.22.46 52.94-79.71 64.52-99.21 16.51-5.82-15.47 1.83-33 3.77-48.84.62-3.6 3.17-3.38 5.62-3.39 13.15-.06 26.31 0 39.47 0Z"/><path class="cls-10" d="M894.63 800.73c9.94 7.33 19.58 9.53 30.27-.25 0 65.93-.79 130.57-1.48 196.33 0 3.19-1.25 4.69-4.27 4.78-5.78-1.07-18.88 4-18.91-5-2.06-65.33-4.37-130.51-5.61-195.86m-84.71 3.18c9.64 7.38 19.13 5.13 29.32-1.91-2.17 64.72-2.1 129-4 193.7-.08 4.16-1.1 6.6-6 6.14-5.92-1.33-17.63 3.88-17.48-5.86-.38-63.9-3.12-128.5-1.84-192.07m166.67-351.69c-6.54-.11-29.41 7.09-30.82.53-4.53-14.72-8.52-29.62-13.26-44.27-2.78-8.6-5.37-17.49-12.19-24.17-1.05-15.4 2.55-31.75 3.16-47.42 9.24-29.83 52.98 105.95 53.11 115.33m-216.67 2.72c11.88-40.7 19.76-86.46 46.24-120.54 2.54-2.25 4.89-1.46 5.18 2.58.94 13.26 2.24 26.5 2.84 39.77a28 28 0 0 1-2.39 12.33A264.4 264.4 0 0 0 792 451.49c-1.19 6.66-1.89 7.28-8.39 6.45Z"/><path class="cls-11" d="M977.21 456.53c-.34 36.53-.13 72.3-1.48 108.67.5 6.1-2.67 7.76-8.15 8.43-12.16 1.49-13.07 1.38-13.8-10.58-2-32.52-3.56-65.07-5.42-97.6-.22-3.74.71-5.25 4.73-5.6 7.7-.69 15.34-2.07 24.12-3.32"/><path class="cls-10" d="M788.65 473.86c-2.25 30.26-4.69 62.12-6.93 94-.35 5-2.24 6.81-7.39 6.49-13.2-.82-12.52.16-13-11.87-.74-19.46-1-38.94-1.17-58.41-.13-13 .26-26 .2-39 0-3.72 1.46-5.31 5-5 6.27.61 12.55 1.15 18.77 2.11 6.59 1.07 3.33 6.44 4.52 11.68"/><path class="cls-4" d="M909.61 458.19c0 9.62-.06 18.74 0 27.86 0 3.79-2.55 3.14-4.81 3.14h-56.9c-31.75.69-20.16 3-22.27-31Z"/><path class="cls-10" d="M881.96 280.13c2.47 13.55.61 27.54 7.4 39.33 2.32 3.33 1.25 5.33-1.06 7.67-8.61 9.95-40.5 10.06-40.89-6.19 6.81-10.37 6.61-22.09 7-33.68.23-7.11 0-7.12 7-7.13Z"/><path class="cls-24" d="M761.65 578.9c8 .86 16.92-2.19 23.33 2 7.3 10.66 12.85 23.38 6.54 36.09l-1.68.36c2.29 2.87 9.74 5.29 6 9.58-1.73 2-4.18 4.86-6.45 2-4-5-4.54-12.76-7.19-18.32-1.64-2.09-4.77-4.64-6.85-4.32s-5 3.49-5.7 5.95c-5.39 15.8 6 26.44 17.44 36-2 .7-3.17 1.61-3.93 1.33-36.32-8.68-25.09-43.51-21.51-70.67m189.42 68.34c10.45-9.12 25.15-24 14.07-38-12.24-10-13.32 10-16.52 17.61-.57 1.27-4 1.75-6.09 1.59-1.17-.42-3.36-5.67-.77-6.7 4.29-1.1 3.22-4.17 2.28-6.67-4.78-12.7 1-23.26 6.67-33.83 4.41-4.49 17.38-2.28 23.64-3.65 5 30.22 17.1 61.17-22.09 71.62-.39-.65-.79-1.31-1.19-1.97m-37.14 385.54h-26.92c-2.7 0-5.93.82-6-3.77-.11-7.18 1.23-9.77 6.05-9.88 17.44-.25 34.91-.64 52.35-.26a8.43 8.43 0 0 1 7.3 11.94c-4.58 4.28-25.28 1.01-32.78 1.97m-72.5-13.86c3.32.12 6.66.09 10 .39 6.23.57 4.5 5.39 4.59 9.11s-2.09 4.56-5.53 4.53c-18-.15-35.91-.07-53.87-.14-2.26 0-5.26 1.21-5.93-2.65-1.59-8.76 4.05-11.09 10.72-11.21Z"/><path class="cls-15" d="M674.22 1054.26q.46-305.13.18-610.26c1.72 203 2.2 407.29-.18 610.26"/><path class="cls-24" d="M919.44 208c7.6.26 8.52 1.11 8.54 7.39q.06 15.43 0 30.88c1 4.73-3.39 5.44-6.56 7.3-.68-1.51-1.92-3-1.93-4.54-.11-13.61-.05-27.18-.05-41.03m-100.09 23c-.61 7.81 2 16.39-2.52 23.31-2.07-1.61-5.86-3.14-5.93-4.83-.52-12.31-.51-24.65 0-37 .06-1.52 3.75-2.9 5.75-4.34 5.18 6.42 2.06 15.19 2.81 22.82Zm123.48 782.77h-55.34c4.73-4.54 8.55-8 15.73-7.13 13.64 2.36 29.31-6.07 39.61 7.13m-91.77-.05h-53.28c3.46-5 7.31-7.77 13.33-7.49 13.76 1.44 28.9-3.8 39.95 7.49"/><path class="cls-15" d="M914.54 267.05V218c2.2 15 .26 30.61.84 45.81a13 13 0 0 1-.84 3.24m-73.11 751.87h-40.06c12-2.2 24.65-.32 36.86-.86a13 13 0 0 1 3.2.86"/><path class="cls-18" d="M1218.87 1206c32 2.77 28.62 49.3-1.49 50.82-31.2-3.4-31.85-48.34 1.49-50.82m18.69 24.67c-2.19-26.7-35.74-24.58-39.59-.11 1.39 25.98 37.66 28.04 39.59.15Z"/><path class="cls-16" d="M1219.9 70.89c1.07-1 2.12-2.9 3.2-2.91 19.62.1 39.48-.88 59 .09.8 2.79.54 4.83-3.17 4.82h-57.8Zm494.46-11.58c-13.58-.81-12.51-17.93.93-18.11 13.94 1.02 13.74 18.21-.93 18.11m32.42 0c-13.59-.9-12.77-17.81.65-18.16 14.54.77 14.06 18.24-.65 18.16m-96.35-.06c-13.61-1.2-12.37-17.65 1.31-18 13.81 1.22 12.81 18.05-1.31 18m32.2 0c-13.55-.31-13-17.56.25-18.06 14.06.48 13.97 17.59-.25 18.06m-63.98.09c-13.31-1-12.88-17.8.88-17.89 13.86.86 13.11 17.93-.88 17.89M835.61 41.43c13.9.41 14.09 17.32-.29 17.65-12.94-.2-14-17.55.29-17.65m-32.13 17.74c-12.36-.26-12.76-17.92.76-18 13.36.14 13.41 18.53-.76 18m-31.25-.05c-12.4.38-13.25-18 .28-17.59 13.21-.41 14.05 17.95-.28 17.59m-31.51.03c-12.88-.24-12.81-17.77.61-17.82 12.8.49 13.53 17.67-.61 17.82m-30.6.07c-12.77-.37-13.09-18 .38-17.8 13.04.21 12.97 17.79-.38 17.8m1069.13-17.78c13.69.12 13.19 17.27-.45 17.53-11.87.21-12.22-17.86.45-17.53m-191.04.26c13.43.85 12.64 17.31-.72 17.47-12.45-.79-12.63-17.83.72-17.47M680.72 58.63c-12.1-.4-11.55-17.49.54-17.52 11.89.82 11.87 17.34-.54 17.52"/><path class="cls-25" d="M1399.59 1362.11c3.7 19.07 4.94 39.82 10.18 58.83 1.39 5.63-2.19 11.17 1.83 16.49a15.68 15.68 0 0 1 2.29 11.45c-.88 3.62.34 5.73 1.22 8.76 2.06 7.11 3 14.54 4.22 21.89.37 2.31.87 5-2.6 6.11-4.06 4.27-3.06 16.73-4.77 23.19-14.13 2-3.65-5.67-16-2.43-1.8.47-3.38 2.5-5.07 2.52-16.83.2-33.66 0-50.49.19-4.09 0-5.28-1.64-5-5.4-.92-8.54 2-16.58 2.92-24.87-1-6.4-.15-12.33 3.39-17.91 2.84-22 9-44.82 22.35-63.58l-1.26-.65 4.17-.5-3.11-4.29c6.17-8 8.23-20 20.14-20.47.33-4.31.57-7.56.77-10.22 5.33 2.95 8.87 3.29 14.82.89m21.45 127.21c-.75.47-1 .33-1.18-.52.74-.46 1.02-.34 1.18.52"/><path class="cls-23" d="M1736.86 921c13.52 2.74 27.75.65 41.53 1.11 4.25-.07 5.62 1.13 5.56 5.66q-.52 42-.39 84c0 4-.88 5.4-5.2 5.39-215.34-.51-430.71.33-646-.16v-94.89c201.42-1.04 403.28 2.16 604.5-1.11m-517.26 48.44-.87 1.63c164.18 6.16 337.43 4.39 502 .61-164.61-6.25-334.73-.07-501.13-2.22Z"/><path class="cls-5" d="M1738.49 790.56c-61.41 0-122.84.61-184.24 0 1.75-7.2-9.35-2.1-8.74-9.24.34-8.08.91-16.16.82-24.23s1.29-12.18 11.08-11.06c9.77 3.19 20.46.28 30.59 1 5.53 0 10.92 0 15.41-3.91 38.1-.13 76.28-.74 114.35.72 1.28-.7 2.85-2.69 4.52-3.31l-2.56-1.53.63-2 1.62-1.2-1.62-.72.28-9c3-1.88 3-5.86 0-9v-8c3.88-3.11 3.87-4.93 0-8l-.25-56 2.71-1.24c-1.91-2.6 1.66-7-2.82-8.73l-.25-13.84c1.91-1.86 2.58-3.64-.35-5.18q-1.08-2.25-2.17-4.5c-1.62-.12-3.25-.16-4.88-.18-3.92-2-7.2-6.26-11.75-6.33v-23c5.67-.94 6.33-14.67-.42-13l-.93-1c1.47-11.58-17.4-3.23-8.59-18.2-30.19 2.35-60.93-.66-91.38.05q-2-4.08-4 0h-4l-1.28-1.71-1.73 1.71h-3c-3.32-3-6.66-2.86-10-.07h-4c-4.36-3.74-12-1.8-17.59-2.61-1.14 0-2.29 1.67-3.43 2.57h-2l-9.58-7-.7 3.89c-1.83.15-3.21 1.26-4.69 2.23l2.51 2.26c-.17 2.2-.34 4.39-.52 6.59l-1.8.79 1.8.63c.62 75.48 0 151 .17 226.44 0 4.35-.74 6.47-5.72 6s-10.32.12-15.48-.09c-8.24-.33-13-5-13.06-13.26-.25-85-.07-170-.39-255-.09-19.21 4-19.29 19-19.25 71.33.17 142.66.05 214 .05 18.4-1.36 23.16 9.3 17.58 25.34-.27 11.27.35 22.57-.85 33.79-.13 3.91-.07 7.83 0 11.75 0 3-1.44 6.48 2.73 8.06v14q-4.59 2.52 0 5v17c-3.41 1.29-2 15.14-2.74 19.16 0 .92 1.76 1.9 2.7 2.85v4c-2.88-.22-3 1.68-2.89 3.76s-.47 4.45 2.88 4.25v8c-1 1.28-2.66 2.51-2.74 3.84.46 6.69-2.59 15 2.74 20.17v26l-3.65 1 3.64 1.1v27.9c-.86.36-2.44.69-2.46 1.09-.19 3.94-.19 7.9 0 11.84 0 .4 1.6.73 2.46 1.09v11.89c-4.06.45-2.42 3.32-2.54 5.61-.66 4.94-.54 10.76-1.9 15.27-5.3-3.21-9.69-2.04-10.53 2.7"/><path class="cls-5" d="M1557.41 746c-9.79-1.12-11.17 3.1-11.08 11.06s-.48 16.15-.82 24.23c-.61 7.13 10.49 2 8.74 9.24l-11 .09c-2.24-48.23 1.24-96.66-.09-144.93-.08-4.9-3.39-9.78-.09-14.74.23-.34-.36-1.16-.45-1.78-1.36-24.55-.83-49.72-1.13-74.4 7.46 0 14.14 0 20.81-.11.39 0 .75-1.6 1.12-2.45h8c.71.75 1.45 2.18 2.13 2.15 13.94-.58 27.86-.73 41.7 1.56 7.8-1.35 15.48-2.39 23.42-1.17 7.37.15 14.74.24 22.1.07 2.27-.05 5.48 2 6.65-2h12c2.14 4.31 6.06 1.17 9 2.15-.28 8.55 12.72 3.44 11 13.06l-11-.39c-1.71-2.49-3.38-2.57-5 .08h-2c-.21-.8-.43-1.6-1-3.78-.58 2.19-.79 3-1 3.79h-4l-2.74-3.41-3.28 3.36h-20l-3-3.59c-1 1.2-2 2.39-3 3.58h-4l-2-2.56-2 2.56h-8c-1.54-4-6.48-5.58-6 0h-8c-1.59-5.55-4.27-6.84-8.8-4.29l1.77 4.29h-3l-1-1.28-1 1.3h-5.17c.28-6.91-10-3-12.83-.05h-10l-1.44-3.47-1.1.28-.5 3.21h-4c-1.73-2.37-3.41-2.48-5 .1-6.28 4.85-3.18 13.39-4.22 20.29-2.77 1.35-2.77 2.68 0 4v8c-3.91 2.5-3.89 4.58 0 7v6c-7 6.75-2.85 18.58-2.84 27-.14 5-1.78 10-1.8 15 0 11.09.75 22.18.82 33.27.14 11.41-3.58 25.53 4.1 34.76v3l-4.91 2.69 4.9 2.31c.03 4.92.11 9.92.03 14.92m-11.15-141.3 3.15-.12c-.6-5.13 1.72-11.23-1.89-15.45-5.16 2.2-1.07 10.87-1.26 15.61Zm4.1 116.58-3.67-4c-2.69 2.65-2.53 3.78-.07 6.51Z"/><path class="cls-24" d="M1563.42 552.25c-.37.85-.73 2.44-1.12 2.45-6.67.15-13.35.11-20.81.11.3 24.68-.23 49.85 1.13 74.4.09.62.68 1.44.45 1.78-3.3 5 0 9.84.09 14.74 1.33 48.27-2.15 96.7.09 144.93-4.35 1-4-2-4-4.75 0-81 .43-162.29-.38-243.13l9.58 7-2.38 1.23c.11.42.22.83.32 1.25ZM1753.34 583c-4.17-1.58-2.71-5.08-2.73-8.06a190 190 0 0 1 .77-21.59c1-9.34-2.2-19.75 2-28.35Zm-.05 102.05c-1-1.28-2.66-2.51-2.74-3.84.46-6.69-2.58-15 2.74-20.17Zm0-44c-.94-.95-2.72-1.93-2.7-2.85.78-4.07-.68-17.8 2.74-19.16q-.03 10.96-.04 22.01m-4.09 146.43c.31-5 1.19-9.94 1.48-14.93.12-2.29-1.52-5.16 2.54-5.61-.56 6.93 2.69 15.79-4.02 20.54m4.03-32.43c-.86-.36-2.44-.69-2.46-1.09-.18-3.94-.18-7.9 0-11.84 0-.4 1.6-.73 2.46-1.09Zm-14.74 35.51c.84-4.74 5.25-5.91 10.29-2.74Zm14.8-137.51c-3.35.2-2.82-2.2-2.88-4.25s0-4 2.89-3.76q0 3.96-.01 8.01m-217.33-101.89-2.51-2.26 2.81-1.83ZM1753.34 602q-4.61-2.49 0-5Zm-.07 111.13-3.64-1.1 3.65-1c0 .71 0 1.4-.01 2.1m-217.83-153.96-1.8-.63 1.8-.79Z"/><path d="M1220.6 760.07c.84-83.58-1.35-167.21 1.15-250.76 3.66-5.09 8.93-6.36 14.81-6.36h147.46q29.74 0 59.49.12c7.4.12 16.52 1.55 16.18 10.95q1.49 124.74 0 249.47c-.23 9-3.4 11.93-16 12.39-17.81.65-35.66.2-53.49.2-50.48 0-101 .09-151.46-.13-9.48-.25-20.56-4.13-18.14-15.88" transform="translate(-4.28)" style="fill:#3051ae"/><path class="cls-24" d="M1237.56 1230.71c-1.94 27.9-38.2 25.82-39.59-.11 3.85-24.49 37.41-26.6 39.59.11"/><path class="cls-22" d="M1219.6 969.46c166.38 2.15 336.54-4 501.09 2.24-164.52 3.78-337.78 5.55-502-.61Z"/><path class="cls-17" d="m1688.42 567.71 11 .39.93 1c.59 16.64.77 33.31-.15 49.95h-2.53c-.87-16.07 0-31.89-.27-48-43 2.25-85.61.22-128.58.9-7.75 0-7.75-.06-7.13 8.15 0 7.32.25 14.64 0 22 1.06 36.49.78 73 .47 109.47 0 3.15 1.33 4.12 4.14 3.92 0 .83 0 1.65.07 2.48h-4.29v14.69c0 6.46 0 6.44 6.59 6.47 43.77-.14 87.65 1.39 131.36 0 .33.51.67 1 1 1.53-.19.83-.39 1.66-.58 2.49-47.61-.82-95.47 1.33-143-1.16-.06-51.3-.3-102.6-.27-153.9 1-6.9-2.06-15.43 4.22-20.29 42.32-.33 84.69 0 127.02-.09"/><path class="cls-15" d="M1720.3 645c-.31 32.31 1.39 64.91-.57 97-3.1 3.84-10.72.57-15.33 1.08v-2.78c12.46-1.1 14.24 2.95 13-11.65 0-37.38-.8-74.76.17-112.11-.22-6.64-9.91-2.51-14.24-3.63v-.38c4.67-.57 9.32-1.6 14-1.05 5.03 10.21 1.91 22.52 2.97 33.52"/><path class="cls-24" d="m1712.54 611.36-9.16 1.23v.41c21-1.16 12.7 2.16 14 22l-16.61-.08a244 244 0 0 1 0-29.88c4.57.06 7.85 4.32 11.77 6.32"/><path class="cls-15" d="M1563.42 552.25h-17.06c-.1-.42-.21-.83-.32-1.25 46-3.26 93.8 0 140.35 0-40.37 4.8-82.13-.1-122.97 1.25"/><path class="cls-5" d="m1561.37 742.62 42 .49c-4.49 3.86-9.88 3.92-15.41 3.91-9.17-.36-18.5 1.16-27.59 0Z"/><path class="cls-24" d="m1700.72 582.05-.42-13c6.76-1.67 6.12 12.05.42 13m-129.3-32.24h-21c1.14-.9 2.29-2.58 3.43-2.57 5.53.76 13.21-1.17 17.57 2.57m108 3.08 11.38-3c-1.1 2.38-1.75 3.76-2.39 5.14-2.93-.97-6.85 2.17-8.99-2.14M1720.3 645c0-3.32-.07-6.65-.11-10 4.48 1.76.91 6.13 2.82 8.73Zm-134.88-95.09-10-.07c3.3-2.79 6.68-2.93 10 .07m135.18 176.14v-9c2.96 3.14 2.97 7.12 0 9m-.03-17v-8c3.87 3.07 3.88 4.89 0 8m-159.2 33.57-1 4.42-3-1v-4.11Zm158.57-121.4c-.12-1.73-.23-3.45-.35-5.18 2.93 1.54 2.26 3.32.35 5.18m-.22 120.84v-3l2.59 1.49ZM1599.42 550h-4q2.02-4.13 4 0"/><path class="cls-15" d="M1700.41 743.09c.19-.83.39-1.66.58-2.49l1.11.11.32 2.42Z"/><path class="cls-24" d="M1591.42 549.91h-3l1.73-1.71ZM1720.32 737v-1.92l1.62.72Zm-2.9-125.46-2.14-.13Z"/><path class="cls-17" d="m1702.42 743.13-.32-2.42 2.35-.35v2.78Z"/><path class="cls-24" d="M1557.16 613q.13 55 .28 110c-7.68-9.24-4-23.34-4.1-34.76-.07-11.09-.84-22.18-.82-33.27 0-5 1.66-10 1.8-15-.01-8.34-4.16-20.24 2.84-26.97m14.24-60.75 96 .59c-1.17 4-4.38 2-6.65 2-7.36.17-14.73.08-22.1-.07-8-1.22-15.62-.18-23.42 1.17-13.84-2.29-27.76-2.14-41.7-1.56-.68.05-1.42-1.38-2.13-2.13"/><path class="cls-5" d="M1546.26 604.74c-.5-4.39-1.15-8.78-1.38-13.19 0-.75 1.72-1.58 2.64-2.38 3.61 4.22 1.29 10.32 1.89 15.45Z"/><path class="cls-24" d="m1596.23 567.71-12.83-.05c2.81-2.9 13.11-6.86 12.83.05m17.2-.06h-7l-1.77-4.29c4.5-2.55 7.18-1.26 8.77 4.29"/><path class="cls-5" d="m1550.36 721.32-3.74 2.55c-2.46-2.74-2.62-3.86.07-6.51Z"/><path class="cls-24" d="M1627.43 567.67h-6c-.47-5.59 4.46-4 6 0M1557.4 726v5l-4.9-2.31Zm92.03-158.32h-6c1-1.19 2-2.38 3-3.58Zm25.99.06h-6l3.28-3.36ZM1557.16 600v7c-3.89-2.39-3.91-4.47 0-7m82.27-32.34h-4l2-2.56Zm-66-.05h-3l.5-3.21 1.1-.28Zm114.99.1-5 .08c1.62-2.65 3.3-2.57 5-.08m-121.99-.07-5 .1c1.59-2.58 3.29-2.47 5-.1m-9.25 20.36v4c-2.77-1.29-2.77-2.62 0-4m124.24-20.24h-2c.22-.8.43-1.6 1-3.79.57 2.19.79 3.03 1 3.79m-77.99-.1h-2l1-1.3Z"/><path class="cls-5" d="m1561.81 597-.06-5c4.1-1.7 2.67-3.36 0-5v-7c16.78-7.7 36.62-3.46 54.26-1.5 11.38-.52 22.8-1.19 34.06-2.79 3.74-.53 9 1.58 11.43-3.71l23-.14c1.85 5.57 8.41 3.13 13 4.19v6.94c-4.26 5.71-1.63 16.47-2.55 23.61 0 .79 1.58 1.6 2.43 2.4v4c-3.24 1.23-3.27 4.43-.08 8v4c-.44.22-1.17.34-1.26.65-2.81 10.68-6.57 1.72-8.46 9.48l-2-.15a6.77 6.77 0 0 0-10 .15h-2q-2.48-4.71-5 0h-11c-.44-1.57-.89-3.15-1.33-4.73h-1.53q-.67 2.37-1.33 4.74h-26c1.1-5.58-9-5.54-8 0h-16c-2-3.23-4-3.24-6 0h-7.72c-.26-.59-.52-1.19-.79-1.78-.16.61-.33 1.22-.5 1.82l-11 .31c-.35-.6-.7-1.2-1.06-1.8-.26.67-.52 1.34-.79 2l-6.87.16c-6.94-12.97.87-40.58-6.85-38.85m71.61-7.15c1-7.64-8.43-3.76-12.85-5.34-14.58-3.93-18.84 26.14-4.83 26.72a238 238 0 0 0 28.4.3c4.71-.16 8.28-5.39 8.38-10.76 1.33-11.19-11.43-9.71-19.1-10.89Z"/><path class="cls-11" d="M1698.15 738.93c-43.1 1.82-86.37-.23-129.53.11-6.6 0-6.59 0-6.59-6.48v-14.69c43.9 0 88.38 1.63 132.14-.58l-.15-1.69-12.58-.75c2.31-5.54 8.61-4.18 11.84-1.53 1.45-2.36 2.67-4.32 3.88-6.28Zm6.3 1.43a10.4 10.4 0 0 1-3.46.24c-.34-.51-.68-1-1-1.53.65-34-.62-68.12 1.12-102l15.91.26c.22 31.81.16 63.63.52 95.43 2.06 10.67-5.74 6.3-13.09 7.6M1561.81 597c2.88-.1 3.64 1.57 3.62 4.12-.08 11.72-1.27 23.48 3.23 34.62-.46 4.7 3.11 3.35 5.38 3.37 24.79.13 49.59.15 74.38.21-.27 5.31-.21 4.37-6.87 4-12.12-.72-24.39-1-36.44.12-6.29.59-12.4 1.72-18.7.6-4.44-1-8.94-2.82-13 1-6.67-.5-8.49 1.48-7.87 7.86 3.46 20.59-2.51 42 5.87 61.82-3.54.26-9.61 2.59-9.3-3.25.61-38.15.07-76.31-.3-114.47m99.6-24.95c-2.41 5.29-7.69 3.18-11.43 3.71-11.26 1.6-22.68 2.27-34.06 2.79-17.65-2-37.47-6.2-54.26 1.5-.62-8.21-.62-8.15 7.13-8.15 30.87.17 61.76-.4 92.62.15"/><path class="cls-15" d="M1566.25 715.39c42.46-1.24 85.27-1.06 127.77.21l.15 1.69c-42.29 2.14-85.44.63-127.85.58-.02-.87-.05-1.65-.07-2.48"/><path class="cls-22" d="M1701.1 637.06c-1.74 33.89-.47 68-1.12 102l-1.83-.14c-1.18-39.9-1.8-80.08-.51-119.9h2.53c.5 5.89-.22 12 1.12 17.78Z"/><path class="cls-11" d="M1697.37 576.1c-4.54-1.06-11.1 1.38-13-4.19l13-.91Zm-.08 32.95c-.85-.8-2.43-1.61-2.42-2.4.91-7.15-1.72-17.89 2.54-23.61Zm.35 9.95-.48 2c-3.19-3.58-3.16-6.78.08-8Zm-135.92-32c2.71 1.66 4.14 3.32 0 5Z"/><path class="cls-25" d="m1701.29 636.81-.55-1.9 16.61.08c-.1.76-.21 1.52-.32 2.28l-15.91-.27Z"/><path class="cls-18" d="M1633.42 589.88c7.67 1.18 20.43-.3 19.1 10.92-.1 5.37-3.67 10.6-8.38 10.76-13.67-.58-44.51 6.32-35.55-18 7.82-4.16 16.25-3.78 24.83-3.68"/><path class="cls-22" d="M1648.42 639.35c-24.79-.06-49.59-.08-74.38-.21-2.27 0-5.84 1.33-5.38-3.36 39.55-1.33 79.19-.45 118.76-.62l3 3.7c-13.62 1.46-28.07-.08-42 .49"/><path class="cls-11" d="M1633.42 589.88c-8.58-.1-17-.47-24.83 3.7.86-6.93 5.46-10.28 12-9 4.4 1.54 13.84-2.34 12.83 5.3m57.05 48.98-3-3.7c1.88-7.75 5.66 1.19 8.46-9.48.09-.31.82-.43 1.26-.65v19c-2.29-1.7-4.47-3.43-6.72-5.17m-63.06-3.73h-8c-1.02-5.54 9.1-5.58 8 0m58-.13-10 .15a6.77 6.77 0 0 1 10-.15m-28 .11h-4q.66-2.37 1.33-4.74h1.33c.45 1.63.9 3.17 1.34 4.74m-54 .01h-6c2-3.24 4-3.23 6 0m70 .04h-5q2.52-4.7 5 0m-96.03.26-1.85.2c.27-.66.53-1.33.79-2 .4.6.71 1.2 1.06 1.8m12.34-.35h-1.3c.18-.6.35-1.21.51-1.82.24.63.5 1.23.79 1.82"/><path class="cls-23" d="M1690.47 638.86c2.22 1.74 4.43 3.47 6.66 5.19v14l-4.62 2.77 4.62 3.25v10c-1.87 1.53-5.58 3.71-5.31 4.47 1.1 3.09 3.42 5.74 5.3 8.55v5c-4.31 0-8.58 0-10.72 4.83l-65-1-1-1.46-1 1.43-35 .12c-.43-.6-.87-1.19-1.31-1.78l-1.69 1.88-8.07 1.3.18 2.33 21.89.49c-2.44 7.76 28.86 1.5 35 4.82 8 6.52 20.81-3.32 28.86 5.72 7.58.5 16.11-3.57 23.14 2.28l-1 1.81-53-.06c-.73-4.18-3.7-4.62-7.26-4.84-3.82-.22-4.06 2.38-4.75 4.85h-2c-2.49-6-10-6.94-12 0h-4c-.48-1.45-1-2.89-1.45-4.33a17.6 17.6 0 0 0-6.56 4.33l-19-.06c-8.38-19.85-2.41-41.23-5.87-61.82-.51-2.08.23-4.66 1-6.75.29-.75 2.5-.76 3.83-1.11v3c-2.43 1-3.8 2.35-2 5a65.2 65.2 0 0 0 6.41 18.35c-.66 2.65-7.13 15.05.69 11.59 14.39 2.42 29.31.62 43.91 1.27-2.16 6.88 22.43 2.88 27.1 3.62 1.35-.07 2.6-2.38 3.89-3.65 9.41-.06 18.85-.54 28.23 0 5.37.29 5.63-3.56 6.1-6.42.67-4-3.38-2.17-5.31-3-4.08-1.54-8.7-.47-13-.83-2.31-3-4.65-3-7-.06l-5-.75-2-2.07c-.33-1.33-.66-2.67-1-4 7.71-3.78 17-3.34 25.42-4 7.8 0 7.8 0 7.55-8l7.63-1.74c.6-13.11-.79-4.64-8.6-10.28l1.13-3.71 2.91.29 1.06 1.83c.25-.69.49-1.38.73-2.07Z"/><path class="cls-5" d="M1682.41 713c-7-5.85-15.55-1.78-23.14-2.28-8-9-20.82.8-28.86-5.72 8.93.52 19.13-1.07 27.65.67 5.73 7.78 13-.47 20.19 1.88 5.1 1.43 4.08-4 4.17-7.12 5.47-1.27 9.94 1.22 14.72 3.58v3c-1.21 2-2.43 3.92-3.88 6.28-3.11-2.08-6.94-3.93-10.85-.29"/><path class="cls-24" d="M1701.29 636.81a1.1 1.1 0 0 0-.19.25Z"/><path class="cls-5" d="M1570.41 648v-3c23.72-.37 47.32-3.53 71.14-1.72 6.66.4 6.6 1.34 6.87-4h19c-.85 6.86 11.75 2.55 16 3.72 7.82 5.64 9.2-2.81 8.6 10.28-23.71 4.18-47.63.59-71.58.65-3.23-4.18-6.91-4.16-10 0-6.64.78-13.67-.11-20 2-4.06 6.2-13.22 11.34-20 6-.18-5.17-3.78-8.61-.03-13.93"/><path class="cls-5" d="m1586.41 644-13 1c4.06-3.78 8.56-2 13-1"/><path class="cls-11" d="M1616.41 714.8c.69-2.47.93-5.07 4.75-4.85 3.56.22 6.53.66 7.26 4.84Zm-14.01-.03c2-6.91 9.53-6 12 0Zm-11.99.01a17.6 17.6 0 0 1 6.56-4.33c.48 1.44 1 2.88 1.45 4.33Zm106.73-10.73-8.62-4-2.12-3.21c2.14-4.8 6.41-4.85 10.72-4.83q.02 5.99.02 12.04m-.04-17c-1.88-2.81-4.2-5.46-5.3-8.55-.27-.76 3.44-2.94 5.31-4.47Zm.02-23-4.62-3.25 4.62-2.77ZM1683.41 643c-4.26-1.17-16.86 3.14-16-3.72h17.14Zm5.83-3.62c-.24.69-.48 1.38-.73 2.07l-1.06-1.83Z"/><path class="cls-13" d="M1654.43 673.12c4.44 1.91 32.7-1.25 30.31 4.64-.47 2.86-.73 6.71-6.1 6.42-34.26-1.11-69.05 2-103.13-1.19.75-3.5-2.64-9.23 4.9-9 24.59-.79 49.67 1.01 74.02-.87"/><path class="cls-14" d="m1686.4 696.86 2.12 3.21c-38.3.83-76.69.28-115-.34l-.18-2.33c37.38-3.79 75.44-.18 113.06-.54"/><path d="m1629.7 700.31 57 .16c-.09 3.17.93 8.55-4.17 7.12-7.15-2.35-14.46 5.9-20.19-1.88-10.22-2.24-22.21 1-32.65-1.67 0-1.24.01-2.49.01-3.73" transform="translate(-4.28)" style="fill:#fefefe"/><path class="cls-13" d="m1651.25 655 33.13.09c.25 8.06.25 8.06-7.55 8-28.14-2.86-57.21 1.2-85.5-2 29.48-4.46 60.21-.21 89.94-2.72v-1.68c-9.89-1.88-20.24.9-30.02-1.69"/><path class="cls-11" d="M1602.4 662.2c23.21.81 47.1-1.78 70 .93-7 1.25-14.64.34-21 3.91-10.29-1.14-20.55-2.41-30.92-2-5.35-.83-15.27 2.47-18.08-2.84"/><path class="cls-2" d="m1632.41 665 19 2a18.7 18.7 0 0 1 1 6.79l-19-.07q-.5-4.31-1-8.72"/><path class="cls-5" d="M1580.41 674c-7.54-.19-4.15 5.54-4.9 9-7.82 3.44-1.35-8.94-.69-11.6-1.44-3.06-2.93-6.2-4.41-9.35q6.51 4.66 13 0c.89 4.44-1 8.18-3 11.95m39.01 10.25h31c-1.29 1.27-2.54 3.58-3.89 3.65-4.71-.78-29.22 3.25-27.11-3.65m6 16.06v3.73h-25.15c-2.74 0-5-.27-4.85-3.84Z"/><path class="cls-11" d="m1666.42 673.92-7-.06c2.35-2.86 4.69-2.98 7 .06"/><path class="cls-5" d="M1570.41 648c-.66 1.67-1.33 3.33-2 5-1.8-2.61-.43-4 2-5m-2 7 2 4Z"/><path class="cls-11" d="m1584.41 696-3 .1 1.69-1.88c.44.59.88 1.18 1.31 1.78m67.98-22.17v-2.79l2 2.07Zm-30.97 22.08h-2l1-1.44Zm58.01-21.16-2-.73Z"/><path class="cls-9" d="M1651.25 655c9.78 2.62 20.13-.16 30 1.71v1.68c-29.73 2.51-60.46-1.74-89.93 2.72l-1.06-1 .1-4c19.91-4.02 40.7-1.3 60.89-1.11"/><path class="cls-23" d="m1590.28 660.07 1.06 1 8.07 1.14c2.59 11.06-6.68 7.06-13.33 5l-1.67 6.68h-4c2-3.72 3.89-7.46 3-11.91 2.21-1.11 4.31-2.35 6.87-1.91"/><path class="cls-11" d="M1620.43 654h-10c3.09-4.19 6.77-4.21 10 0m-30.15 6.07h-2.86c1-1.34 2-2.67 3-4-.08 1.3-.11 2.65-.14 4m3.13-5.07-3 1Z"/><path class="cls-2" d="m1584.41 673.93 1.67-6.68c6.66 2 15.92 6 13.33-5h3c1.85 5.42 20.08 2 26 2.84-3.09 2.48-6.66 2.16-10.36 2v2c4 .38 11.79-1.79 11.38 4.7Z"/><path class="cls-23" d="M1629.41 673.76c.41-6.48-7.4-4.32-11.38-4.7v-2a44 44 0 0 0 6.5-.08c2.54-1.07 4.87-2.48 7.86-1.92q.51 4.37 1 8.72Z"/></svg>