<svg xmlns="http://www.w3.org/2000/svg" viewBox="0 0 176.39 60.24"><defs><style>.cls-1,.cls-2{fill:#3080e8;}.cls-2,.cls-4,.cls-5{fill-rule:evenodd;}.cls-3,.cls-4{fill:#0d0d0d;}.cls-5{fill:#231815;}</style></defs><g id="Layer_1-8766" data-name="Layer 1"><path class="cls-1" d="M232,177.63h5.12a8.46,8.46,0,0,0,4-.92,3.12,3.12,0,0,0,1.89-2.62h0a3.12,3.12,0,0,0-1.89-2.62,8.46,8.46,0,0,0-4-.92H232a8.46,8.46,0,0,0-4,.92,3.12,3.12,0,0,0-1.89,2.62h0a3.12,3.12,0,0,0,1.89,2.62,8.46,8.46,0,0,0,4,.92Zm5.12-1.42H232a7.06,7.06,0,0,1-3.32-.74c-.71-.39-1.15-.88-1.15-1.38h0c0-.5.44-1,1.15-1.38A7.06,7.06,0,0,1,232,172h5.12a7.09,7.09,0,0,1,3.32.74c.7.39,1.15.88,1.15,1.38h0c0,.5-.45,1-1.15,1.38A7.09,7.09,0,0,1,237.1,176.21Z" transform="translate(-108.33 -149.39)"/><path class="cls-1" d="M237.1,165.28H232a7.18,7.18,0,0,1-3.32-.74c-.71-.39-1.15-.88-1.15-1.38h0c0-.51.44-1,1.15-1.38A7.05,7.05,0,0,1,232,161h5.12a7.08,7.08,0,0,1,3.32.75c.7.38,1.15.87,1.15,1.38h0c0,.5-.45,1-1.15,1.38A7.21,7.21,0,0,1,237.1,165.28Z" transform="translate(-108.33 -149.39)"/><path class="cls-1" d="M232,166.7h5.12a8.58,8.58,0,0,0,4-.92,3.13,3.13,0,0,0,1.89-2.62h0a3.11,3.11,0,0,0-1.89-2.62,8.46,8.46,0,0,0-4-.93H232a8.46,8.46,0,0,0-4,.93,3.11,3.11,0,0,0-1.89,2.62h0a3.13,3.13,0,0,0,1.89,2.62A8.58,8.58,0,0,0,232,166.7Z" transform="translate(-108.33 -149.39)"/><path class="cls-1" d="M252.29,149.39h5.12a8.46,8.46,0,0,1,4,.92,3.12,3.12,0,0,1,1.89,2.62h0a3.12,3.12,0,0,1-1.89,2.62,8.46,8.46,0,0,1-4,.92h-5.12a8.43,8.43,0,0,1-4-.92,3.12,3.12,0,0,1-1.89-2.62h0a3.12,3.12,0,0,1,1.89-2.62,8.43,8.43,0,0,1,4-.92Zm5.12,1.42h-5.12a7.06,7.06,0,0,0-3.32.74c-.71.39-1.15.88-1.15,1.38h0c0,.5.44,1,1.15,1.38a7.06,7.06,0,0,0,3.32.74h5.12a7.09,7.09,0,0,0,3.32-.74c.7-.39,1.14-.88,1.14-1.38h0c0-.5-.44-1-1.14-1.38A7.09,7.09,0,0,0,257.41,150.81Z" transform="translate(-108.33 -149.39)"/><path class="cls-1" d="M257.41,172.67h-5.12a7.05,7.05,0,0,0-3.32.75c-.71.38-1.15.88-1.15,1.38s.44,1,1.15,1.38a7.06,7.06,0,0,0,3.32.74h5.12a7.09,7.09,0,0,0,3.32-.74c.7-.39,1.14-.88,1.14-1.38s-.44-1-1.14-1.38A7.08,7.08,0,0,0,257.41,172.67Z" transform="translate(-108.33 -149.39)"/><path class="cls-1" d="M252.29,171.26h5.12a8.46,8.46,0,0,1,4,.92,2.76,2.76,0,0,1,0,5.24,8.46,8.46,0,0,1-4,.92h-5.12a8.43,8.43,0,0,1-4-.92,2.76,2.76,0,0,1,0-5.24A8.43,8.43,0,0,1,252.29,171.26Z" transform="translate(-108.33 -149.39)"/><path class="cls-1" d="M272.6,168.11h5.12a8.46,8.46,0,0,0,4-.92,3.12,3.12,0,0,0,1.89-2.62h0a3.13,3.13,0,0,0-1.89-2.62,8.46,8.46,0,0,0-4-.92H272.6a8.43,8.43,0,0,0-4,.92,3.13,3.13,0,0,0-1.89,2.62h0a3.12,3.12,0,0,0,1.89,2.62,8.43,8.43,0,0,0,4,.92Zm5.12-1.41H272.6a7.05,7.05,0,0,1-3.32-.75c-.71-.38-1.15-.88-1.15-1.38h0c0-.5.44-1,1.15-1.38a7.06,7.06,0,0,1,3.32-.74h5.12a7,7,0,0,1,3.31.74c.71.39,1.15.88,1.15,1.38h0c0,.5-.44,1-1.15,1.38A7,7,0,0,1,277.72,166.7Z" transform="translate(-108.33 -149.39)"/><path class="cls-1" d="M277.72,155.76H272.6a7.06,7.06,0,0,1-3.32-.74c-.71-.39-1.15-.88-1.15-1.38s.44-1,1.15-1.38a7.06,7.06,0,0,1,3.32-.74h5.12a7,7,0,0,1,3.31.74c.71.39,1.15.88,1.15,1.38s-.44,1-1.15,1.38A7,7,0,0,1,277.72,155.76Z" transform="translate(-108.33 -149.39)"/><path class="cls-1" d="M272.6,157.18h5.12a8.46,8.46,0,0,0,4-.92,2.76,2.76,0,0,0,0-5.24,8.46,8.46,0,0,0-4-.92H272.6a8.43,8.43,0,0,0-4,.92,2.76,2.76,0,0,0,0,5.24A8.43,8.43,0,0,0,272.6,157.18Z" transform="translate(-108.33 -149.39)"/><rect class="cls-1" x="165.76" y="20.79" width="2.13" height="8.16"/><rect class="cls-1" x="145.45" y="9.24" width="2.13" height="10.48"/><rect class="cls-1" x="125.14" width="2.13" height="8.16"/></g><g id="_Layer_1" data-name="#Layer 1"><path class="cls-2" d="M262.13,186.15h17.06a5.56,5.56,0,0,1,5.54,5.54v11.62a5.56,5.56,0,0,1-5.54,5.55H262.13a5.57,5.57,0,0,1-5.55-5.55V191.69a5.57,5.57,0,0,1,5.55-5.54Zm1.9,4.1a2.38,2.38,0,0,0-2.37,2.37v9.77a2.38,2.38,0,0,0,2.37,2.37h13.25a2.38,2.38,0,0,0,2.37-2.37v-9.77a2.38,2.38,0,0,0-2.37-2.37Z" transform="translate(-108.33 -149.39)"/><path class="cls-2" d="M231.28,186.15h19.51c-1,2.07-1.39,2.88-2,4.1H233.18a2.38,2.38,0,0,0-2.37,2.37v9.77a2.38,2.38,0,0,0,2.37,2.37h11.95a2.37,2.37,0,0,0,2.36-2.37v-3h-7.75l-2.07-3.92h14.91v7.84a5.57,5.57,0,0,1-5.55,5.55H231.28a5.57,5.57,0,0,1-5.55-5.55V191.69A5.57,5.57,0,0,1,231.28,186.15Z" transform="translate(-108.33 -149.39)"/><rect class="cls-3" x="89.99" y="36.76" width="4.47" height="23.48"/><polygon class="cls-3" points="109.13 36.76 113.6 36.76 113.6 60.24 109.13 60.24 109.13 50.74 98.87 50.74 97.16 46.27 109.13 46.27 109.13 36.76"/><path class="cls-3" d="M177.61,203.7l1.51-4.47h7.66a4.32,4.32,0,0,0,4.3-4.31,4.3,4.3,0,0,0-4.3-4.3H174.46v19H170V186.15h16.79a8.78,8.78,0,1,1,0,17.55Z" transform="translate(-108.33 -149.39)"/><path class="cls-3" d="M134.53,186.15l-1.16,4.47H114.94a2.16,2.16,0,0,0-1.55.62,3.62,3.62,0,0,0,0,4,2,2,0,0,0,1.5.75l14.62-.07a5.85,5.85,0,0,1,4.45,2.27,6.5,6.5,0,0,1,1.65,4.7,7.38,7.38,0,0,1-2.08,4.91,6.41,6.41,0,0,1-4.61,1.86H109.49l1.3-4.47h18.08a2.15,2.15,0,0,0,1.55-.62,3.08,3.08,0,0,0,.69-1.86,2.24,2.24,0,0,0-.55-1.59,2,2,0,0,0-1.48-.75l-14.62.07a5.82,5.82,0,0,1-4.45-2.27,6.52,6.52,0,0,1-1.67-4.7c.07-1.79.66-4.17,2-5.42a6.43,6.43,0,0,1,4.63-1.87Z" transform="translate(-108.33 -149.39)"/><path class="cls-4" d="M144.16,186.15h17.06a5.56,5.56,0,0,1,5.54,5.54v11.62a5.56,5.56,0,0,1-5.54,5.55H144.16a5.57,5.57,0,0,1-5.55-5.55V191.69a5.57,5.57,0,0,1,5.55-5.54Zm1.9,4.1a2.38,2.38,0,0,0-2.37,2.37v9.77a2.38,2.38,0,0,0,2.37,2.37h13.25a2.38,2.38,0,0,0,2.37-2.37v-9.77a2.38,2.38,0,0,0-2.37-2.37Z" transform="translate(-108.33 -149.39)"/><path class="cls-5" d="M119.06,152.06c2.81,1.94,4.63,2.68,5.44,2.22,1.81,0,5.07-2.3,6.94-2.53-2,1.3-3.47,3-3.35,4.91l-2.26,1.56c-.44.58.45.63,2.68.16l3.27-.24c.27.14-.7.57-2.51,1.21-.8.45.13.46,1.84.28,2.11.55,3.49.65,2.26-.86,0-.8-.88-1.31-1.76-1.83a20.43,20.43,0,0,0,5.19-2.62c-3.42-.55-4.37-1.62-3.27-3.12-.2-.41-.32-.8,2.18-.82,2-.62,1.67-.12,1,.55,1.36.26,1.57.84,1,1.64a5.88,5.88,0,0,1,2.51-.24,6.2,6.2,0,0,1,4.27-.46,2.79,2.79,0,0,1,2.34.78c-1.36,1.56-5.69,2.4-9.12,3.47-.66.54-.69,1-.09,1.28,1.53.7,2.32,1.53,1.51,2.7l-3.68,3.62c-.49.59.57.82,3.18.7L143,164l3.43.75c1.37.53,1.56.94-.84,1.09l-6.27.62h-3.69c-.08,1.65-.16,3.3-.25,5a5.49,5.49,0,0,1,.25,5c-1.56,1.77-2.79,1.21-4,.58a5.18,5.18,0,0,1-.25-4.05c0-2.44.11-4.87.16-7.3a10.56,10.56,0,0,0-4.68.94c-1.38,2.36-4.31,4.11-8.2,5.5l-4,.08c2.66-1.32,5.21-2.66,6.44-4.29-4.41.86-8.56,1.25-11.46-.63-1.28-.73-1.39-1.1,1.09-.66,4.89.68,8-.57,11.21-1.76.13-.54,1.21-.7,3.68-.27.17.39.67.51,1.51.35,1.46,0,2-.12.33-.7a14,14,0,0,1-5.6-1.95c-1.27-.66-1.63-1.72,0-3.63l.75-1.05c-.25-.61-.72-.7-1.42-.27a11.61,11.61,0,0,1-4.44,1.13c-2.65-.91-2.95-2.19-.92-3.83,1.87-.23,3-1.09,3.27-2.57Zm6.08,9c0,.46-1.11,1.3.56,1.3.92,0,.61-.07,1-.31.11-.07,1.69.06,2,.06.73,0,1.16-.56.56-.81-.32-.13-.91-.16-1.25-.27a3.09,3.09,0,0,0-1.38-.33,15.09,15.09,0,0,1-1.47.36Zm1.06-.6a6.24,6.24,0,0,0,.88-.19c.38-.11.45-.27.28-.44a1.89,1.89,0,0,0-.4-.3,7.28,7.28,0,0,0-1.41-.08c-.5,0-.76.14-.76.38s-.24.67.16.76.86-.17,1.25-.13Zm4.49.95c0,.17.19.24.53.24a2.31,2.31,0,0,0,.85-.07c.49-.23.9-.1.9-.48a.41.41,0,0,0-.56-.31c-.35.15-.56.47-1.1.47A2.55,2.55,0,0,0,130.69,161.42Z" transform="translate(-108.33 -149.39)"/><path class="cls-5" d="M153.62,160.86a17.86,17.86,0,0,0,12.5-2.42c.75-1.19,2.76-2.72,5.22-4.38,1-.73.77-1.43-.23-2.11l1.79-.9a11.67,11.67,0,0,1,4.26,1.64c1,.38-.41,1.91-2.2,3.6l.6.49a4.23,4.23,0,0,1,2.56-.69l3.67.77c.55.22.14.49-.41.77A67.21,67.21,0,0,1,171.25,160l-8.66,3c-3.75.53-6.77-.72-9.89-1.73Z" transform="translate(-108.33 -149.39)"/><path class="cls-5" d="M186,152.65l1.38-.85,1.87,0c1,1,1.63,1.94,1.24,2.46,0,.4.49.47,1.47.19l3.39-1.82a4.43,4.43,0,0,1,2.65-2.28,2.29,2.29,0,0,1,1.88-.17,13.54,13.54,0,0,1,4.63,1.62,22.6,22.6,0,0,1-10.22,3.83l-3.62,1.92c-.29.78,0,1,1,.81a43.28,43.28,0,0,1,7.23-2l5.45,1c1.68.54,1.29,1.08-1.19,1.62a41.16,41.16,0,0,1-11.54.75,14.6,14.6,0,0,1-5.59-2.65Z" transform="translate(-108.33 -149.39)"/><path class="cls-5" d="M187.1,162.42a4.46,4.46,0,0,1,4.49.53l-.05,1.57c0,.44.43.54,1.19.29l5.55-3.22a10.59,10.59,0,0,1,6.23.47,2.74,2.74,0,0,1,2.38.53,84.41,84.41,0,0,1-10.63,3.83c-2.94.9-4.08,2-4.58,3.1l-1.42.83c-.46.79-.06.88.46.88l1.51-.49c1.88,1.24,6.78.79,11.64.36,4.52-.13,7.32-.44,8.06-1,.91-1.37.38-2.45-.19-3.53,0-.53,1.21-1.07,2.57-1.6,1.15.84,2.28,1.69,2.56,2.82l4,1.79c1.73.57,1.2,1.18-.37,1.8.63,1.29-2.11,1.41-4.39,1.69a35.36,35.36,0,0,0-8.2.57,52.33,52.33,0,0,1-14.8-.66c-1.52-.6-3.37-.72-3.94-2.71-1,.27-1.54-.73-2.06-1.78Z" transform="translate(-108.33 -149.39)"/><path class="cls-5" d="M163.33,172.64q1.92-4.39,3.85-8.79a5.43,5.43,0,0,1,4.71-2.28c2-.73,3.85-1.17,4.9-.58,2.84.38,3.65.58,2.8,1.71a52.87,52.87,0,0,1,.69,7.18c.62.91.78,2.38.55,4.32q2.07,2.3-2.8,1.94L175,174.86c-.58-.74-.29-1.69.23-2.71.46-1.3.37-2.11-.27-2.44a15.52,15.52,0,0,1-4.4.19c0,1.06.09,2.11.14,3.17a2.78,2.78,0,0,1-1.7,2.45,3.14,3.14,0,0,1-2.93-.06,5.52,5.52,0,0,1-2.7-2.82Zm6.91-8.53c0,.82,2.12.48,3.3.7.43.09.35.42.74.45.65.07,1.69,0,1.69-.38s-.73-.39-.73-.92a2.89,2.89,0,0,0-.05-.66c-.12-.5-.31-.45-1.37-.45s-3.4.83-3.58,1.26Zm.74,1.58c-.22.44-.56.39-1.1.71-.71.42,1.6.65,1.05.74s-.78.05-.78.41.33.51.87.64c1,.24,1.61-.43,2.11-.62,1-.38,2.32.63,2.52-.47.15-.83.42-1.41-1.74-1.41Z" transform="translate(-108.33 -149.39)"/></g></svg>